<?xml version="1.0" encoding="UTF-8"?>
<svg xmlns="http://www.w3.org/2000/svg" xmlns:xlink="http://www.w3.org/1999/xlink" width="396pt" height="252pt" viewBox="0 0 396 252">
<defs>
<g>
<g id="glyph-0-0">
<path d="M 3.277344 0 L 2.503906 0 L 2.503906 -4.929688 C 2.320312 -4.75 2.074219 -4.574219 1.773438 -4.394531 C 1.46875 -4.21875 1.199219 -4.085938 0.957031 -3.996094 L 0.957031 -4.742188 C 1.390625 -4.945312 1.769531 -5.195312 2.09375 -5.484375 C 2.417969 -5.773438 2.644531 -6.054688 2.78125 -6.324219 L 3.277344 -6.324219 Z M 3.277344 0 "/>
</g>
<g id="glyph-0-1">
<path d="M 2.84375 0 L 2.84375 -1.507812 L 0.113281 -1.507812 L 0.113281 -2.21875 L 2.988281 -6.300781 L 3.617188 -6.300781 L 3.617188 -2.21875 L 4.46875 -2.21875 L 4.46875 -1.507812 L 3.617188 -1.507812 L 3.617188 0 L 2.84375 0 M 2.84375 -2.21875 L 2.84375 -5.058594 L 0.871094 -2.21875 Z M 2.84375 -2.21875 "/>
</g>
<g id="glyph-0-2">
<path d="M 0.367188 -3.105469 C 0.367188 -3.851562 0.441406 -4.449219 0.59375 -4.90625 C 0.75 -5.359375 0.976562 -5.710938 1.277344 -5.957031 C 1.582031 -6.203125 1.960938 -6.324219 2.417969 -6.324219 C 2.757812 -6.324219 3.054688 -6.257812 3.308594 -6.121094 C 3.5625 -5.984375 3.773438 -5.789062 3.941406 -5.53125 C 4.105469 -5.277344 4.238281 -4.964844 4.332031 -4.59375 C 4.425781 -4.226562 4.472656 -3.730469 4.472656 -3.105469 C 4.472656 -2.367188 4.398438 -1.769531 4.246094 -1.316406 C 4.09375 -0.863281 3.867188 -0.511719 3.5625 -0.265625 C 3.261719 -0.015625 2.878906 0.109375 2.417969 0.109375 C 1.8125 0.109375 1.335938 -0.109375 0.988281 -0.546875 C 0.574219 -1.070312 0.367188 -1.921875 0.367188 -3.105469 M 1.160156 -3.105469 C 1.160156 -2.074219 1.28125 -1.382812 1.523438 -1.042969 C 1.765625 -0.699219 2.0625 -0.527344 2.417969 -0.527344 C 2.773438 -0.527344 3.074219 -0.699219 3.316406 -1.042969 C 3.558594 -1.386719 3.679688 -2.074219 3.679688 -3.105469 C 3.679688 -4.144531 3.558594 -4.832031 3.316406 -5.171875 C 3.074219 -5.515625 2.773438 -5.683594 2.410156 -5.683594 C 2.054688 -5.683594 1.773438 -5.535156 1.558594 -5.234375 C 1.292969 -4.851562 1.160156 -4.140625 1.160156 -3.105469 Z M 1.160156 -3.105469 "/>
</g>
<g id="glyph-0-3">
<path d="M 0.367188 -1.648438 L 1.175781 -1.71875 C 1.238281 -1.324219 1.378906 -1.027344 1.597656 -0.828125 C 1.816406 -0.628906 2.078125 -0.527344 2.390625 -0.527344 C 2.761719 -0.527344 3.078125 -0.667969 3.335938 -0.949219 C 3.59375 -1.230469 3.722656 -1.601562 3.722656 -2.066406 C 3.722656 -2.507812 3.597656 -2.855469 3.347656 -3.109375 C 3.101562 -3.367188 2.777344 -3.492188 2.375 -3.492188 C 2.125 -3.492188 1.902344 -3.4375 1.703125 -3.324219 C 1.5 -3.210938 1.34375 -3.0625 1.230469 -2.882812 L 0.503906 -2.976562 L 1.113281 -6.214844 L 4.246094 -6.214844 L 4.246094 -5.472656 L 1.730469 -5.472656 L 1.390625 -3.78125 C 1.769531 -4.042969 2.167969 -4.175781 2.582031 -4.175781 C 3.132812 -4.175781 3.597656 -3.984375 3.976562 -3.605469 C 4.351562 -3.222656 4.542969 -2.734375 4.542969 -2.136719 C 4.542969 -1.566406 4.375 -1.074219 4.042969 -0.65625 C 3.640625 -0.148438 3.089844 0.109375 2.390625 0.109375 C 1.816406 0.109375 1.347656 -0.0546875 0.984375 -0.375 C 0.625 -0.695312 0.417969 -1.121094 0.367188 -1.648438 Z M 0.367188 -1.648438 "/>
</g>
<g id="glyph-0-4">
<path d="M 4.378906 -4.757812 L 3.609375 -4.695312 C 3.539062 -5 3.441406 -5.21875 3.316406 -5.359375 C 3.109375 -5.578125 2.851562 -5.6875 2.542969 -5.6875 C 2.296875 -5.6875 2.082031 -5.621094 1.894531 -5.484375 C 1.652344 -5.304688 1.460938 -5.046875 1.320312 -4.703125 C 1.179688 -4.363281 1.105469 -3.878906 1.101562 -3.25 C 1.285156 -3.53125 1.515625 -3.742188 1.785156 -3.878906 C 2.050781 -4.015625 2.335938 -4.085938 2.628906 -4.085938 C 3.144531 -4.085938 3.585938 -3.898438 3.945312 -3.515625 C 4.308594 -3.136719 4.492188 -2.648438 4.492188 -2.046875 C 4.492188 -1.648438 4.40625 -1.28125 4.234375 -0.941406 C 4.0625 -0.605469 3.828125 -0.34375 3.53125 -0.164062 C 3.234375 0.015625 2.894531 0.109375 2.519531 0.109375 C 1.875 0.109375 1.347656 -0.128906 0.941406 -0.605469 C 0.535156 -1.078125 0.332031 -1.859375 0.332031 -2.949219 C 0.332031 -4.164062 0.554688 -5.050781 1.003906 -5.601562 C 1.398438 -6.085938 1.925781 -6.324219 2.589844 -6.324219 C 3.085938 -6.324219 3.492188 -6.1875 3.808594 -5.910156 C 4.125 -5.628906 4.316406 -5.246094 4.378906 -4.757812 M 1.21875 -2.039062 C 1.21875 -1.773438 1.277344 -1.519531 1.390625 -1.277344 C 1.503906 -1.03125 1.660156 -0.847656 1.863281 -0.71875 C 2.066406 -0.59375 2.28125 -0.527344 2.503906 -0.527344 C 2.832031 -0.527344 3.113281 -0.660156 3.347656 -0.925781 C 3.582031 -1.1875 3.699219 -1.546875 3.699219 -2 C 3.699219 -2.433594 3.582031 -2.777344 3.351562 -3.027344 C 3.121094 -3.277344 2.828125 -3.402344 2.476562 -3.402344 C 2.125 -3.402344 1.828125 -3.277344 1.585938 -3.027344 C 1.34375 -2.777344 1.21875 -2.449219 1.21875 -2.039062 Z M 1.21875 -2.039062 "/>
</g>
<g id="glyph-0-5">
<path d="M 0.417969 -5.472656 L 0.417969 -6.21875 L 4.496094 -6.21875 L 4.496094 -5.617188 C 4.09375 -5.1875 3.695312 -4.621094 3.300781 -3.914062 C 2.910156 -3.207031 2.605469 -2.480469 2.390625 -1.730469 C 2.234375 -1.203125 2.136719 -0.628906 2.09375 0 L 1.296875 0 C 1.304688 -0.496094 1.402344 -1.09375 1.589844 -1.796875 C 1.777344 -2.496094 2.042969 -3.175781 2.390625 -3.828125 C 2.738281 -4.476562 3.109375 -5.027344 3.503906 -5.472656 Z M 0.417969 -5.472656 "/>
</g>
<g id="glyph-0-6">
<path d="M 1.554688 -3.417969 C 1.234375 -3.535156 0.996094 -3.699219 0.84375 -3.917969 C 0.6875 -4.136719 0.609375 -4.398438 0.609375 -4.699219 C 0.609375 -5.160156 0.773438 -5.542969 1.105469 -5.855469 C 1.433594 -6.167969 1.871094 -6.324219 2.417969 -6.324219 C 2.96875 -6.324219 3.410156 -6.164062 3.746094 -5.847656 C 4.082031 -5.527344 4.25 -5.136719 4.25 -4.679688 C 4.25 -4.386719 4.171875 -4.132812 4.019531 -3.917969 C 3.867188 -3.699219 3.632812 -3.535156 3.320312 -3.417969 C 3.707031 -3.289062 4.003906 -3.085938 4.203125 -2.804688 C 4.40625 -2.523438 4.507812 -2.191406 4.507812 -1.800781 C 4.507812 -1.261719 4.316406 -0.808594 3.9375 -0.441406 C 3.554688 -0.0742188 3.054688 0.109375 2.433594 0.109375 C 1.808594 0.109375 1.308594 -0.078125 0.929688 -0.445312 C 0.546875 -0.8125 0.355469 -1.273438 0.355469 -1.820312 C 0.355469 -2.230469 0.460938 -2.574219 0.667969 -2.851562 C 0.875 -3.128906 1.171875 -3.316406 1.554688 -3.417969 M 1.402344 -4.726562 C 1.402344 -4.429688 1.496094 -4.183594 1.6875 -3.996094 C 1.878906 -3.808594 2.128906 -3.710938 2.4375 -3.710938 C 2.734375 -3.710938 2.976562 -3.804688 3.167969 -3.992188 C 3.359375 -4.179688 3.453125 -4.410156 3.453125 -4.683594 C 3.453125 -4.96875 3.355469 -5.207031 3.160156 -5.398438 C 2.964844 -5.59375 2.71875 -5.6875 2.429688 -5.6875 C 2.132812 -5.6875 1.886719 -5.59375 1.691406 -5.40625 C 1.5 -5.214844 1.402344 -4.988281 1.402344 -4.726562 M 1.152344 -1.816406 C 1.152344 -1.597656 1.203125 -1.382812 1.308594 -1.175781 C 1.414062 -0.972656 1.570312 -0.8125 1.773438 -0.699219 C 1.980469 -0.585938 2.203125 -0.527344 2.441406 -0.527344 C 2.808594 -0.527344 3.117188 -0.648438 3.355469 -0.886719 C 3.597656 -1.121094 3.71875 -1.425781 3.71875 -1.792969 C 3.71875 -2.164062 3.59375 -2.472656 3.34375 -2.714844 C 3.097656 -2.960938 2.789062 -3.082031 2.414062 -3.082031 C 2.050781 -3.082031 1.75 -2.960938 1.511719 -2.71875 C 1.269531 -2.480469 1.152344 -2.179688 1.152344 -1.816406 Z M 1.152344 -1.816406 "/>
</g>
<g id="glyph-0-7">
<path d="M 0.703125 0 L 0.703125 -6.300781 L 1.539062 -6.300781 L 1.539062 -3.710938 L 4.8125 -3.710938 L 4.8125 -6.300781 L 5.644531 -6.300781 L 5.644531 0 L 4.8125 0 L 4.8125 -2.96875 L 1.539062 -2.96875 L 1.539062 0 Z M 0.703125 0 "/>
</g>
<g id="glyph-0-8">
<path d="M 0.652344 0 L 0.652344 -6.300781 L 1.90625 -6.300781 L 3.398438 -1.839844 C 3.535156 -1.421875 3.636719 -1.113281 3.699219 -0.90625 C 3.769531 -1.136719 3.882812 -1.472656 4.035156 -1.917969 L 5.542969 -6.300781 L 6.664062 -6.300781 L 6.664062 0 L 5.859375 0 L 5.859375 -5.273438 L 4.03125 0 L 3.277344 0 L 1.457031 -5.363281 L 1.457031 0 Z M 0.652344 0 "/>
</g>
<g id="glyph-1-0">
<path d="M 0.339844 -1.703125 L 1.292969 -1.851562 C 1.347656 -1.46875 1.496094 -1.175781 1.742188 -0.972656 C 1.988281 -0.769531 2.332031 -0.664062 2.773438 -0.664062 C 3.214844 -0.664062 3.546875 -0.757812 3.757812 -0.9375 C 3.976562 -1.117188 4.082031 -1.332031 4.082031 -1.574219 C 4.082031 -1.792969 3.988281 -1.964844 3.796875 -2.089844 C 3.664062 -2.175781 3.335938 -2.285156 2.808594 -2.417969 C 2.101562 -2.597656 1.609375 -2.75 1.335938 -2.882812 C 1.0625 -3.011719 0.851562 -3.191406 0.710938 -3.425781 C 0.570312 -3.65625 0.5 -3.910156 0.5 -4.1875 C 0.5 -4.445312 0.558594 -4.679688 0.675781 -4.894531 C 0.789062 -5.113281 0.949219 -5.292969 1.148438 -5.4375 C 1.300781 -5.546875 1.503906 -5.640625 1.765625 -5.71875 C 2.023438 -5.792969 2.300781 -5.832031 2.601562 -5.832031 C 3.046875 -5.832031 3.441406 -5.769531 3.777344 -5.640625 C 4.117188 -5.511719 4.367188 -5.335938 4.527344 -5.117188 C 4.6875 -4.894531 4.800781 -4.601562 4.859375 -4.234375 L 3.914062 -4.101562 C 3.871094 -4.398438 3.75 -4.625 3.542969 -4.789062 C 3.335938 -4.957031 3.046875 -5.039062 2.667969 -5.039062 C 2.226562 -5.039062 1.910156 -4.964844 1.71875 -4.816406 C 1.527344 -4.671875 1.433594 -4.5 1.433594 -4.300781 C 1.433594 -4.175781 1.472656 -4.0625 1.550781 -3.964844 C 1.632812 -3.859375 1.753906 -3.773438 1.921875 -3.707031 C 2.019531 -3.671875 2.304688 -3.585938 2.777344 -3.460938 C 3.460938 -3.277344 3.9375 -3.125 4.207031 -3.011719 C 4.480469 -2.894531 4.691406 -2.726562 4.84375 -2.503906 C 5 -2.28125 5.074219 -2.003906 5.074219 -1.675781 C 5.074219 -1.351562 4.980469 -1.050781 4.792969 -0.765625 C 4.605469 -0.480469 4.335938 -0.261719 3.980469 -0.105469 C 3.625 0.0507812 3.222656 0.128906 2.777344 0.128906 C 2.035156 0.128906 1.472656 -0.0234375 1.082031 -0.332031 C 0.695312 -0.640625 0.445312 -1.097656 0.339844 -1.703125 Z M 0.339844 -1.703125 "/>
</g>
<g id="glyph-1-1">
<path d="M 4.628906 -1.835938 L 5.628906 -1.714844 C 5.472656 -1.128906 5.179688 -0.675781 4.753906 -0.355469 C 4.328125 -0.03125 3.78125 0.128906 3.121094 0.128906 C 2.285156 0.128906 1.625 -0.128906 1.136719 -0.640625 C 0.648438 -1.15625 0.402344 -1.875 0.402344 -2.804688 C 0.402344 -3.761719 0.648438 -4.507812 1.144531 -5.039062 C 1.636719 -5.566406 2.277344 -5.832031 3.066406 -5.832031 C 3.828125 -5.832031 4.453125 -5.574219 4.9375 -5.054688 C 5.417969 -4.535156 5.660156 -3.804688 5.660156 -2.863281 C 5.660156 -2.804688 5.660156 -2.71875 5.65625 -2.605469 L 1.402344 -2.605469 C 1.4375 -1.976562 1.613281 -1.5 1.933594 -1.164062 C 2.253906 -0.832031 2.648438 -0.664062 3.125 -0.664062 C 3.480469 -0.664062 3.78125 -0.757812 4.035156 -0.945312 C 4.285156 -1.132812 4.484375 -1.429688 4.628906 -1.835938 M 1.457031 -3.398438 L 4.640625 -3.398438 C 4.597656 -3.878906 4.476562 -4.238281 4.273438 -4.480469 C 3.96875 -4.851562 3.566406 -5.039062 3.078125 -5.039062 C 2.632812 -5.039062 2.261719 -4.890625 1.957031 -4.59375 C 1.65625 -4.296875 1.488281 -3.898438 1.457031 -3.398438 Z M 1.457031 -3.398438 "/>
</g>
<g id="glyph-1-2">
<path d="M 0.0820312 0 L 2.164062 -2.964844 L 0.234375 -5.703125 L 1.445312 -5.703125 L 2.320312 -4.367188 C 2.484375 -4.113281 2.617188 -3.898438 2.71875 -3.726562 C 2.875 -3.964844 3.019531 -4.171875 3.152344 -4.355469 L 4.113281 -5.703125 L 5.269531 -5.703125 L 3.296875 -3.019531 L 5.417969 0 L 4.234375 0 L 3.0625 -1.773438 L 2.75 -2.25 L 1.25 0 Z M 0.0820312 0 "/>
</g>
<g id="glyph-1-3">
<path d="M 0.367188 -2.851562 C 0.367188 -3.910156 0.660156 -4.691406 1.246094 -5.199219 C 1.738281 -5.621094 2.335938 -5.832031 3.039062 -5.832031 C 3.824219 -5.832031 4.464844 -5.574219 4.960938 -5.0625 C 5.460938 -4.546875 5.710938 -3.839844 5.710938 -2.933594 C 5.710938 -2.199219 5.597656 -1.621094 5.378906 -1.199219 C 5.160156 -0.78125 4.839844 -0.453125 4.417969 -0.21875 C 3.996094 0.0117188 3.539062 0.128906 3.039062 0.128906 C 2.242188 0.128906 1.597656 -0.128906 1.105469 -0.640625 C 0.613281 -1.152344 0.367188 -1.890625 0.367188 -2.851562 M 1.359375 -2.851562 C 1.359375 -2.121094 1.519531 -1.574219 1.835938 -1.210938 C 2.15625 -0.847656 2.554688 -0.664062 3.039062 -0.664062 C 3.519531 -0.664062 3.917969 -0.847656 4.238281 -1.214844 C 4.554688 -1.578125 4.714844 -2.136719 4.714844 -2.882812 C 4.714844 -3.589844 4.554688 -4.125 4.234375 -4.488281 C 3.914062 -4.851562 3.515625 -5.03125 3.039062 -5.03125 C 2.554688 -5.03125 2.15625 -4.851562 1.835938 -4.492188 C 1.519531 -4.128906 1.359375 -3.582031 1.359375 -2.851562 Z M 1.359375 -2.851562 "/>
</g>
<g id="glyph-2-0">
<path d="M -0.863281 -2.835938 L -0.0117188 -2.976562 C 0.046875 -2.703125 0.0742188 -2.460938 0.0742188 -2.246094 C 0.0742188 -1.894531 0.0195312 -1.621094 -0.0898438 -1.429688 C -0.203125 -1.234375 -0.347656 -1.097656 -0.527344 -1.019531 C -0.710938 -0.941406 -1.089844 -0.902344 -1.671875 -0.902344 L -4.953125 -0.902344 L -4.953125 -0.195312 L -5.703125 -0.195312 L -5.703125 -0.902344 L -7.117188 -0.902344 L -7.695312 -1.863281 L -5.703125 -1.863281 L -5.703125 -2.835938 L -4.953125 -2.835938 L -4.953125 -1.863281 L -1.617188 -1.863281 C -1.339844 -1.863281 -1.164062 -1.878906 -1.085938 -1.914062 C -1.007812 -1.949219 -0.945312 -2.003906 -0.898438 -2.082031 C -0.851562 -2.160156 -0.828125 -2.269531 -0.828125 -2.410156 C -0.828125 -2.519531 -0.839844 -2.660156 -0.863281 -2.835938 Z M -0.863281 -2.835938 "/>
</g>
<g id="glyph-2-1">
<path d="M -0.703125 -4.445312 C -0.398438 -4.089844 -0.183594 -3.746094 -0.0585938 -3.414062 C 0.0664062 -3.082031 0.128906 -2.726562 0.128906 -2.347656 C 0.128906 -1.71875 -0.0234375 -1.238281 -0.332031 -0.902344 C -0.636719 -0.566406 -1.027344 -0.398438 -1.503906 -0.398438 C -1.78125 -0.398438 -2.039062 -0.460938 -2.269531 -0.589844 C -2.5 -0.714844 -2.6875 -0.882812 -2.824219 -1.085938 C -2.964844 -1.292969 -3.070312 -1.527344 -3.140625 -1.785156 C -3.191406 -1.972656 -3.242188 -2.257812 -3.289062 -2.640625 C -3.378906 -3.421875 -3.492188 -3.996094 -3.621094 -4.367188 C -3.753906 -4.371094 -3.835938 -4.371094 -3.871094 -4.371094 C -4.265625 -4.371094 -4.542969 -4.28125 -4.703125 -4.097656 C -4.921875 -3.851562 -5.03125 -3.484375 -5.03125 -2.996094 C -5.03125 -2.542969 -4.953125 -2.207031 -4.792969 -1.988281 C -4.632812 -1.773438 -4.351562 -1.613281 -3.949219 -1.507812 L -4.078125 -0.5625 C -4.480469 -0.648438 -4.808594 -0.792969 -5.058594 -0.988281 C -5.304688 -1.183594 -5.496094 -1.46875 -5.632812 -1.84375 C -5.765625 -2.214844 -5.832031 -2.644531 -5.832031 -3.136719 C -5.832031 -3.625 -5.777344 -4.019531 -5.660156 -4.324219 C -5.546875 -4.628906 -5.402344 -4.851562 -5.230469 -4.996094 C -5.054688 -5.136719 -4.835938 -5.238281 -4.570312 -5.296875 C -4.40625 -5.328125 -4.109375 -5.34375 -3.679688 -5.34375 L -2.390625 -5.34375 C -1.492188 -5.34375 -0.921875 -5.363281 -0.683594 -5.40625 C -0.445312 -5.445312 -0.21875 -5.527344 0 -5.648438 L 0 -4.640625 C -0.199219 -4.539062 -0.433594 -4.476562 -0.703125 -4.445312 M -2.863281 -4.367188 C -2.71875 -4.015625 -2.597656 -3.488281 -2.496094 -2.789062 C -2.441406 -2.390625 -2.375 -2.109375 -2.304688 -1.945312 C -2.234375 -1.78125 -2.128906 -1.652344 -1.988281 -1.5625 C -1.851562 -1.472656 -1.699219 -1.429688 -1.53125 -1.429688 C -1.273438 -1.429688 -1.058594 -1.527344 -0.886719 -1.722656 C -0.714844 -1.917969 -0.628906 -2.203125 -0.628906 -2.578125 C -0.628906 -2.949219 -0.710938 -3.28125 -0.871094 -3.570312 C -1.035156 -3.863281 -1.257812 -4.074219 -1.542969 -4.210938 C -1.761719 -4.316406 -2.082031 -4.367188 -2.507812 -4.367188 Z M -2.863281 -4.367188 "/>
</g>
<g id="glyph-2-2">
<path d="M 0 -0.703125 L -7.875 -0.703125 L -7.875 -1.671875 L 0 -1.671875 Z M 0 -0.703125 "/>
</g>
</g>
<clipPath id="clip-0">
<path clip-rule="nonzero" d="M 40.023438 5.480469 L 338.515625 5.480469 L 338.515625 216.511719 L 40.023438 216.511719 Z M 40.023438 5.480469 "/>
</clipPath>
<clipPath id="clip-1">
<path clip-rule="nonzero" d="M 40.023438 214 L 338.515625 214 L 338.515625 216 L 40.023438 216 Z M 40.023438 214 "/>
</clipPath>
<clipPath id="clip-2">
<path clip-rule="nonzero" d="M 40.023438 175 L 338.515625 175 L 338.515625 176 L 40.023438 176 Z M 40.023438 175 "/>
</clipPath>
<clipPath id="clip-3">
<path clip-rule="nonzero" d="M 40.023438 135 L 338.515625 135 L 338.515625 137 L 40.023438 137 Z M 40.023438 135 "/>
</clipPath>
<clipPath id="clip-4">
<path clip-rule="nonzero" d="M 40.023438 96 L 338.515625 96 L 338.515625 97 L 40.023438 97 Z M 40.023438 96 "/>
</clipPath>
<clipPath id="clip-5">
<path clip-rule="nonzero" d="M 40.023438 56 L 338.515625 56 L 338.515625 58 L 40.023438 58 Z M 40.023438 56 "/>
</clipPath>
<clipPath id="clip-6">
<path clip-rule="nonzero" d="M 40.023438 17 L 338.515625 17 L 338.515625 18 L 40.023438 18 Z M 40.023438 17 "/>
</clipPath>
<clipPath id="clip-7">
<path clip-rule="nonzero" d="M 40.023438 194 L 338.515625 194 L 338.515625 196 L 40.023438 196 Z M 40.023438 194 "/>
</clipPath>
<clipPath id="clip-8">
<path clip-rule="nonzero" d="M 40.023438 155 L 338.515625 155 L 338.515625 157 L 40.023438 157 Z M 40.023438 155 "/>
</clipPath>
<clipPath id="clip-9">
<path clip-rule="nonzero" d="M 40.023438 115 L 338.515625 115 L 338.515625 117 L 40.023438 117 Z M 40.023438 115 "/>
</clipPath>
<clipPath id="clip-10">
<path clip-rule="nonzero" d="M 40.023438 76 L 338.515625 76 L 338.515625 78 L 40.023438 78 Z M 40.023438 76 "/>
</clipPath>
<clipPath id="clip-11">
<path clip-rule="nonzero" d="M 40.023438 36 L 338.515625 36 L 338.515625 38 L 40.023438 38 Z M 40.023438 36 "/>
</clipPath>
<clipPath id="clip-12">
<path clip-rule="nonzero" d="M 120 5.480469 L 122 5.480469 L 122 216.511719 L 120 216.511719 Z M 120 5.480469 "/>
</clipPath>
<clipPath id="clip-13">
<path clip-rule="nonzero" d="M 256 5.480469 L 258 5.480469 L 258 216.511719 L 256 216.511719 Z M 256 5.480469 "/>
</clipPath>
</defs>
<rect x="-39.6" y="-25.2" width="475.2" height="302.4" fill="rgb(100%, 100%, 100%)" fill-opacity="1"/>
<rect x="-39.6" y="-25.2" width="475.2" height="302.4" fill="rgb(100%, 100%, 100%)" fill-opacity="1"/>
<path fill="none" stroke-width="1.066978" stroke-linecap="round" stroke-linejoin="round" stroke="rgb(100%, 100%, 100%)" stroke-opacity="1" stroke-miterlimit="10" d="M 0 252 L 396 252 L 396 0 L 0 0 Z M 0 252 "/>
<g clip-path="url(#clip-0)">
<path fill-rule="nonzero" fill="rgb(92.156863%, 92.156863%, 92.156863%)" fill-opacity="1" d="M 40.023438 216.507812 L 338.515625 216.507812 L 338.515625 5.476562 L 40.023438 5.476562 Z M 40.023438 216.507812 "/>
</g>
<g clip-path="url(#clip-1)">
<path fill="none" stroke-width="0.533489" stroke-linecap="butt" stroke-linejoin="round" stroke="rgb(100%, 100%, 100%)" stroke-opacity="1" stroke-miterlimit="10" d="M 40.023438 214.773438 L 338.511719 214.773438 "/>
</g>
<g clip-path="url(#clip-2)">
<path fill="none" stroke-width="0.533489" stroke-linecap="butt" stroke-linejoin="round" stroke="rgb(100%, 100%, 100%)" stroke-opacity="1" stroke-miterlimit="10" d="M 40.023438 175.308594 L 338.511719 175.308594 "/>
</g>
<g clip-path="url(#clip-3)">
<path fill="none" stroke-width="0.533489" stroke-linecap="butt" stroke-linejoin="round" stroke="rgb(100%, 100%, 100%)" stroke-opacity="1" stroke-miterlimit="10" d="M 40.023438 135.84375 L 338.511719 135.84375 "/>
</g>
<g clip-path="url(#clip-4)">
<path fill="none" stroke-width="0.533489" stroke-linecap="butt" stroke-linejoin="round" stroke="rgb(100%, 100%, 100%)" stroke-opacity="1" stroke-miterlimit="10" d="M 40.023438 96.378906 L 338.511719 96.378906 "/>
</g>
<g clip-path="url(#clip-5)">
<path fill="none" stroke-width="0.533489" stroke-linecap="butt" stroke-linejoin="round" stroke="rgb(100%, 100%, 100%)" stroke-opacity="1" stroke-miterlimit="10" d="M 40.023438 56.910156 L 338.511719 56.910156 "/>
</g>
<g clip-path="url(#clip-6)">
<path fill="none" stroke-width="0.533489" stroke-linecap="butt" stroke-linejoin="round" stroke="rgb(100%, 100%, 100%)" stroke-opacity="1" stroke-miterlimit="10" d="M 40.023438 17.445312 L 338.511719 17.445312 "/>
</g>
<g clip-path="url(#clip-7)">
<path fill="none" stroke-width="1.066978" stroke-linecap="butt" stroke-linejoin="round" stroke="rgb(100%, 100%, 100%)" stroke-opacity="1" stroke-miterlimit="10" d="M 40.023438 195.039062 L 338.511719 195.039062 "/>
</g>
<g clip-path="url(#clip-8)">
<path fill="none" stroke-width="1.066978" stroke-linecap="butt" stroke-linejoin="round" stroke="rgb(100%, 100%, 100%)" stroke-opacity="1" stroke-miterlimit="10" d="M 40.023438 155.574219 L 338.511719 155.574219 "/>
</g>
<g clip-path="url(#clip-9)">
<path fill="none" stroke-width="1.066978" stroke-linecap="butt" stroke-linejoin="round" stroke="rgb(100%, 100%, 100%)" stroke-opacity="1" stroke-miterlimit="10" d="M 40.023438 116.109375 L 338.511719 116.109375 "/>
</g>
<g clip-path="url(#clip-10)">
<path fill="none" stroke-width="1.066978" stroke-linecap="butt" stroke-linejoin="round" stroke="rgb(100%, 100%, 100%)" stroke-opacity="1" stroke-miterlimit="10" d="M 40.023438 76.644531 L 338.511719 76.644531 "/>
</g>
<g clip-path="url(#clip-11)">
<path fill="none" stroke-width="1.066978" stroke-linecap="butt" stroke-linejoin="round" stroke="rgb(100%, 100%, 100%)" stroke-opacity="1" stroke-miterlimit="10" d="M 40.023438 37.179688 L 338.511719 37.179688 "/>
</g>
<g clip-path="url(#clip-12)">
<path fill="none" stroke-width="1.066978" stroke-linecap="butt" stroke-linejoin="round" stroke="rgb(100%, 100%, 100%)" stroke-opacity="1" stroke-miterlimit="10" d="M 121.429688 216.507812 L 121.429688 5.480469 "/>
</g>
<g clip-path="url(#clip-13)">
<path fill="none" stroke-width="1.066978" stroke-linecap="butt" stroke-linejoin="round" stroke="rgb(100%, 100%, 100%)" stroke-opacity="1" stroke-miterlimit="10" d="M 257.105469 216.507812 L 257.105469 5.480469 "/>
</g>
<path fill-rule="nonzero" fill="rgb(0%, 74.901961%, 76.862745%)" fill-opacity="1" stroke-width="0.708661" stroke-linecap="round" stroke-linejoin="round" stroke="rgb(0%, 74.901961%, 76.862745%)" stroke-opacity="1" stroke-miterlimit="10" d="M 312.75 95.269531 C 312.75 97.878906 308.839844 97.878906 308.839844 95.269531 C 308.839844 92.664062 312.75 92.664062 312.75 95.269531 "/>
<path fill-rule="nonzero" fill="rgb(0%, 74.901961%, 76.862745%)" fill-opacity="1" stroke-width="0.708661" stroke-linecap="round" stroke-linejoin="round" stroke="rgb(0%, 74.901961%, 76.862745%)" stroke-opacity="1" stroke-miterlimit="10" d="M 307.402344 88.808594 C 307.402344 91.414062 303.492188 91.414062 303.492188 88.808594 C 303.492188 86.203125 307.402344 86.203125 307.402344 88.808594 "/>
<path fill-rule="nonzero" fill="rgb(0%, 74.901961%, 76.862745%)" fill-opacity="1" stroke-width="0.708661" stroke-linecap="round" stroke-linejoin="round" stroke="rgb(0%, 74.901961%, 76.862745%)" stroke-opacity="1" stroke-miterlimit="10" d="M 236.339844 100.582031 C 236.339844 103.191406 232.429688 103.191406 232.429688 100.582031 C 232.429688 97.976562 236.339844 97.976562 236.339844 100.582031 "/>
<path fill-rule="nonzero" fill="rgb(0%, 74.901961%, 76.862745%)" fill-opacity="1" stroke-width="0.708661" stroke-linecap="round" stroke-linejoin="round" stroke="rgb(0%, 74.901961%, 76.862745%)" stroke-opacity="1" stroke-miterlimit="10" d="M 253.757812 135.761719 C 253.757812 138.367188 249.851562 138.367188 249.851562 135.761719 C 249.851562 133.15625 253.757812 133.15625 253.757812 135.761719 "/>
<path fill-rule="nonzero" fill="rgb(0%, 74.901961%, 76.862745%)" fill-opacity="1" stroke-width="0.708661" stroke-linecap="round" stroke-linejoin="round" stroke="rgb(0%, 74.901961%, 76.862745%)" stroke-opacity="1" stroke-miterlimit="10" d="M 205.1875 80.984375 C 205.1875 83.59375 201.277344 83.59375 201.277344 80.984375 C 201.277344 78.378906 205.1875 78.378906 205.1875 80.984375 "/>
<path fill-rule="nonzero" fill="rgb(0%, 74.901961%, 76.862745%)" fill-opacity="1" stroke-width="0.708661" stroke-linecap="round" stroke-linejoin="round" stroke="rgb(0%, 74.901961%, 76.862745%)" stroke-opacity="1" stroke-miterlimit="10" d="M 207.484375 87.230469 C 207.484375 89.835938 203.574219 89.835938 203.574219 87.230469 C 203.574219 84.625 207.484375 84.625 207.484375 87.230469 "/>
<path fill-rule="nonzero" fill="rgb(0%, 74.901961%, 76.862745%)" fill-opacity="1" stroke-width="0.708661" stroke-linecap="round" stroke-linejoin="round" stroke="rgb(0%, 74.901961%, 76.862745%)" stroke-opacity="1" stroke-miterlimit="10" d="M 276.867188 31.914062 C 276.867188 34.519531 272.957031 34.519531 272.957031 31.914062 C 272.957031 29.304688 276.867188 29.304688 276.867188 31.914062 "/>
<path fill-rule="nonzero" fill="rgb(0%, 74.901961%, 76.862745%)" fill-opacity="1" stroke-width="0.708661" stroke-linecap="round" stroke-linejoin="round" stroke="rgb(0%, 74.901961%, 76.862745%)" stroke-opacity="1" stroke-miterlimit="10" d="M 298.925781 115.980469 C 298.925781 118.585938 295.015625 118.585938 295.015625 115.980469 C 295.015625 113.375 298.925781 113.375 298.925781 115.980469 "/>
<path fill-rule="nonzero" fill="rgb(0%, 74.901961%, 76.862745%)" fill-opacity="1" stroke-width="0.708661" stroke-linecap="round" stroke-linejoin="round" stroke="rgb(0%, 74.901961%, 76.862745%)" stroke-opacity="1" stroke-miterlimit="10" d="M 296.585938 116.070312 C 296.585938 118.675781 292.675781 118.675781 292.675781 116.070312 C 292.675781 113.464844 296.585938 113.464844 296.585938 116.070312 "/>
<path fill-rule="nonzero" fill="rgb(0%, 74.901961%, 76.862745%)" fill-opacity="1" stroke-width="0.708661" stroke-linecap="round" stroke-linejoin="round" stroke="rgb(0%, 74.901961%, 76.862745%)" stroke-opacity="1" stroke-miterlimit="10" d="M 300.253906 95.023438 C 300.253906 97.628906 296.34375 97.628906 296.34375 95.023438 C 296.34375 92.414062 300.253906 92.414062 300.253906 95.023438 "/>
<path fill-rule="nonzero" fill="rgb(0%, 74.901961%, 76.862745%)" fill-opacity="1" stroke-width="0.708661" stroke-linecap="round" stroke-linejoin="round" stroke="rgb(0%, 74.901961%, 76.862745%)" stroke-opacity="1" stroke-miterlimit="10" d="M 261.617188 122.753906 C 261.617188 125.359375 257.710938 125.359375 257.710938 122.753906 C 257.710938 120.148438 261.617188 120.148438 261.617188 122.753906 "/>
<path fill-rule="nonzero" fill="rgb(0%, 74.901961%, 76.862745%)" fill-opacity="1" stroke-width="0.708661" stroke-linecap="round" stroke-linejoin="round" stroke="rgb(0%, 74.901961%, 76.862745%)" stroke-opacity="1" stroke-miterlimit="10" d="M 278.433594 75.75 C 278.433594 78.355469 274.523438 78.355469 274.523438 75.75 C 274.523438 73.144531 278.433594 73.144531 278.433594 75.75 "/>
<path fill-rule="nonzero" fill="rgb(0%, 74.901961%, 76.862745%)" fill-opacity="1" stroke-width="0.708661" stroke-linecap="round" stroke-linejoin="round" stroke="rgb(0%, 74.901961%, 76.862745%)" stroke-opacity="1" stroke-miterlimit="10" d="M 232.015625 80.792969 C 232.015625 83.398438 228.105469 83.398438 228.105469 80.792969 C 228.105469 78.1875 232.015625 78.1875 232.015625 80.792969 "/>
<path fill-rule="nonzero" fill="rgb(0%, 74.901961%, 76.862745%)" fill-opacity="1" stroke-width="0.708661" stroke-linecap="round" stroke-linejoin="round" stroke="rgb(0%, 74.901961%, 76.862745%)" stroke-opacity="1" stroke-miterlimit="10" d="M 205.054688 135.496094 C 205.054688 138.105469 201.144531 138.105469 201.144531 135.496094 C 201.144531 132.890625 205.054688 132.890625 205.054688 135.496094 "/>
<path fill-rule="nonzero" fill="rgb(0%, 74.901961%, 76.862745%)" fill-opacity="1" stroke-width="0.708661" stroke-linecap="round" stroke-linejoin="round" stroke="rgb(0%, 74.901961%, 76.862745%)" stroke-opacity="1" stroke-miterlimit="10" d="M 285.554688 144.082031 C 285.554688 146.6875 281.644531 146.6875 281.644531 144.082031 C 281.644531 141.476562 285.554688 141.476562 285.554688 144.082031 "/>
<path fill-rule="nonzero" fill="rgb(0%, 74.901961%, 76.862745%)" fill-opacity="1" stroke-width="0.708661" stroke-linecap="round" stroke-linejoin="round" stroke="rgb(0%, 74.901961%, 76.862745%)" stroke-opacity="1" stroke-miterlimit="10" d="M 245.980469 105.199219 C 245.980469 107.804688 242.070312 107.804688 242.070312 105.199219 C 242.070312 102.59375 245.980469 102.59375 245.980469 105.199219 "/>
<path fill-rule="nonzero" fill="rgb(0%, 74.901961%, 76.862745%)" fill-opacity="1" stroke-width="0.708661" stroke-linecap="round" stroke-linejoin="round" stroke="rgb(0%, 74.901961%, 76.862745%)" stroke-opacity="1" stroke-miterlimit="10" d="M 293.625 96.320312 C 293.625 98.929688 289.714844 98.929688 289.714844 96.320312 C 289.714844 93.714844 293.625 93.714844 293.625 96.320312 "/>
<path fill-rule="nonzero" fill="rgb(0%, 74.901961%, 76.862745%)" fill-opacity="1" stroke-width="0.708661" stroke-linecap="round" stroke-linejoin="round" stroke="rgb(0%, 74.901961%, 76.862745%)" stroke-opacity="1" stroke-miterlimit="10" d="M 281.210938 128.84375 C 281.210938 131.449219 277.304688 131.449219 277.304688 128.84375 C 277.304688 126.238281 281.210938 126.238281 281.210938 128.84375 "/>
<path fill-rule="nonzero" fill="rgb(0%, 74.901961%, 76.862745%)" fill-opacity="1" stroke-width="0.708661" stroke-linecap="round" stroke-linejoin="round" stroke="rgb(0%, 74.901961%, 76.862745%)" stroke-opacity="1" stroke-miterlimit="10" d="M 237.867188 112.734375 C 237.867188 115.34375 233.957031 115.34375 233.957031 112.734375 C 233.957031 110.128906 237.867188 110.128906 237.867188 112.734375 "/>
<path fill-rule="nonzero" fill="rgb(0%, 74.901961%, 76.862745%)" fill-opacity="1" stroke-width="0.708661" stroke-linecap="round" stroke-linejoin="round" stroke="rgb(0%, 74.901961%, 76.862745%)" stroke-opacity="1" stroke-miterlimit="10" d="M 267.824219 117.652344 C 267.824219 120.261719 263.914062 120.261719 263.914062 117.652344 C 263.914062 115.046875 267.824219 115.046875 267.824219 117.652344 "/>
<path fill-rule="nonzero" fill="rgb(0%, 74.901961%, 76.862745%)" fill-opacity="1" stroke-width="0.708661" stroke-linecap="round" stroke-linejoin="round" stroke="rgb(0%, 74.901961%, 76.862745%)" stroke-opacity="1" stroke-miterlimit="10" d="M 224.515625 108.050781 C 224.515625 110.65625 220.605469 110.65625 220.605469 108.050781 C 220.605469 105.445312 224.515625 105.445312 224.515625 108.050781 "/>
<path fill-rule="nonzero" fill="rgb(0%, 74.901961%, 76.862745%)" fill-opacity="1" stroke-width="0.708661" stroke-linecap="round" stroke-linejoin="round" stroke="rgb(0%, 74.901961%, 76.862745%)" stroke-opacity="1" stroke-miterlimit="10" d="M 263.625 123.507812 C 263.625 126.113281 259.714844 126.113281 259.714844 123.507812 C 259.714844 120.902344 263.625 120.902344 263.625 123.507812 "/>
<path fill-rule="nonzero" fill="rgb(0%, 74.901961%, 76.862745%)" fill-opacity="1" stroke-width="0.708661" stroke-linecap="round" stroke-linejoin="round" stroke="rgb(0%, 74.901961%, 76.862745%)" stroke-opacity="1" stroke-miterlimit="10" d="M 272.425781 92.578125 C 272.425781 95.183594 268.515625 95.183594 268.515625 92.578125 C 268.515625 89.96875 272.425781 89.96875 272.425781 92.578125 "/>
<path fill-rule="nonzero" fill="rgb(0%, 74.901961%, 76.862745%)" fill-opacity="1" stroke-width="0.708661" stroke-linecap="round" stroke-linejoin="round" stroke="rgb(0%, 74.901961%, 76.862745%)" stroke-opacity="1" stroke-miterlimit="10" d="M 310.609375 132.753906 C 310.609375 135.359375 306.699219 135.359375 306.699219 132.753906 C 306.699219 130.144531 310.609375 130.144531 310.609375 132.753906 "/>
<path fill-rule="nonzero" fill="rgb(0%, 74.901961%, 76.862745%)" fill-opacity="1" stroke-width="0.708661" stroke-linecap="round" stroke-linejoin="round" stroke="rgb(0%, 74.901961%, 76.862745%)" stroke-opacity="1" stroke-miterlimit="10" d="M 267.011719 80.941406 C 267.011719 83.546875 263.101562 83.546875 263.101562 80.941406 C 263.101562 78.335938 267.011719 78.335938 267.011719 80.941406 "/>
<path fill-rule="nonzero" fill="rgb(0%, 74.901961%, 76.862745%)" fill-opacity="1" stroke-width="0.708661" stroke-linecap="round" stroke-linejoin="round" stroke="rgb(0%, 74.901961%, 76.862745%)" stroke-opacity="1" stroke-miterlimit="10" d="M 228.1875 116.902344 C 228.1875 119.511719 224.277344 119.511719 224.277344 116.902344 C 224.277344 114.296875 228.1875 114.296875 228.1875 116.902344 "/>
<path fill-rule="nonzero" fill="rgb(0%, 74.901961%, 76.862745%)" fill-opacity="1" stroke-width="0.708661" stroke-linecap="round" stroke-linejoin="round" stroke="rgb(0%, 74.901961%, 76.862745%)" stroke-opacity="1" stroke-miterlimit="10" d="M 225.78125 101.167969 C 225.78125 103.773438 221.871094 103.773438 221.871094 101.167969 C 221.871094 98.5625 225.78125 98.5625 225.78125 101.167969 "/>
<path fill-rule="nonzero" fill="rgb(0%, 74.901961%, 76.862745%)" fill-opacity="1" stroke-width="0.708661" stroke-linecap="round" stroke-linejoin="round" stroke="rgb(0%, 74.901961%, 76.862745%)" stroke-opacity="1" stroke-miterlimit="10" d="M 269.921875 108.792969 C 269.921875 111.398438 266.015625 111.398438 266.015625 108.792969 C 266.015625 106.1875 269.921875 106.1875 269.921875 108.792969 "/>
<path fill-rule="nonzero" fill="rgb(0%, 74.901961%, 76.862745%)" fill-opacity="1" stroke-width="0.708661" stroke-linecap="round" stroke-linejoin="round" stroke="rgb(0%, 74.901961%, 76.862745%)" stroke-opacity="1" stroke-miterlimit="10" d="M 286.222656 115.972656 C 286.222656 118.578125 282.3125 118.578125 282.3125 115.972656 C 282.3125 113.363281 286.222656 113.363281 286.222656 115.972656 "/>
<path fill-rule="nonzero" fill="rgb(0%, 74.901961%, 76.862745%)" fill-opacity="1" stroke-width="0.708661" stroke-linecap="round" stroke-linejoin="round" stroke="rgb(0%, 74.901961%, 76.862745%)" stroke-opacity="1" stroke-miterlimit="10" d="M 259.828125 140.785156 C 259.828125 143.390625 255.917969 143.390625 255.917969 140.785156 C 255.917969 138.179688 259.828125 138.179688 259.828125 140.785156 "/>
<path fill-rule="nonzero" fill="rgb(0%, 74.901961%, 76.862745%)" fill-opacity="1" stroke-width="0.708661" stroke-linecap="round" stroke-linejoin="round" stroke="rgb(0%, 74.901961%, 76.862745%)" stroke-opacity="1" stroke-miterlimit="10" d="M 222.859375 148.386719 C 222.859375 150.996094 218.953125 150.996094 218.953125 148.386719 C 218.953125 145.78125 222.859375 145.78125 222.859375 148.386719 "/>
<path fill-rule="nonzero" fill="rgb(0%, 74.901961%, 76.862745%)" fill-opacity="1" stroke-width="0.708661" stroke-linecap="round" stroke-linejoin="round" stroke="rgb(0%, 74.901961%, 76.862745%)" stroke-opacity="1" stroke-miterlimit="10" d="M 266.222656 103.730469 C 266.222656 106.335938 262.3125 106.335938 262.3125 103.730469 C 262.3125 101.121094 266.222656 101.121094 266.222656 103.730469 "/>
<path fill-rule="nonzero" fill="rgb(0%, 74.901961%, 76.862745%)" fill-opacity="1" stroke-width="0.708661" stroke-linecap="round" stroke-linejoin="round" stroke="rgb(0%, 74.901961%, 76.862745%)" stroke-opacity="1" stroke-miterlimit="10" d="M 307.460938 206.917969 C 307.460938 209.523438 303.550781 209.523438 303.550781 206.917969 C 303.550781 204.308594 307.460938 204.308594 307.460938 206.917969 "/>
<path fill-rule="nonzero" fill="rgb(0%, 74.901961%, 76.862745%)" fill-opacity="1" stroke-width="0.708661" stroke-linecap="round" stroke-linejoin="round" stroke="rgb(0%, 74.901961%, 76.862745%)" stroke-opacity="1" stroke-miterlimit="10" d="M 300.023438 92.367188 C 300.023438 94.972656 296.113281 94.972656 296.113281 92.367188 C 296.113281 89.761719 300.023438 89.761719 300.023438 92.367188 "/>
<path fill-rule="nonzero" fill="rgb(0%, 74.901961%, 76.862745%)" fill-opacity="1" stroke-width="0.708661" stroke-linecap="round" stroke-linejoin="round" stroke="rgb(0%, 74.901961%, 76.862745%)" stroke-opacity="1" stroke-miterlimit="10" d="M 268.910156 101.375 C 268.910156 103.980469 265 103.980469 265 101.375 C 265 98.769531 268.910156 98.769531 268.910156 101.375 "/>
<path fill-rule="nonzero" fill="rgb(0%, 74.901961%, 76.862745%)" fill-opacity="1" stroke-width="0.708661" stroke-linecap="round" stroke-linejoin="round" stroke="rgb(0%, 74.901961%, 76.862745%)" stroke-opacity="1" stroke-miterlimit="10" d="M 273.027344 111.976562 C 273.027344 114.582031 269.117188 114.582031 269.117188 111.976562 C 269.117188 109.371094 273.027344 109.371094 273.027344 111.976562 "/>
<path fill-rule="nonzero" fill="rgb(0%, 74.901961%, 76.862745%)" fill-opacity="1" stroke-width="0.708661" stroke-linecap="round" stroke-linejoin="round" stroke="rgb(0%, 74.901961%, 76.862745%)" stroke-opacity="1" stroke-miterlimit="10" d="M 253.714844 95.390625 C 253.714844 97.996094 249.804688 97.996094 249.804688 95.390625 C 249.804688 92.785156 253.714844 92.785156 253.714844 95.390625 "/>
<path fill-rule="nonzero" fill="rgb(0%, 74.901961%, 76.862745%)" fill-opacity="1" stroke-width="0.708661" stroke-linecap="round" stroke-linejoin="round" stroke="rgb(0%, 74.901961%, 76.862745%)" stroke-opacity="1" stroke-miterlimit="10" d="M 270.652344 132.519531 C 270.652344 135.125 266.742188 135.125 266.742188 132.519531 C 266.742188 129.914062 270.652344 129.914062 270.652344 132.519531 "/>
<path fill-rule="nonzero" fill="rgb(97.254902%, 46.27451%, 42.745098%)" fill-opacity="1" stroke-width="0.708661" stroke-linecap="round" stroke-linejoin="round" stroke="rgb(97.254902%, 46.27451%, 42.745098%)" stroke-opacity="1" stroke-miterlimit="10" d="M 111.238281 16.035156 C 111.238281 18.640625 107.328125 18.640625 107.328125 16.035156 C 107.328125 13.425781 111.238281 13.425781 111.238281 16.035156 "/>
<path fill-rule="nonzero" fill="rgb(97.254902%, 46.27451%, 42.745098%)" fill-opacity="1" stroke-width="0.708661" stroke-linecap="round" stroke-linejoin="round" stroke="rgb(97.254902%, 46.27451%, 42.745098%)" stroke-opacity="1" stroke-miterlimit="10" d="M 157.757812 60.097656 C 157.757812 62.703125 153.851562 62.703125 153.851562 60.097656 C 153.851562 57.492188 157.757812 57.492188 157.757812 60.097656 "/>
<path fill-rule="nonzero" fill="rgb(97.254902%, 46.27451%, 42.745098%)" fill-opacity="1" stroke-width="0.708661" stroke-linecap="round" stroke-linejoin="round" stroke="rgb(97.254902%, 46.27451%, 42.745098%)" stroke-opacity="1" stroke-miterlimit="10" d="M 86.847656 101.394531 C 86.847656 104 82.9375 104 82.9375 101.394531 C 82.9375 98.789062 86.847656 98.789062 86.847656 101.394531 "/>
<path fill-rule="nonzero" fill="rgb(97.254902%, 46.27451%, 42.745098%)" fill-opacity="1" stroke-width="0.708661" stroke-linecap="round" stroke-linejoin="round" stroke="rgb(97.254902%, 46.27451%, 42.745098%)" stroke-opacity="1" stroke-miterlimit="10" d="M 73.914062 53.394531 C 73.914062 56 70.003906 56 70.003906 53.394531 C 70.003906 50.785156 73.914062 50.785156 73.914062 53.394531 "/>
<path fill-rule="nonzero" fill="rgb(0%, 74.901961%, 76.862745%)" fill-opacity="1" stroke-width="0.708661" stroke-linecap="round" stroke-linejoin="round" stroke="rgb(0%, 74.901961%, 76.862745%)" stroke-opacity="1" stroke-miterlimit="10" d="M 235.964844 120.5625 C 235.964844 123.167969 232.054688 123.167969 232.054688 120.5625 C 232.054688 117.957031 235.964844 117.957031 235.964844 120.5625 "/>
<path fill-rule="nonzero" fill="rgb(0%, 74.901961%, 76.862745%)" fill-opacity="1" stroke-width="0.708661" stroke-linecap="round" stroke-linejoin="round" stroke="rgb(0%, 74.901961%, 76.862745%)" stroke-opacity="1" stroke-miterlimit="10" d="M 212.074219 104.085938 C 212.074219 106.691406 208.164062 106.691406 208.164062 104.085938 C 208.164062 101.480469 212.074219 101.480469 212.074219 104.085938 "/>
<path fill-rule="nonzero" fill="rgb(0%, 74.901961%, 76.862745%)" fill-opacity="1" stroke-width="0.708661" stroke-linecap="round" stroke-linejoin="round" stroke="rgb(0%, 74.901961%, 76.862745%)" stroke-opacity="1" stroke-miterlimit="10" d="M 291.75 136.738281 C 291.75 139.34375 287.839844 139.34375 287.839844 136.738281 C 287.839844 134.132812 291.75 134.132812 291.75 136.738281 "/>
<path fill-rule="nonzero" fill="rgb(0%, 74.901961%, 76.862745%)" fill-opacity="1" stroke-width="0.708661" stroke-linecap="round" stroke-linejoin="round" stroke="rgb(0%, 74.901961%, 76.862745%)" stroke-opacity="1" stroke-miterlimit="10" d="M 218.886719 80.9375 C 218.886719 83.542969 214.976562 83.542969 214.976562 80.9375 C 214.976562 78.328125 218.886719 78.328125 218.886719 80.9375 "/>
<path fill-rule="nonzero" fill="rgb(0%, 74.901961%, 76.862745%)" fill-opacity="1" stroke-width="0.708661" stroke-linecap="round" stroke-linejoin="round" stroke="rgb(0%, 74.901961%, 76.862745%)" stroke-opacity="1" stroke-miterlimit="10" d="M 284.699219 99.019531 C 284.699219 101.625 280.789062 101.625 280.789062 99.019531 C 280.789062 96.414062 284.699219 96.414062 284.699219 99.019531 "/>
<path fill-rule="nonzero" fill="rgb(0%, 74.901961%, 76.862745%)" fill-opacity="1" stroke-width="0.708661" stroke-linecap="round" stroke-linejoin="round" stroke="rgb(0%, 74.901961%, 76.862745%)" stroke-opacity="1" stroke-miterlimit="10" d="M 306.695312 100.429688 C 306.695312 103.035156 302.785156 103.035156 302.785156 100.429688 C 302.785156 97.824219 306.695312 97.824219 306.695312 100.429688 "/>
<path fill-rule="nonzero" fill="rgb(0%, 74.901961%, 76.862745%)" fill-opacity="1" stroke-width="0.708661" stroke-linecap="round" stroke-linejoin="round" stroke="rgb(0%, 74.901961%, 76.862745%)" stroke-opacity="1" stroke-miterlimit="10" d="M 313.042969 96.71875 C 313.042969 99.328125 309.132812 99.328125 309.132812 96.71875 C 309.132812 94.113281 313.042969 94.113281 313.042969 96.71875 "/>
<path fill-rule="nonzero" fill="rgb(0%, 74.901961%, 76.862745%)" fill-opacity="1" stroke-width="0.708661" stroke-linecap="round" stroke-linejoin="round" stroke="rgb(0%, 74.901961%, 76.862745%)" stroke-opacity="1" stroke-miterlimit="10" d="M 252.34375 132.03125 C 252.34375 134.636719 248.4375 134.636719 248.4375 132.03125 C 248.4375 129.425781 252.34375 129.425781 252.34375 132.03125 "/>
<path fill-rule="nonzero" fill="rgb(0%, 74.901961%, 76.862745%)" fill-opacity="1" stroke-width="0.708661" stroke-linecap="round" stroke-linejoin="round" stroke="rgb(0%, 74.901961%, 76.862745%)" stroke-opacity="1" stroke-miterlimit="10" d="M 245.128906 86.023438 C 245.128906 88.628906 241.21875 88.628906 241.21875 86.023438 C 241.21875 83.417969 245.128906 83.417969 245.128906 86.023438 "/>
<path fill-rule="nonzero" fill="rgb(0%, 74.901961%, 76.862745%)" fill-opacity="1" stroke-width="0.708661" stroke-linecap="round" stroke-linejoin="round" stroke="rgb(0%, 74.901961%, 76.862745%)" stroke-opacity="1" stroke-miterlimit="10" d="M 292.703125 108.691406 C 292.703125 111.296875 288.792969 111.296875 288.792969 108.691406 C 288.792969 106.085938 292.703125 106.085938 292.703125 108.691406 "/>
<path fill-rule="nonzero" fill="rgb(0%, 74.901961%, 76.862745%)" fill-opacity="1" stroke-width="0.708661" stroke-linecap="round" stroke-linejoin="round" stroke="rgb(0%, 74.901961%, 76.862745%)" stroke-opacity="1" stroke-miterlimit="10" d="M 248.679688 75.335938 C 248.679688 77.941406 244.773438 77.941406 244.773438 75.335938 C 244.773438 72.730469 248.679688 72.730469 248.679688 75.335938 "/>
<path fill-rule="nonzero" fill="rgb(0%, 74.901961%, 76.862745%)" fill-opacity="1" stroke-width="0.708661" stroke-linecap="round" stroke-linejoin="round" stroke="rgb(0%, 74.901961%, 76.862745%)" stroke-opacity="1" stroke-miterlimit="10" d="M 206.894531 88.03125 C 206.894531 90.636719 202.984375 90.636719 202.984375 88.03125 C 202.984375 85.425781 206.894531 85.425781 206.894531 88.03125 "/>
<path fill-rule="nonzero" fill="rgb(0%, 74.901961%, 76.862745%)" fill-opacity="1" stroke-width="0.708661" stroke-linecap="round" stroke-linejoin="round" stroke="rgb(0%, 74.901961%, 76.862745%)" stroke-opacity="1" stroke-miterlimit="10" d="M 278.871094 97.253906 C 278.871094 99.859375 274.960938 99.859375 274.960938 97.253906 C 274.960938 94.644531 278.871094 94.644531 278.871094 97.253906 "/>
<path fill-rule="nonzero" fill="rgb(0%, 74.901961%, 76.862745%)" fill-opacity="1" stroke-width="0.708661" stroke-linecap="round" stroke-linejoin="round" stroke="rgb(0%, 74.901961%, 76.862745%)" stroke-opacity="1" stroke-miterlimit="10" d="M 217.386719 97.3125 C 217.386719 99.921875 213.476562 99.921875 213.476562 97.3125 C 213.476562 94.707031 217.386719 94.707031 217.386719 97.3125 "/>
<path fill-rule="nonzero" fill="rgb(0%, 74.901961%, 76.862745%)" fill-opacity="1" stroke-width="0.708661" stroke-linecap="round" stroke-linejoin="round" stroke="rgb(0%, 74.901961%, 76.862745%)" stroke-opacity="1" stroke-miterlimit="10" d="M 306.804688 73.621094 C 306.804688 76.226562 302.894531 76.226562 302.894531 73.621094 C 302.894531 71.011719 306.804688 71.011719 306.804688 73.621094 "/>
<path fill-rule="nonzero" fill="rgb(0%, 74.901961%, 76.862745%)" fill-opacity="1" stroke-width="0.708661" stroke-linecap="round" stroke-linejoin="round" stroke="rgb(0%, 74.901961%, 76.862745%)" stroke-opacity="1" stroke-miterlimit="10" d="M 293.09375 142.507812 C 293.09375 145.117188 289.183594 145.117188 289.183594 142.507812 C 289.183594 139.902344 293.09375 139.902344 293.09375 142.507812 "/>
<path fill-rule="nonzero" fill="rgb(0%, 74.901961%, 76.862745%)" fill-opacity="1" stroke-width="0.708661" stroke-linecap="round" stroke-linejoin="round" stroke="rgb(0%, 74.901961%, 76.862745%)" stroke-opacity="1" stroke-miterlimit="10" d="M 263.597656 54.445312 C 263.597656 57.050781 259.6875 57.050781 259.6875 54.445312 C 259.6875 51.839844 263.597656 51.839844 263.597656 54.445312 "/>
<path fill-rule="nonzero" fill="rgb(0%, 74.901961%, 76.862745%)" fill-opacity="1" stroke-width="0.708661" stroke-linecap="round" stroke-linejoin="round" stroke="rgb(0%, 74.901961%, 76.862745%)" stroke-opacity="1" stroke-miterlimit="10" d="M 256.546875 135.160156 C 256.546875 137.765625 252.640625 137.765625 252.640625 135.160156 C 252.640625 132.550781 256.546875 132.550781 256.546875 135.160156 "/>
<path fill-rule="nonzero" fill="rgb(0%, 74.901961%, 76.862745%)" fill-opacity="1" stroke-width="0.708661" stroke-linecap="round" stroke-linejoin="round" stroke="rgb(0%, 74.901961%, 76.862745%)" stroke-opacity="1" stroke-miterlimit="10" d="M 226.3125 99.902344 C 226.3125 102.507812 222.402344 102.507812 222.402344 99.902344 C 222.402344 97.296875 226.3125 97.296875 226.3125 99.902344 "/>
<path fill-rule="nonzero" fill="rgb(0%, 74.901961%, 76.862745%)" fill-opacity="1" stroke-width="0.708661" stroke-linecap="round" stroke-linejoin="round" stroke="rgb(0%, 74.901961%, 76.862745%)" stroke-opacity="1" stroke-miterlimit="10" d="M 280.941406 133.039062 C 280.941406 135.648438 277.03125 135.648438 277.03125 133.039062 C 277.03125 130.433594 280.941406 130.433594 280.941406 133.039062 "/>
<path fill-rule="nonzero" fill="rgb(0%, 74.901961%, 76.862745%)" fill-opacity="1" stroke-width="0.708661" stroke-linecap="round" stroke-linejoin="round" stroke="rgb(0%, 74.901961%, 76.862745%)" stroke-opacity="1" stroke-miterlimit="10" d="M 253.832031 123.09375 C 253.832031 125.703125 249.921875 125.703125 249.921875 123.09375 C 249.921875 120.488281 253.832031 120.488281 253.832031 123.09375 "/>
<path fill-rule="nonzero" fill="rgb(97.254902%, 46.27451%, 42.745098%)" fill-opacity="1" stroke-width="0.708661" stroke-linecap="round" stroke-linejoin="round" stroke="rgb(97.254902%, 46.27451%, 42.745098%)" stroke-opacity="1" stroke-miterlimit="10" d="M 143.261719 89.242188 C 143.261719 91.851562 139.351562 91.851562 139.351562 89.242188 C 139.351562 86.636719 143.261719 86.636719 143.261719 89.242188 "/>
<path fill-rule="nonzero" fill="rgb(97.254902%, 46.27451%, 42.745098%)" fill-opacity="1" stroke-width="0.708661" stroke-linecap="round" stroke-linejoin="round" stroke="rgb(97.254902%, 46.27451%, 42.745098%)" stroke-opacity="1" stroke-miterlimit="10" d="M 88.78125 53.421875 C 88.78125 56.03125 84.871094 56.03125 84.871094 53.421875 C 84.871094 50.816406 88.78125 50.816406 88.78125 53.421875 "/>
<path fill-rule="nonzero" fill="rgb(97.254902%, 46.27451%, 42.745098%)" fill-opacity="1" stroke-width="0.708661" stroke-linecap="round" stroke-linejoin="round" stroke="rgb(97.254902%, 46.27451%, 42.745098%)" stroke-opacity="1" stroke-miterlimit="10" d="M 177 98.925781 C 177 101.535156 173.089844 101.535156 173.089844 98.925781 C 173.089844 96.320312 177 96.320312 177 98.925781 "/>
<path fill-rule="nonzero" fill="rgb(97.254902%, 46.27451%, 42.745098%)" fill-opacity="1" stroke-width="0.708661" stroke-linecap="round" stroke-linejoin="round" stroke="rgb(97.254902%, 46.27451%, 42.745098%)" stroke-opacity="1" stroke-miterlimit="10" d="M 132.441406 15.070312 C 132.441406 17.679688 128.53125 17.679688 128.53125 15.070312 C 128.53125 12.464844 132.441406 12.464844 132.441406 15.070312 "/>
<path fill-rule="nonzero" fill="rgb(0%, 74.901961%, 76.862745%)" fill-opacity="1" stroke-width="0.708661" stroke-linecap="round" stroke-linejoin="round" stroke="rgb(0%, 74.901961%, 76.862745%)" stroke-opacity="1" stroke-miterlimit="10" d="M 252.019531 124.753906 C 252.019531 127.359375 248.109375 127.359375 248.109375 124.753906 C 248.109375 122.144531 252.019531 122.144531 252.019531 124.753906 "/>
<path fill-rule="nonzero" fill="rgb(0%, 74.901961%, 76.862745%)" fill-opacity="1" stroke-width="0.708661" stroke-linecap="round" stroke-linejoin="round" stroke="rgb(0%, 74.901961%, 76.862745%)" stroke-opacity="1" stroke-miterlimit="10" d="M 240.484375 132.183594 C 240.484375 134.789062 236.574219 134.789062 236.574219 132.183594 C 236.574219 129.574219 240.484375 129.574219 240.484375 132.183594 "/>
<path fill-rule="nonzero" fill="rgb(0%, 74.901961%, 76.862745%)" fill-opacity="1" stroke-width="0.708661" stroke-linecap="round" stroke-linejoin="round" stroke="rgb(0%, 74.901961%, 76.862745%)" stroke-opacity="1" stroke-miterlimit="10" d="M 287.136719 88.546875 C 287.136719 91.152344 283.230469 91.152344 283.230469 88.546875 C 283.230469 85.9375 287.136719 85.9375 287.136719 88.546875 "/>
<path fill-rule="nonzero" fill="rgb(0%, 74.901961%, 76.862745%)" fill-opacity="1" stroke-width="0.708661" stroke-linecap="round" stroke-linejoin="round" stroke="rgb(0%, 74.901961%, 76.862745%)" stroke-opacity="1" stroke-miterlimit="10" d="M 291.445312 114.867188 C 291.445312 117.472656 287.535156 117.472656 287.535156 114.867188 C 287.535156 112.261719 291.445312 112.261719 291.445312 114.867188 "/>
<path fill-rule="nonzero" fill="rgb(0%, 74.901961%, 76.862745%)" fill-opacity="1" stroke-width="0.708661" stroke-linecap="round" stroke-linejoin="round" stroke="rgb(0%, 74.901961%, 76.862745%)" stroke-opacity="1" stroke-miterlimit="10" d="M 259.183594 65.914062 C 259.183594 68.519531 255.273438 68.519531 255.273438 65.914062 C 255.273438 63.308594 259.183594 63.308594 259.183594 65.914062 "/>
<path fill-rule="nonzero" fill="rgb(97.254902%, 46.27451%, 42.745098%)" fill-opacity="1" stroke-width="0.708661" stroke-linecap="round" stroke-linejoin="round" stroke="rgb(97.254902%, 46.27451%, 42.745098%)" stroke-opacity="1" stroke-miterlimit="10" d="M 140.75 113.578125 C 140.75 116.183594 136.839844 116.183594 136.839844 113.578125 C 136.839844 110.972656 140.75 110.972656 140.75 113.578125 "/>
<path fill-rule="nonzero" fill="rgb(97.254902%, 46.27451%, 42.745098%)" fill-opacity="1" stroke-width="0.708661" stroke-linecap="round" stroke-linejoin="round" stroke="rgb(97.254902%, 46.27451%, 42.745098%)" stroke-opacity="1" stroke-miterlimit="10" d="M 176.96875 72.707031 C 176.96875 75.3125 173.058594 75.3125 173.058594 72.707031 C 173.058594 70.101562 176.96875 70.101562 176.96875 72.707031 "/>
<path fill-rule="nonzero" fill="rgb(0%, 74.901961%, 76.862745%)" fill-opacity="1" stroke-width="0.708661" stroke-linecap="round" stroke-linejoin="round" stroke="rgb(0%, 74.901961%, 76.862745%)" stroke-opacity="1" stroke-miterlimit="10" d="M 240.457031 115.355469 C 240.457031 117.960938 236.546875 117.960938 236.546875 115.355469 C 236.546875 112.746094 240.457031 112.746094 240.457031 115.355469 "/>
<path fill-rule="nonzero" fill="rgb(0%, 74.901961%, 76.862745%)" fill-opacity="1" stroke-width="0.708661" stroke-linecap="round" stroke-linejoin="round" stroke="rgb(0%, 74.901961%, 76.862745%)" stroke-opacity="1" stroke-miterlimit="10" d="M 261.570312 82.101562 C 261.570312 84.707031 257.660156 84.707031 257.660156 82.101562 C 257.660156 79.496094 261.570312 79.496094 261.570312 82.101562 "/>
<path fill-rule="nonzero" fill="rgb(0%, 74.901961%, 76.862745%)" fill-opacity="1" stroke-width="0.708661" stroke-linecap="round" stroke-linejoin="round" stroke="rgb(0%, 74.901961%, 76.862745%)" stroke-opacity="1" stroke-miterlimit="10" d="M 289.863281 124.597656 C 289.863281 127.203125 285.953125 127.203125 285.953125 124.597656 C 285.953125 121.992188 289.863281 121.992188 289.863281 124.597656 "/>
<path fill-rule="nonzero" fill="rgb(0%, 74.901961%, 76.862745%)" fill-opacity="1" stroke-width="0.708661" stroke-linecap="round" stroke-linejoin="round" stroke="rgb(0%, 74.901961%, 76.862745%)" stroke-opacity="1" stroke-miterlimit="10" d="M 229.734375 119.71875 C 229.734375 122.328125 225.828125 122.328125 225.828125 119.71875 C 225.828125 117.113281 229.734375 117.113281 229.734375 119.71875 "/>
<path fill-rule="nonzero" fill="rgb(0%, 74.901961%, 76.862745%)" fill-opacity="1" stroke-width="0.708661" stroke-linecap="round" stroke-linejoin="round" stroke="rgb(0%, 74.901961%, 76.862745%)" stroke-opacity="1" stroke-miterlimit="10" d="M 276.324219 109.179688 C 276.324219 111.789062 272.414062 111.789062 272.414062 109.179688 C 272.414062 106.574219 276.324219 106.574219 276.324219 109.179688 "/>
<path fill-rule="nonzero" fill="rgb(0%, 74.901961%, 76.862745%)" fill-opacity="1" stroke-width="0.708661" stroke-linecap="round" stroke-linejoin="round" stroke="rgb(0%, 74.901961%, 76.862745%)" stroke-opacity="1" stroke-miterlimit="10" d="M 309.238281 92.464844 C 309.238281 95.070312 305.328125 95.070312 305.328125 92.464844 C 305.328125 89.859375 309.238281 89.859375 309.238281 92.464844 "/>
<path fill-rule="nonzero" fill="rgb(97.254902%, 46.27451%, 42.745098%)" fill-opacity="1" stroke-width="0.708661" stroke-linecap="round" stroke-linejoin="round" stroke="rgb(97.254902%, 46.27451%, 42.745098%)" stroke-opacity="1" stroke-miterlimit="10" d="M 102.761719 50.347656 C 102.761719 52.953125 98.851562 52.953125 98.851562 50.347656 C 98.851562 47.742188 102.761719 47.742188 102.761719 50.347656 "/>
<path fill-rule="nonzero" fill="rgb(97.254902%, 46.27451%, 42.745098%)" fill-opacity="1" stroke-width="0.708661" stroke-linecap="round" stroke-linejoin="round" stroke="rgb(97.254902%, 46.27451%, 42.745098%)" stroke-opacity="1" stroke-miterlimit="10" d="M 130.523438 46.398438 C 130.523438 49.003906 126.617188 49.003906 126.617188 46.398438 C 126.617188 43.792969 130.523438 43.792969 130.523438 46.398438 "/>
<path fill-rule="nonzero" fill="rgb(97.254902%, 46.27451%, 42.745098%)" fill-opacity="1" stroke-width="0.708661" stroke-linecap="round" stroke-linejoin="round" stroke="rgb(97.254902%, 46.27451%, 42.745098%)" stroke-opacity="1" stroke-miterlimit="10" d="M 152.730469 83.308594 C 152.730469 85.914062 148.820312 85.914062 148.820312 83.308594 C 148.820312 80.703125 152.730469 80.703125 152.730469 83.308594 "/>
<path fill-rule="nonzero" fill="rgb(0%, 74.901961%, 76.862745%)" fill-opacity="1" stroke-width="0.708661" stroke-linecap="round" stroke-linejoin="round" stroke="rgb(0%, 74.901961%, 76.862745%)" stroke-opacity="1" stroke-miterlimit="10" d="M 232.070312 116.316406 C 232.070312 118.921875 228.160156 118.921875 228.160156 116.316406 C 228.160156 113.707031 232.070312 113.707031 232.070312 116.316406 "/>
<path fill-rule="nonzero" fill="rgb(0%, 74.901961%, 76.862745%)" fill-opacity="1" stroke-width="0.708661" stroke-linecap="round" stroke-linejoin="round" stroke="rgb(0%, 74.901961%, 76.862745%)" stroke-opacity="1" stroke-miterlimit="10" d="M 209.691406 95.09375 C 209.691406 97.703125 205.78125 97.703125 205.78125 95.09375 C 205.78125 92.488281 209.691406 92.488281 209.691406 95.09375 "/>
<path fill-rule="nonzero" fill="rgb(0%, 74.901961%, 76.862745%)" fill-opacity="1" stroke-width="0.708661" stroke-linecap="round" stroke-linejoin="round" stroke="rgb(0%, 74.901961%, 76.862745%)" stroke-opacity="1" stroke-miterlimit="10" d="M 280.796875 61.636719 C 280.796875 64.242188 276.886719 64.242188 276.886719 61.636719 C 276.886719 59.03125 280.796875 59.03125 280.796875 61.636719 "/>
<path fill-rule="nonzero" fill="rgb(0%, 74.901961%, 76.862745%)" fill-opacity="1" stroke-width="0.708661" stroke-linecap="round" stroke-linejoin="round" stroke="rgb(0%, 74.901961%, 76.862745%)" stroke-opacity="1" stroke-miterlimit="10" d="M 299.277344 91.132812 C 299.277344 93.738281 295.367188 93.738281 295.367188 91.132812 C 295.367188 88.527344 299.277344 88.527344 299.277344 91.132812 "/>
<path fill-rule="nonzero" fill="rgb(0%, 74.901961%, 76.862745%)" fill-opacity="1" stroke-width="0.708661" stroke-linecap="round" stroke-linejoin="round" stroke="rgb(0%, 74.901961%, 76.862745%)" stroke-opacity="1" stroke-miterlimit="10" d="M 291.839844 77.265625 C 291.839844 79.871094 287.929688 79.871094 287.929688 77.265625 C 287.929688 74.660156 291.839844 74.660156 291.839844 77.265625 "/>
<path fill-rule="nonzero" fill="rgb(0%, 74.901961%, 76.862745%)" fill-opacity="1" stroke-width="0.708661" stroke-linecap="round" stroke-linejoin="round" stroke="rgb(0%, 74.901961%, 76.862745%)" stroke-opacity="1" stroke-miterlimit="10" d="M 272.675781 75.101562 C 272.675781 77.707031 268.765625 77.707031 268.765625 75.101562 C 268.765625 72.496094 272.675781 72.496094 272.675781 75.101562 "/>
<path fill-rule="nonzero" fill="rgb(0%, 74.901961%, 76.862745%)" fill-opacity="1" stroke-width="0.708661" stroke-linecap="round" stroke-linejoin="round" stroke="rgb(0%, 74.901961%, 76.862745%)" stroke-opacity="1" stroke-miterlimit="10" d="M 221.804688 108.519531 C 221.804688 111.125 217.894531 111.125 217.894531 108.519531 C 217.894531 105.914062 221.804688 105.914062 221.804688 108.519531 "/>
<path fill-rule="nonzero" fill="rgb(97.254902%, 46.27451%, 42.745098%)" fill-opacity="1" stroke-width="0.708661" stroke-linecap="round" stroke-linejoin="round" stroke="rgb(97.254902%, 46.27451%, 42.745098%)" stroke-opacity="1" stroke-miterlimit="10" d="M 164.824219 72.144531 C 164.824219 74.75 160.914062 74.75 160.914062 72.144531 C 160.914062 69.535156 164.824219 69.535156 164.824219 72.144531 "/>
<path fill-rule="nonzero" fill="rgb(97.254902%, 46.27451%, 42.745098%)" fill-opacity="1" stroke-width="0.708661" stroke-linecap="round" stroke-linejoin="round" stroke="rgb(97.254902%, 46.27451%, 42.745098%)" stroke-opacity="1" stroke-miterlimit="10" d="M 121.078125 26.675781 C 121.078125 29.28125 117.167969 29.28125 117.167969 26.675781 C 117.167969 24.066406 121.078125 24.066406 121.078125 26.675781 "/>
<path fill-rule="nonzero" fill="rgb(97.254902%, 46.27451%, 42.745098%)" fill-opacity="1" stroke-width="0.708661" stroke-linecap="round" stroke-linejoin="round" stroke="rgb(97.254902%, 46.27451%, 42.745098%)" stroke-opacity="1" stroke-miterlimit="10" d="M 115.933594 71.953125 C 115.933594 74.558594 112.023438 74.558594 112.023438 71.953125 C 112.023438 69.34375 115.933594 69.34375 115.933594 71.953125 "/>
<path fill-rule="nonzero" fill="rgb(97.254902%, 46.27451%, 42.745098%)" fill-opacity="1" stroke-width="0.708661" stroke-linecap="round" stroke-linejoin="round" stroke="rgb(97.254902%, 46.27451%, 42.745098%)" stroke-opacity="1" stroke-miterlimit="10" d="M 134.789062 74.265625 C 134.789062 76.871094 130.878906 76.871094 130.878906 74.265625 C 130.878906 71.660156 134.789062 71.660156 134.789062 74.265625 "/>
<path fill-rule="nonzero" fill="rgb(97.254902%, 46.27451%, 42.745098%)" fill-opacity="1" stroke-width="0.708661" stroke-linecap="round" stroke-linejoin="round" stroke="rgb(97.254902%, 46.27451%, 42.745098%)" stroke-opacity="1" stroke-miterlimit="10" d="M 101.460938 69.144531 C 101.460938 71.75 97.550781 71.75 97.550781 69.144531 C 97.550781 66.539062 101.460938 66.539062 101.460938 69.144531 "/>
<path fill-rule="nonzero" fill="rgb(97.254902%, 46.27451%, 42.745098%)" fill-opacity="1" stroke-width="0.708661" stroke-linecap="round" stroke-linejoin="round" stroke="rgb(97.254902%, 46.27451%, 42.745098%)" stroke-opacity="1" stroke-miterlimit="10" d="M 72.722656 28.242188 C 72.722656 30.847656 68.8125 30.847656 68.8125 28.242188 C 68.8125 25.632812 72.722656 25.632812 72.722656 28.242188 "/>
<path fill-rule="nonzero" fill="rgb(0%, 74.901961%, 76.862745%)" fill-opacity="1" stroke-width="0.708661" stroke-linecap="round" stroke-linejoin="round" stroke="rgb(0%, 74.901961%, 76.862745%)" stroke-opacity="1" stroke-miterlimit="10" d="M 239.890625 72.386719 C 239.890625 74.992188 235.984375 74.992188 235.984375 72.386719 C 235.984375 69.78125 239.890625 69.78125 239.890625 72.386719 "/>
<path fill-rule="nonzero" fill="rgb(0%, 74.901961%, 76.862745%)" fill-opacity="1" stroke-width="0.708661" stroke-linecap="round" stroke-linejoin="round" stroke="rgb(0%, 74.901961%, 76.862745%)" stroke-opacity="1" stroke-miterlimit="10" d="M 227.160156 108.945312 C 227.160156 111.554688 223.253906 111.554688 223.253906 108.945312 C 223.253906 106.339844 227.160156 106.339844 227.160156 108.945312 "/>
<path fill-rule="nonzero" fill="rgb(0%, 74.901961%, 76.862745%)" fill-opacity="1" stroke-width="0.708661" stroke-linecap="round" stroke-linejoin="round" stroke="rgb(0%, 74.901961%, 76.862745%)" stroke-opacity="1" stroke-miterlimit="10" d="M 208.746094 132.335938 C 208.746094 134.941406 204.835938 134.941406 204.835938 132.335938 C 204.835938 129.730469 208.746094 129.730469 208.746094 132.335938 "/>
<path fill-rule="nonzero" fill="rgb(0%, 74.901961%, 76.862745%)" fill-opacity="1" stroke-width="0.708661" stroke-linecap="round" stroke-linejoin="round" stroke="rgb(0%, 74.901961%, 76.862745%)" stroke-opacity="1" stroke-miterlimit="10" d="M 254.296875 118.664062 C 254.296875 121.273438 250.386719 121.273438 250.386719 118.664062 C 250.386719 116.058594 254.296875 116.058594 254.296875 118.664062 "/>
<path fill-rule="nonzero" fill="rgb(97.254902%, 46.27451%, 42.745098%)" fill-opacity="1" stroke-width="0.708661" stroke-linecap="round" stroke-linejoin="round" stroke="rgb(97.254902%, 46.27451%, 42.745098%)" stroke-opacity="1" stroke-miterlimit="10" d="M 94.324219 64.785156 C 94.324219 67.390625 90.414062 67.390625 90.414062 64.785156 C 90.414062 62.179688 94.324219 62.179688 94.324219 64.785156 "/>
<path fill-rule="nonzero" fill="rgb(0%, 74.901961%, 76.862745%)" fill-opacity="1" stroke-width="0.708661" stroke-linecap="round" stroke-linejoin="round" stroke="rgb(0%, 74.901961%, 76.862745%)" stroke-opacity="1" stroke-miterlimit="10" d="M 235.394531 137.132812 C 235.394531 139.738281 231.484375 139.738281 231.484375 137.132812 C 231.484375 134.523438 235.394531 134.523438 235.394531 137.132812 "/>
<path fill-rule="nonzero" fill="rgb(0%, 74.901961%, 76.862745%)" fill-opacity="1" stroke-width="0.708661" stroke-linecap="round" stroke-linejoin="round" stroke="rgb(0%, 74.901961%, 76.862745%)" stroke-opacity="1" stroke-miterlimit="10" d="M 235.449219 112.554688 C 235.449219 115.160156 231.539062 115.160156 231.539062 112.554688 C 231.539062 109.949219 235.449219 109.949219 235.449219 112.554688 "/>
<path fill-rule="nonzero" fill="rgb(97.254902%, 46.27451%, 42.745098%)" fill-opacity="1" stroke-width="0.708661" stroke-linecap="round" stroke-linejoin="round" stroke="rgb(97.254902%, 46.27451%, 42.745098%)" stroke-opacity="1" stroke-miterlimit="10" d="M 138.046875 47.609375 C 138.046875 50.214844 134.136719 50.214844 134.136719 47.609375 C 134.136719 45.003906 138.046875 45.003906 138.046875 47.609375 "/>
<path fill-rule="nonzero" fill="rgb(97.254902%, 46.27451%, 42.745098%)" fill-opacity="1" stroke-width="0.708661" stroke-linecap="round" stroke-linejoin="round" stroke="rgb(97.254902%, 46.27451%, 42.745098%)" stroke-opacity="1" stroke-miterlimit="10" d="M 156.886719 54.4375 C 156.886719 57.042969 152.976562 57.042969 152.976562 54.4375 C 152.976562 51.832031 156.886719 51.832031 156.886719 54.4375 "/>
<path fill-rule="nonzero" fill="rgb(0%, 74.901961%, 76.862745%)" fill-opacity="1" stroke-width="0.708661" stroke-linecap="round" stroke-linejoin="round" stroke="rgb(0%, 74.901961%, 76.862745%)" stroke-opacity="1" stroke-miterlimit="10" d="M 276.09375 135.113281 C 276.09375 137.71875 272.183594 137.71875 272.183594 135.113281 C 272.183594 132.507812 276.09375 132.507812 276.09375 135.113281 "/>
<path fill-rule="nonzero" fill="rgb(0%, 74.901961%, 76.862745%)" fill-opacity="1" stroke-width="0.708661" stroke-linecap="round" stroke-linejoin="round" stroke="rgb(0%, 74.901961%, 76.862745%)" stroke-opacity="1" stroke-miterlimit="10" d="M 313.03125 149.175781 C 313.03125 151.78125 309.121094 151.78125 309.121094 149.175781 C 309.121094 146.570312 313.03125 146.570312 313.03125 149.175781 "/>
<path fill-rule="nonzero" fill="rgb(0%, 74.901961%, 76.862745%)" fill-opacity="1" stroke-width="0.708661" stroke-linecap="round" stroke-linejoin="round" stroke="rgb(0%, 74.901961%, 76.862745%)" stroke-opacity="1" stroke-miterlimit="10" d="M 231.324219 136.109375 C 231.324219 138.714844 227.414062 138.714844 227.414062 136.109375 C 227.414062 133.503906 231.324219 133.503906 231.324219 136.109375 "/>
<path fill-rule="nonzero" fill="rgb(0%, 74.901961%, 76.862745%)" fill-opacity="1" stroke-width="0.708661" stroke-linecap="round" stroke-linejoin="round" stroke="rgb(0%, 74.901961%, 76.862745%)" stroke-opacity="1" stroke-miterlimit="10" d="M 252.632812 139.914062 C 252.632812 142.519531 248.722656 142.519531 248.722656 139.914062 C 248.722656 137.308594 252.632812 137.308594 252.632812 139.914062 "/>
<path fill-rule="nonzero" fill="rgb(0%, 74.901961%, 76.862745%)" fill-opacity="1" stroke-width="0.708661" stroke-linecap="round" stroke-linejoin="round" stroke="rgb(0%, 74.901961%, 76.862745%)" stroke-opacity="1" stroke-miterlimit="10" d="M 280.195312 132.21875 C 280.195312 134.824219 276.285156 134.824219 276.285156 132.21875 C 276.285156 129.613281 280.195312 129.613281 280.195312 132.21875 "/>
<path fill-rule="nonzero" fill="rgb(0%, 74.901961%, 76.862745%)" fill-opacity="1" stroke-width="0.708661" stroke-linecap="round" stroke-linejoin="round" stroke="rgb(0%, 74.901961%, 76.862745%)" stroke-opacity="1" stroke-miterlimit="10" d="M 253.542969 136.890625 C 253.542969 139.496094 249.632812 139.496094 249.632812 136.890625 C 249.632812 134.285156 253.542969 134.285156 253.542969 136.890625 "/>
<path fill-rule="nonzero" fill="rgb(0%, 74.901961%, 76.862745%)" fill-opacity="1" stroke-width="0.708661" stroke-linecap="round" stroke-linejoin="round" stroke="rgb(0%, 74.901961%, 76.862745%)" stroke-opacity="1" stroke-miterlimit="10" d="M 284.0625 111.398438 C 284.0625 114.003906 280.152344 114.003906 280.152344 111.398438 C 280.152344 108.789062 284.0625 108.789062 284.0625 111.398438 "/>
<path fill-rule="nonzero" fill="rgb(97.254902%, 46.27451%, 42.745098%)" fill-opacity="1" stroke-width="0.708661" stroke-linecap="round" stroke-linejoin="round" stroke="rgb(97.254902%, 46.27451%, 42.745098%)" stroke-opacity="1" stroke-miterlimit="10" d="M 78.558594 67.558594 C 78.558594 70.164062 74.648438 70.164062 74.648438 67.558594 C 74.648438 64.949219 78.558594 64.949219 78.558594 67.558594 "/>
<path fill-rule="nonzero" fill="rgb(97.254902%, 46.27451%, 42.745098%)" fill-opacity="1" stroke-width="0.708661" stroke-linecap="round" stroke-linejoin="round" stroke="rgb(97.254902%, 46.27451%, 42.745098%)" stroke-opacity="1" stroke-miterlimit="10" d="M 114.460938 21.203125 C 114.460938 23.8125 110.550781 23.8125 110.550781 21.203125 C 110.550781 18.597656 114.460938 18.597656 114.460938 21.203125 "/>
<path fill-rule="nonzero" fill="rgb(97.254902%, 46.27451%, 42.745098%)" fill-opacity="1" stroke-width="0.708661" stroke-linecap="round" stroke-linejoin="round" stroke="rgb(97.254902%, 46.27451%, 42.745098%)" stroke-opacity="1" stroke-miterlimit="10" d="M 74.222656 44.066406 C 74.222656 46.671875 70.3125 46.671875 70.3125 44.066406 C 70.3125 41.457031 74.222656 41.457031 74.222656 44.066406 "/>
<path fill-rule="nonzero" fill="rgb(0%, 74.901961%, 76.862745%)" fill-opacity="1" stroke-width="0.708661" stroke-linecap="round" stroke-linejoin="round" stroke="rgb(0%, 74.901961%, 76.862745%)" stroke-opacity="1" stroke-miterlimit="10" d="M 291.285156 96.433594 C 291.285156 99.039062 287.375 99.039062 287.375 96.433594 C 287.375 93.828125 291.285156 93.828125 291.285156 96.433594 "/>
<path fill-rule="nonzero" fill="rgb(0%, 74.901961%, 76.862745%)" fill-opacity="1" stroke-width="0.708661" stroke-linecap="round" stroke-linejoin="round" stroke="rgb(0%, 74.901961%, 76.862745%)" stroke-opacity="1" stroke-miterlimit="10" d="M 206.429688 88.417969 C 206.429688 91.023438 202.519531 91.023438 202.519531 88.417969 C 202.519531 85.8125 206.429688 85.8125 206.429688 88.417969 "/>
<path fill-rule="nonzero" fill="rgb(0%, 74.901961%, 76.862745%)" fill-opacity="1" stroke-width="0.708661" stroke-linecap="round" stroke-linejoin="round" stroke="rgb(0%, 74.901961%, 76.862745%)" stroke-opacity="1" stroke-miterlimit="10" d="M 284.128906 107.996094 C 284.128906 110.605469 280.21875 110.605469 280.21875 107.996094 C 280.21875 105.390625 284.128906 105.390625 284.128906 107.996094 "/>
<path fill-rule="nonzero" fill="rgb(0%, 74.901961%, 76.862745%)" fill-opacity="1" stroke-width="0.708661" stroke-linecap="round" stroke-linejoin="round" stroke="rgb(0%, 74.901961%, 76.862745%)" stroke-opacity="1" stroke-miterlimit="10" d="M 281.953125 119.765625 C 281.953125 122.371094 278.042969 122.371094 278.042969 119.765625 C 278.042969 117.160156 281.953125 117.160156 281.953125 119.765625 "/>
<path fill-rule="nonzero" fill="rgb(0%, 74.901961%, 76.862745%)" fill-opacity="1" stroke-width="0.708661" stroke-linecap="round" stroke-linejoin="round" stroke="rgb(0%, 74.901961%, 76.862745%)" stroke-opacity="1" stroke-miterlimit="10" d="M 260.402344 160.910156 C 260.402344 163.515625 256.492188 163.515625 256.492188 160.910156 C 256.492188 158.304688 260.402344 158.304688 260.402344 160.910156 "/>
<path fill-rule="nonzero" fill="rgb(0%, 74.901961%, 76.862745%)" fill-opacity="1" stroke-width="0.708661" stroke-linecap="round" stroke-linejoin="round" stroke="rgb(0%, 74.901961%, 76.862745%)" stroke-opacity="1" stroke-miterlimit="10" d="M 270.5 93.625 C 270.5 96.230469 266.589844 96.230469 266.589844 93.625 C 266.589844 91.015625 270.5 91.015625 270.5 93.625 "/>
<path fill-rule="nonzero" fill="rgb(97.254902%, 46.27451%, 42.745098%)" fill-opacity="1" stroke-width="0.708661" stroke-linecap="round" stroke-linejoin="round" stroke="rgb(97.254902%, 46.27451%, 42.745098%)" stroke-opacity="1" stroke-miterlimit="10" d="M 105.433594 108.527344 C 105.433594 111.132812 101.523438 111.132812 101.523438 108.527344 C 101.523438 105.917969 105.433594 105.917969 105.433594 108.527344 "/>
<path fill-rule="nonzero" fill="rgb(97.254902%, 46.27451%, 42.745098%)" fill-opacity="1" stroke-width="0.708661" stroke-linecap="round" stroke-linejoin="round" stroke="rgb(97.254902%, 46.27451%, 42.745098%)" stroke-opacity="1" stroke-miterlimit="10" d="M 122.203125 40.308594 C 122.203125 42.914062 118.292969 42.914062 118.292969 40.308594 C 118.292969 37.699219 122.203125 37.699219 122.203125 40.308594 "/>
<path fill-rule="nonzero" fill="rgb(97.254902%, 46.27451%, 42.745098%)" fill-opacity="1" stroke-width="0.708661" stroke-linecap="round" stroke-linejoin="round" stroke="rgb(97.254902%, 46.27451%, 42.745098%)" stroke-opacity="1" stroke-miterlimit="10" d="M 101.492188 84.605469 C 101.492188 87.210938 97.582031 87.210938 97.582031 84.605469 C 97.582031 81.996094 101.492188 81.996094 101.492188 84.605469 "/>
<path fill-rule="nonzero" fill="rgb(97.254902%, 46.27451%, 42.745098%)" fill-opacity="1" stroke-width="0.708661" stroke-linecap="round" stroke-linejoin="round" stroke="rgb(97.254902%, 46.27451%, 42.745098%)" stroke-opacity="1" stroke-miterlimit="10" d="M 161.625 39.679688 C 161.625 42.289062 157.714844 42.289062 157.714844 39.679688 C 157.714844 37.074219 161.625 37.074219 161.625 39.679688 "/>
<path fill-rule="nonzero" fill="rgb(0%, 74.901961%, 76.862745%)" fill-opacity="1" stroke-width="0.708661" stroke-linecap="round" stroke-linejoin="round" stroke="rgb(0%, 74.901961%, 76.862745%)" stroke-opacity="1" stroke-miterlimit="10" d="M 254.855469 77.902344 C 254.855469 80.507812 250.945312 80.507812 250.945312 77.902344 C 250.945312 75.296875 254.855469 75.296875 254.855469 77.902344 "/>
<path fill-rule="nonzero" fill="rgb(0%, 74.901961%, 76.862745%)" fill-opacity="1" stroke-width="0.708661" stroke-linecap="round" stroke-linejoin="round" stroke="rgb(0%, 74.901961%, 76.862745%)" stroke-opacity="1" stroke-miterlimit="10" d="M 298.621094 115.398438 C 298.621094 118.003906 294.710938 118.003906 294.710938 115.398438 C 294.710938 112.792969 298.621094 112.792969 298.621094 115.398438 "/>
<path fill-rule="nonzero" fill="rgb(0%, 74.901961%, 76.862745%)" fill-opacity="1" stroke-width="0.708661" stroke-linecap="round" stroke-linejoin="round" stroke="rgb(0%, 74.901961%, 76.862745%)" stroke-opacity="1" stroke-miterlimit="10" d="M 311.304688 154.988281 C 311.304688 157.59375 307.394531 157.59375 307.394531 154.988281 C 307.394531 152.382812 311.304688 152.382812 311.304688 154.988281 "/>
<path fill-rule="nonzero" fill="rgb(0%, 74.901961%, 76.862745%)" fill-opacity="1" stroke-width="0.708661" stroke-linecap="round" stroke-linejoin="round" stroke="rgb(0%, 74.901961%, 76.862745%)" stroke-opacity="1" stroke-miterlimit="10" d="M 312.8125 110.800781 C 312.8125 113.410156 308.902344 113.410156 308.902344 110.800781 C 308.902344 108.195312 312.8125 108.195312 312.8125 110.800781 "/>
<path fill-rule="nonzero" fill="rgb(97.254902%, 46.27451%, 42.745098%)" fill-opacity="1" stroke-width="0.708661" stroke-linecap="round" stroke-linejoin="round" stroke="rgb(97.254902%, 46.27451%, 42.745098%)" stroke-opacity="1" stroke-miterlimit="10" d="M 157.441406 41.824219 C 157.441406 44.429688 153.53125 44.429688 153.53125 41.824219 C 153.53125 39.214844 157.441406 39.214844 157.441406 41.824219 "/>
<path fill-rule="nonzero" fill="rgb(0%, 74.901961%, 76.862745%)" fill-opacity="1" stroke-width="0.708661" stroke-linecap="round" stroke-linejoin="round" stroke="rgb(0%, 74.901961%, 76.862745%)" stroke-opacity="1" stroke-miterlimit="10" d="M 231.933594 57.429688 C 231.933594 60.035156 228.023438 60.035156 228.023438 57.429688 C 228.023438 54.824219 231.933594 54.824219 231.933594 57.429688 "/>
<path fill-rule="nonzero" fill="rgb(0%, 74.901961%, 76.862745%)" fill-opacity="1" stroke-width="0.708661" stroke-linecap="round" stroke-linejoin="round" stroke="rgb(0%, 74.901961%, 76.862745%)" stroke-opacity="1" stroke-miterlimit="10" d="M 233.210938 75.796875 C 233.210938 78.40625 229.304688 78.40625 229.304688 75.796875 C 229.304688 73.191406 233.210938 73.191406 233.210938 75.796875 "/>
<path fill-rule="nonzero" fill="rgb(0%, 74.901961%, 76.862745%)" fill-opacity="1" stroke-width="0.708661" stroke-linecap="round" stroke-linejoin="round" stroke="rgb(0%, 74.901961%, 76.862745%)" stroke-opacity="1" stroke-miterlimit="10" d="M 207.960938 136.074219 C 207.960938 138.679688 204.054688 138.679688 204.054688 136.074219 C 204.054688 133.46875 207.960938 133.46875 207.960938 136.074219 "/>
<path fill-rule="nonzero" fill="rgb(0%, 74.901961%, 76.862745%)" fill-opacity="1" stroke-width="0.708661" stroke-linecap="round" stroke-linejoin="round" stroke="rgb(0%, 74.901961%, 76.862745%)" stroke-opacity="1" stroke-miterlimit="10" d="M 293.191406 97.101562 C 293.191406 99.707031 289.28125 99.707031 289.28125 97.101562 C 289.28125 94.496094 293.191406 94.496094 293.191406 97.101562 "/>
<path fill-rule="nonzero" fill="rgb(0%, 74.901961%, 76.862745%)" fill-opacity="1" stroke-width="0.708661" stroke-linecap="round" stroke-linejoin="round" stroke="rgb(0%, 74.901961%, 76.862745%)" stroke-opacity="1" stroke-miterlimit="10" d="M 257.796875 97.035156 C 257.796875 99.640625 253.890625 99.640625 253.890625 97.035156 C 253.890625 94.429688 257.796875 94.429688 257.796875 97.035156 "/>
<path fill-rule="nonzero" fill="rgb(97.254902%, 46.27451%, 42.745098%)" fill-opacity="1" stroke-width="0.708661" stroke-linecap="round" stroke-linejoin="round" stroke="rgb(97.254902%, 46.27451%, 42.745098%)" stroke-opacity="1" stroke-miterlimit="10" d="M 74.816406 89.527344 C 74.816406 92.132812 70.90625 92.132812 70.90625 89.527344 C 70.90625 86.921875 74.816406 86.921875 74.816406 89.527344 "/>
<path fill-rule="nonzero" fill="rgb(0%, 74.901961%, 76.862745%)" fill-opacity="1" stroke-width="0.708661" stroke-linecap="round" stroke-linejoin="round" stroke="rgb(0%, 74.901961%, 76.862745%)" stroke-opacity="1" stroke-miterlimit="10" d="M 268.101562 100.070312 C 268.101562 102.675781 264.191406 102.675781 264.191406 100.070312 C 264.191406 97.464844 268.101562 97.464844 268.101562 100.070312 "/>
<path fill-rule="nonzero" fill="rgb(97.254902%, 46.27451%, 42.745098%)" fill-opacity="1" stroke-width="0.708661" stroke-linecap="round" stroke-linejoin="round" stroke="rgb(97.254902%, 46.27451%, 42.745098%)" stroke-opacity="1" stroke-miterlimit="10" d="M 158.589844 91.140625 C 158.589844 93.75 154.679688 93.75 154.679688 91.140625 C 154.679688 88.535156 158.589844 88.535156 158.589844 91.140625 "/>
<path fill-rule="nonzero" fill="rgb(0%, 74.901961%, 76.862745%)" fill-opacity="1" stroke-width="0.708661" stroke-linecap="round" stroke-linejoin="round" stroke="rgb(0%, 74.901961%, 76.862745%)" stroke-opacity="1" stroke-miterlimit="10" d="M 271.640625 99.847656 C 271.640625 102.457031 267.734375 102.457031 267.734375 99.847656 C 267.734375 97.242188 271.640625 97.242188 271.640625 99.847656 "/>
<path fill-rule="nonzero" fill="rgb(0%, 74.901961%, 76.862745%)" fill-opacity="1" stroke-width="0.708661" stroke-linecap="round" stroke-linejoin="round" stroke="rgb(0%, 74.901961%, 76.862745%)" stroke-opacity="1" stroke-miterlimit="10" d="M 220.191406 117.347656 C 220.191406 119.957031 216.28125 119.957031 216.28125 117.347656 C 216.28125 114.742188 220.191406 114.742188 220.191406 117.347656 "/>
<path fill-rule="nonzero" fill="rgb(97.254902%, 46.27451%, 42.745098%)" fill-opacity="1" stroke-width="0.708661" stroke-linecap="round" stroke-linejoin="round" stroke="rgb(97.254902%, 46.27451%, 42.745098%)" stroke-opacity="1" stroke-miterlimit="10" d="M 144.472656 38.480469 C 144.472656 41.089844 140.5625 41.089844 140.5625 38.480469 C 140.5625 35.875 144.472656 35.875 144.472656 38.480469 "/>
<path fill-rule="nonzero" fill="rgb(0%, 74.901961%, 76.862745%)" fill-opacity="1" stroke-width="0.708661" stroke-linecap="round" stroke-linejoin="round" stroke="rgb(0%, 74.901961%, 76.862745%)" stroke-opacity="1" stroke-miterlimit="10" d="M 213.851562 166.546875 C 213.851562 169.152344 209.941406 169.152344 209.941406 166.546875 C 209.941406 163.941406 213.851562 163.941406 213.851562 166.546875 "/>
<path fill-rule="nonzero" fill="rgb(0%, 74.901961%, 76.862745%)" fill-opacity="1" stroke-width="0.708661" stroke-linecap="round" stroke-linejoin="round" stroke="rgb(0%, 74.901961%, 76.862745%)" stroke-opacity="1" stroke-miterlimit="10" d="M 207.121094 53.792969 C 207.121094 56.398438 203.210938 56.398438 203.210938 53.792969 C 203.210938 51.1875 207.121094 51.1875 207.121094 53.792969 "/>
<path fill-rule="nonzero" fill="rgb(0%, 74.901961%, 76.862745%)" fill-opacity="1" stroke-width="0.708661" stroke-linecap="round" stroke-linejoin="round" stroke="rgb(0%, 74.901961%, 76.862745%)" stroke-opacity="1" stroke-miterlimit="10" d="M 261.898438 94.910156 C 261.898438 97.519531 257.988281 97.519531 257.988281 94.910156 C 257.988281 92.304688 261.898438 92.304688 261.898438 94.910156 "/>
<path fill-rule="nonzero" fill="rgb(97.254902%, 46.27451%, 42.745098%)" fill-opacity="1" stroke-width="0.708661" stroke-linecap="round" stroke-linejoin="round" stroke="rgb(97.254902%, 46.27451%, 42.745098%)" stroke-opacity="1" stroke-miterlimit="10" d="M 143.261719 44.46875 C 143.261719 47.074219 139.351562 47.074219 139.351562 44.46875 C 139.351562 41.863281 143.261719 41.863281 143.261719 44.46875 "/>
<path fill-rule="nonzero" fill="rgb(97.254902%, 46.27451%, 42.745098%)" fill-opacity="1" stroke-width="0.708661" stroke-linecap="round" stroke-linejoin="round" stroke="rgb(97.254902%, 46.27451%, 42.745098%)" stroke-opacity="1" stroke-miterlimit="10" d="M 83.691406 81.039062 C 83.691406 83.644531 79.78125 83.644531 79.78125 81.039062 C 79.78125 78.429688 83.691406 78.429688 83.691406 81.039062 "/>
<path fill-rule="nonzero" fill="rgb(97.254902%, 46.27451%, 42.745098%)" fill-opacity="1" stroke-width="0.708661" stroke-linecap="round" stroke-linejoin="round" stroke="rgb(97.254902%, 46.27451%, 42.745098%)" stroke-opacity="1" stroke-miterlimit="10" d="M 148.1875 47.878906 C 148.1875 50.484375 144.277344 50.484375 144.277344 47.878906 C 144.277344 45.273438 148.1875 45.273438 148.1875 47.878906 "/>
<path fill-rule="nonzero" fill="rgb(0%, 74.901961%, 76.862745%)" fill-opacity="1" stroke-width="0.708661" stroke-linecap="round" stroke-linejoin="round" stroke="rgb(0%, 74.901961%, 76.862745%)" stroke-opacity="1" stroke-miterlimit="10" d="M 262.570312 85.421875 C 262.570312 88.03125 258.660156 88.03125 258.660156 85.421875 C 258.660156 82.816406 262.570312 82.816406 262.570312 85.421875 "/>
<path fill-rule="nonzero" fill="rgb(97.254902%, 46.27451%, 42.745098%)" fill-opacity="1" stroke-width="0.708661" stroke-linecap="round" stroke-linejoin="round" stroke="rgb(97.254902%, 46.27451%, 42.745098%)" stroke-opacity="1" stroke-miterlimit="10" d="M 88.574219 36.160156 C 88.574219 38.765625 84.664062 38.765625 84.664062 36.160156 C 84.664062 33.554688 88.574219 33.554688 88.574219 36.160156 "/>
<path fill-rule="nonzero" fill="rgb(0%, 74.901961%, 76.862745%)" fill-opacity="1" stroke-width="0.708661" stroke-linecap="round" stroke-linejoin="round" stroke="rgb(0%, 74.901961%, 76.862745%)" stroke-opacity="1" stroke-miterlimit="10" d="M 287.171875 118.578125 C 287.171875 121.183594 283.261719 121.183594 283.261719 118.578125 C 283.261719 115.96875 287.171875 115.96875 287.171875 118.578125 "/>
<path fill-rule="nonzero" fill="rgb(0%, 74.901961%, 76.862745%)" fill-opacity="1" stroke-width="0.708661" stroke-linecap="round" stroke-linejoin="round" stroke="rgb(0%, 74.901961%, 76.862745%)" stroke-opacity="1" stroke-miterlimit="10" d="M 249.929688 99.277344 C 249.929688 101.882812 246.019531 101.882812 246.019531 99.277344 C 246.019531 96.667969 249.929688 96.667969 249.929688 99.277344 "/>
<path fill-rule="nonzero" fill="rgb(0%, 74.901961%, 76.862745%)" fill-opacity="1" stroke-width="0.708661" stroke-linecap="round" stroke-linejoin="round" stroke="rgb(0%, 74.901961%, 76.862745%)" stroke-opacity="1" stroke-miterlimit="10" d="M 261.359375 87.53125 C 261.359375 90.136719 257.453125 90.136719 257.453125 87.53125 C 257.453125 84.925781 261.359375 84.925781 261.359375 87.53125 "/>
<path fill-rule="nonzero" fill="rgb(0%, 74.901961%, 76.862745%)" fill-opacity="1" stroke-width="0.708661" stroke-linecap="round" stroke-linejoin="round" stroke="rgb(0%, 74.901961%, 76.862745%)" stroke-opacity="1" stroke-miterlimit="10" d="M 263.777344 118.554688 C 263.777344 121.160156 259.867188 121.160156 259.867188 118.554688 C 259.867188 115.949219 263.777344 115.949219 263.777344 118.554688 "/>
<path fill-rule="nonzero" fill="rgb(0%, 74.901961%, 76.862745%)" fill-opacity="1" stroke-width="0.708661" stroke-linecap="round" stroke-linejoin="round" stroke="rgb(0%, 74.901961%, 76.862745%)" stroke-opacity="1" stroke-miterlimit="10" d="M 275.347656 137.152344 C 275.347656 139.757812 271.4375 139.757812 271.4375 137.152344 C 271.4375 134.542969 275.347656 134.542969 275.347656 137.152344 "/>
<path fill-rule="nonzero" fill="rgb(0%, 74.901961%, 76.862745%)" fill-opacity="1" stroke-width="0.708661" stroke-linecap="round" stroke-linejoin="round" stroke="rgb(0%, 74.901961%, 76.862745%)" stroke-opacity="1" stroke-miterlimit="10" d="M 260.246094 139.226562 C 260.246094 141.832031 256.335938 141.832031 256.335938 139.226562 C 256.335938 136.617188 260.246094 136.617188 260.246094 139.226562 "/>
<path fill-rule="nonzero" fill="rgb(0%, 74.901961%, 76.862745%)" fill-opacity="1" stroke-width="0.708661" stroke-linecap="round" stroke-linejoin="round" stroke="rgb(0%, 74.901961%, 76.862745%)" stroke-opacity="1" stroke-miterlimit="10" d="M 305.878906 115.832031 C 305.878906 118.441406 301.96875 118.441406 301.96875 115.832031 C 301.96875 113.226562 305.878906 113.226562 305.878906 115.832031 "/>
<path fill-rule="nonzero" fill="rgb(0%, 74.901961%, 76.862745%)" fill-opacity="1" stroke-width="0.708661" stroke-linecap="round" stroke-linejoin="round" stroke="rgb(0%, 74.901961%, 76.862745%)" stroke-opacity="1" stroke-miterlimit="10" d="M 234.023438 143.742188 C 234.023438 146.347656 230.113281 146.347656 230.113281 143.742188 C 230.113281 141.136719 234.023438 141.136719 234.023438 143.742188 "/>
<g fill="rgb(30.196078%, 30.196078%, 30.196078%)" fill-opacity="1">
<use xlink:href="#glyph-0-0" x="20.40625" y="198.691406"/>
<use xlink:href="#glyph-0-1" x="25.300391" y="198.691406"/>
<use xlink:href="#glyph-0-2" x="30.194531" y="198.691406"/>
</g>
<g fill="rgb(30.196078%, 30.196078%, 30.196078%)" fill-opacity="1">
<use xlink:href="#glyph-0-0" x="20.40625" y="159.226562"/>
<use xlink:href="#glyph-0-3" x="25.300391" y="159.226562"/>
<use xlink:href="#glyph-0-2" x="30.194531" y="159.226562"/>
</g>
<g fill="rgb(30.196078%, 30.196078%, 30.196078%)" fill-opacity="1">
<use xlink:href="#glyph-0-0" x="20.40625" y="119.757812"/>
<use xlink:href="#glyph-0-4" x="25.300391" y="119.757812"/>
<use xlink:href="#glyph-0-2" x="30.194531" y="119.757812"/>
</g>
<g fill="rgb(30.196078%, 30.196078%, 30.196078%)" fill-opacity="1">
<use xlink:href="#glyph-0-0" x="20.40625" y="80.292969"/>
<use xlink:href="#glyph-0-5" x="25.300391" y="80.292969"/>
<use xlink:href="#glyph-0-2" x="30.194531" y="80.292969"/>
</g>
<g fill="rgb(30.196078%, 30.196078%, 30.196078%)" fill-opacity="1">
<use xlink:href="#glyph-0-0" x="20.40625" y="40.828125"/>
<use xlink:href="#glyph-0-6" x="25.300391" y="40.828125"/>
<use xlink:href="#glyph-0-2" x="30.194531" y="40.828125"/>
</g>
<path fill="none" stroke-width="1.066978" stroke-linecap="butt" stroke-linejoin="round" stroke="rgb(20%, 20%, 20%)" stroke-opacity="1" stroke-miterlimit="10" d="M 37.28125 195.039062 L 40.023438 195.039062 "/>
<path fill="none" stroke-width="1.066978" stroke-linecap="butt" stroke-linejoin="round" stroke="rgb(20%, 20%, 20%)" stroke-opacity="1" stroke-miterlimit="10" d="M 37.28125 155.574219 L 40.023438 155.574219 "/>
<path fill="none" stroke-width="1.066978" stroke-linecap="butt" stroke-linejoin="round" stroke="rgb(20%, 20%, 20%)" stroke-opacity="1" stroke-miterlimit="10" d="M 37.28125 116.109375 L 40.023438 116.109375 "/>
<path fill="none" stroke-width="1.066978" stroke-linecap="butt" stroke-linejoin="round" stroke="rgb(20%, 20%, 20%)" stroke-opacity="1" stroke-miterlimit="10" d="M 37.28125 76.644531 L 40.023438 76.644531 "/>
<path fill="none" stroke-width="1.066978" stroke-linecap="butt" stroke-linejoin="round" stroke="rgb(20%, 20%, 20%)" stroke-opacity="1" stroke-miterlimit="10" d="M 37.28125 37.179688 L 40.023438 37.179688 "/>
<path fill="none" stroke-width="1.066978" stroke-linecap="butt" stroke-linejoin="round" stroke="rgb(20%, 20%, 20%)" stroke-opacity="1" stroke-miterlimit="10" d="M 121.429688 219.25 L 121.429688 216.507812 "/>
<path fill="none" stroke-width="1.066978" stroke-linecap="butt" stroke-linejoin="round" stroke="rgb(20%, 20%, 20%)" stroke-opacity="1" stroke-miterlimit="10" d="M 257.105469 219.25 L 257.105469 216.507812 "/>
<g fill="rgb(30.196078%, 30.196078%, 30.196078%)" fill-opacity="1">
<use xlink:href="#glyph-0-7" x="118.253906" y="228.738281"/>
</g>
<g fill="rgb(30.196078%, 30.196078%, 30.196078%)" fill-opacity="1">
<use xlink:href="#glyph-0-8" x="253.441406" y="228.738281"/>
</g>
<g fill="rgb(0%, 0%, 0%)" fill-opacity="1">
<use xlink:href="#glyph-1-0" x="177.648438" y="243.207031"/>
<use xlink:href="#glyph-1-1" x="183.148438" y="243.207031"/>
<use xlink:href="#glyph-1-2" x="189.266113" y="243.207031"/>
<use xlink:href="#glyph-1-3" x="194.766113" y="243.207031"/>
</g>
<g fill="rgb(0%, 0%, 0%)" fill-opacity="1">
<use xlink:href="#glyph-2-0" x="14.351562" y="121.085938"/>
<use xlink:href="#glyph-2-1" x="14.351562" y="118.029785"/>
<use xlink:href="#glyph-2-2" x="14.351562" y="111.912109"/>
<use xlink:href="#glyph-2-2" x="14.351562" y="109.468262"/>
<use xlink:href="#glyph-2-1" x="14.351562" y="107.024414"/>
</g>
<path fill-rule="nonzero" fill="rgb(100%, 100%, 100%)" fill-opacity="1" d="M 349.472656 142.589844 L 390.519531 142.589844 L 390.519531 79.402344 L 349.472656 79.402344 Z M 349.472656 142.589844 "/>
<g fill="rgb(0%, 0%, 0%)" fill-opacity="1">
<use xlink:href="#glyph-1-0" x="354.953125" y="95.410156"/>
<use xlink:href="#glyph-1-1" x="360.453125" y="95.410156"/>
<use xlink:href="#glyph-1-2" x="366.570801" y="95.410156"/>
<use xlink:href="#glyph-1-3" x="372.070801" y="95.410156"/>
</g>
<path fill-rule="nonzero" fill="rgb(92.156863%, 92.156863%, 92.156863%)" fill-opacity="1" d="M 354.953125 119.828125 L 372.234375 119.828125 L 372.234375 102.546875 L 354.953125 102.546875 Z M 354.953125 119.828125 "/>
<path fill-rule="nonzero" fill="rgb(97.254902%, 46.27451%, 42.745098%)" fill-opacity="1" stroke-width="0.708661" stroke-linecap="round" stroke-linejoin="round" stroke="rgb(97.254902%, 46.27451%, 42.745098%)" stroke-opacity="1" stroke-miterlimit="10" d="M 365.546875 111.1875 C 365.546875 113.792969 361.636719 113.792969 361.636719 111.1875 C 361.636719 108.582031 365.546875 108.582031 365.546875 111.1875 "/>
<path fill-rule="nonzero" fill="rgb(92.156863%, 92.156863%, 92.156863%)" fill-opacity="1" d="M 354.953125 137.109375 L 372.234375 137.109375 L 372.234375 119.828125 L 354.953125 119.828125 Z M 354.953125 137.109375 "/>
<path fill-rule="nonzero" fill="rgb(0%, 74.901961%, 76.862745%)" fill-opacity="1" stroke-width="0.708661" stroke-linecap="round" stroke-linejoin="round" stroke="rgb(0%, 74.901961%, 76.862745%)" stroke-opacity="1" stroke-miterlimit="10" d="M 365.546875 128.46875 C 365.546875 131.074219 361.636719 131.074219 361.636719 128.46875 C 361.636719 125.863281 365.546875 125.863281 365.546875 128.46875 "/>
<g fill="rgb(0%, 0%, 0%)" fill-opacity="1">
<use xlink:href="#glyph-0-7" x="377.710938" y="114.839844"/>
</g>
<g fill="rgb(0%, 0%, 0%)" fill-opacity="1">
<use xlink:href="#glyph-0-8" x="377.710938" y="132.117188"/>
</g>
</svg>
