<?xml version="1.0" encoding="UTF-8"?>
<svg xmlns="http://www.w3.org/2000/svg" xmlns:xlink="http://www.w3.org/1999/xlink" width="396pt" height="252pt" viewBox="0 0 396 252">
<defs>
<g>
<g id="glyph-0-0">
<path d="M 0.863281 0 L 0.863281 -7.875 L 4.355469 -7.875 C 5.054688 -7.875 5.589844 -7.800781 5.957031 -7.660156 C 6.320312 -7.515625 6.613281 -7.265625 6.832031 -6.910156 C 7.050781 -6.550781 7.160156 -6.15625 7.160156 -5.726562 C 7.160156 -5.164062 6.976562 -4.695312 6.617188 -4.3125 C 6.25 -3.929688 5.691406 -3.683594 4.941406 -3.582031 C 5.214844 -3.445312 5.425781 -3.316406 5.570312 -3.191406 C 5.871094 -2.910156 6.160156 -2.5625 6.433594 -2.144531 L 7.804688 0 L 6.492188 0 L 5.453125 -1.636719 C 5.144531 -2.105469 4.894531 -2.46875 4.699219 -2.722656 C 4.503906 -2.96875 4.328125 -3.144531 4.171875 -3.246094 C 4.015625 -3.347656 3.855469 -3.417969 3.695312 -3.460938 C 3.574219 -3.480469 3.382812 -3.492188 3.117188 -3.496094 L 1.90625 -3.496094 L 1.90625 0 Z M 1.90625 -4.398438 L 4.148438 -4.398438 C 4.621094 -4.394531 4.992188 -4.445312 5.261719 -4.546875 C 5.53125 -4.644531 5.734375 -4.800781 5.875 -5.019531 C 6.011719 -5.234375 6.082031 -5.46875 6.085938 -5.726562 C 6.082031 -6.09375 5.945312 -6.402344 5.679688 -6.644531 C 5.40625 -6.882812 4.980469 -7 4.398438 -7.003906 L 1.90625 -7.003906 Z M 1.90625 -4.398438 "/>
</g>
<g id="glyph-0-1">
<path d="M 0.132812 -3.9375 C 0.152344 -4.140625 0.238281 -4.34375 0.386719 -4.550781 C 0.613281 -4.855469 0.984375 -5.195312 1.5 -5.570312 C 2.015625 -5.941406 2.320312 -6.183594 2.417969 -6.296875 C 2.546875 -6.441406 2.613281 -6.589844 2.617188 -6.746094 C 2.613281 -6.914062 2.550781 -7.054688 2.425781 -7.167969 C 2.300781 -7.277344 2.117188 -7.335938 1.875 -7.335938 C 1.636719 -7.335938 1.457031 -7.292969 1.34375 -7.210938 C 1.226562 -7.125 1.132812 -6.964844 1.058594 -6.726562 L 0.246094 -6.8125 C 0.347656 -7.207031 0.527344 -7.5 0.785156 -7.6875 C 1.042969 -7.875 1.410156 -7.96875 1.890625 -7.96875 C 2.429688 -7.96875 2.828125 -7.863281 3.082031 -7.652344 C 3.332031 -7.441406 3.457031 -7.183594 3.460938 -6.878906 C 3.457031 -6.578125 3.351562 -6.292969 3.140625 -6.027344 C 2.976562 -5.824219 2.609375 -5.519531 2.039062 -5.109375 C 1.742188 -4.890625 1.53125 -4.714844 1.40625 -4.585938 L 3.480469 -4.585938 L 3.480469 -3.9375 Z M 0.132812 -3.9375 "/>
</g>
<g id="glyph-0-2">
</g>
<g id="glyph-0-3">
<path d="M 5.8125 -4.628906 L 0.613281 -4.628906 L 0.613281 -5.53125 L 5.8125 -5.53125 Z M 5.8125 -2.238281 L 0.613281 -2.238281 L 0.613281 -3.140625 L 5.8125 -3.140625 Z M 5.8125 -2.238281 "/>
</g>
<g id="glyph-0-4">
<path d="M 0.457031 -3.882812 C 0.457031 -4.8125 0.550781 -5.5625 0.742188 -6.132812 C 0.933594 -6.699219 1.21875 -7.136719 1.597656 -7.445312 C 1.972656 -7.75 2.449219 -7.902344 3.023438 -7.90625 C 3.445312 -7.902344 3.8125 -7.816406 4.132812 -7.648438 C 4.449219 -7.476562 4.714844 -7.234375 4.925781 -6.914062 C 5.132812 -6.59375 5.296875 -6.203125 5.414062 -5.742188 C 5.53125 -5.28125 5.589844 -4.660156 5.589844 -3.882812 C 5.589844 -2.957031 5.492188 -2.210938 5.304688 -1.644531 C 5.113281 -1.078125 4.832031 -0.640625 4.457031 -0.332031 C 4.078125 -0.0234375 3.601562 0.128906 3.023438 0.132812 C 2.265625 0.128906 1.667969 -0.140625 1.234375 -0.683594 C 0.714844 -1.335938 0.457031 -2.402344 0.457031 -3.882812 Z M 1.449219 -3.882812 C 1.445312 -2.589844 1.597656 -1.730469 1.902344 -1.300781 C 2.203125 -0.871094 2.578125 -0.65625 3.023438 -0.660156 C 3.46875 -0.65625 3.839844 -0.871094 4.144531 -1.304688 C 4.441406 -1.730469 4.59375 -2.589844 4.597656 -3.882812 C 4.59375 -5.175781 4.441406 -6.035156 4.144531 -6.464844 C 3.839844 -6.886719 3.464844 -7.101562 3.011719 -7.105469 C 2.566406 -7.101562 2.210938 -6.914062 1.949219 -6.542969 C 1.613281 -6.058594 1.445312 -5.171875 1.449219 -3.882812 Z M 1.449219 -3.882812 "/>
</g>
<g id="glyph-0-5">
<path d="M 1 0 L 1 -1.101562 L 2.101562 -1.101562 L 2.101562 0 Z M 1 0 "/>
</g>
<g id="glyph-0-6">
<path d="M 1.945312 -4.269531 C 1.542969 -4.414062 1.242188 -4.625 1.050781 -4.898438 C 0.855469 -5.167969 0.761719 -5.492188 0.761719 -5.875 C 0.761719 -6.445312 0.964844 -6.925781 1.378906 -7.320312 C 1.789062 -7.707031 2.339844 -7.902344 3.023438 -7.90625 C 3.710938 -7.902344 4.261719 -7.703125 4.683594 -7.304688 C 5.097656 -6.902344 5.308594 -6.417969 5.3125 -5.847656 C 5.308594 -5.480469 5.210938 -5.160156 5.023438 -4.894531 C 4.828125 -4.621094 4.539062 -4.414062 4.152344 -4.269531 C 4.632812 -4.109375 5 -3.855469 5.253906 -3.507812 C 5.503906 -3.152344 5.628906 -2.734375 5.632812 -2.25 C 5.628906 -1.578125 5.390625 -1.011719 4.917969 -0.554688 C 4.441406 -0.0976562 3.816406 0.128906 3.039062 0.132812 C 2.261719 0.128906 1.636719 -0.0976562 1.160156 -0.554688 C 0.683594 -1.011719 0.445312 -1.585938 0.445312 -2.277344 C 0.445312 -2.789062 0.574219 -3.21875 0.835938 -3.5625 C 1.09375 -3.90625 1.464844 -4.140625 1.945312 -4.269531 Z M 1.75 -5.90625 C 1.746094 -5.535156 1.867188 -5.230469 2.109375 -4.996094 C 2.347656 -4.757812 2.660156 -4.640625 3.046875 -4.640625 C 3.417969 -4.640625 3.722656 -4.757812 3.960938 -4.992188 C 4.199219 -5.226562 4.316406 -5.511719 4.320312 -5.855469 C 4.316406 -6.207031 4.195312 -6.503906 3.949219 -6.746094 C 3.703125 -6.984375 3.398438 -7.105469 3.035156 -7.109375 C 2.664062 -7.105469 2.355469 -6.988281 2.113281 -6.753906 C 1.867188 -6.515625 1.746094 -6.234375 1.75 -5.90625 Z M 1.4375 -2.273438 C 1.433594 -1.996094 1.5 -1.726562 1.632812 -1.472656 C 1.761719 -1.210938 1.957031 -1.011719 2.21875 -0.871094 C 2.472656 -0.726562 2.75 -0.65625 3.050781 -0.660156 C 3.507812 -0.65625 3.886719 -0.804688 4.191406 -1.105469 C 4.488281 -1.398438 4.640625 -1.777344 4.644531 -2.238281 C 4.640625 -2.703125 4.484375 -3.085938 4.179688 -3.394531 C 3.867188 -3.695312 3.480469 -3.847656 3.019531 -3.851562 C 2.558594 -3.847656 2.183594 -3.699219 1.886719 -3.398438 C 1.585938 -3.097656 1.433594 -2.722656 1.4375 -2.273438 Z M 1.4375 -2.273438 "/>
</g>
<g id="glyph-0-7">
<path d="M 0.457031 -2.0625 L 1.472656 -2.148438 C 1.542969 -1.652344 1.71875 -1.28125 1.996094 -1.03125 C 2.265625 -0.78125 2.59375 -0.65625 2.984375 -0.660156 C 3.445312 -0.65625 3.839844 -0.832031 4.167969 -1.1875 C 4.488281 -1.535156 4.652344 -2 4.652344 -2.582031 C 4.652344 -3.132812 4.496094 -3.566406 4.1875 -3.886719 C 3.875 -4.203125 3.46875 -4.363281 2.96875 -4.367188 C 2.65625 -4.363281 2.375 -4.292969 2.125 -4.152344 C 1.871094 -4.007812 1.675781 -3.824219 1.535156 -3.605469 L 0.628906 -3.722656 L 1.390625 -7.765625 L 5.304688 -7.765625 L 5.304688 -6.84375 L 2.164062 -6.84375 L 1.742188 -4.726562 C 2.210938 -5.050781 2.707031 -5.214844 3.226562 -5.21875 C 3.910156 -5.214844 4.488281 -4.976562 4.964844 -4.503906 C 5.433594 -4.027344 5.671875 -3.414062 5.675781 -2.667969 C 5.671875 -1.953125 5.464844 -1.339844 5.054688 -0.820312 C 4.546875 -0.1875 3.855469 0.128906 2.984375 0.132812 C 2.265625 0.128906 1.683594 -0.0703125 1.234375 -0.46875 C 0.777344 -0.867188 0.519531 -1.398438 0.457031 -2.0625 Z M 0.457031 -2.0625 "/>
</g>
<g id="glyph-0-8">
<path d="M 0.601562 -1.820312 L 1.53125 -1.90625 C 1.605469 -1.464844 1.757812 -1.148438 1.980469 -0.953125 C 2.203125 -0.753906 2.488281 -0.65625 2.835938 -0.660156 C 3.132812 -0.65625 3.390625 -0.722656 3.617188 -0.863281 C 3.835938 -0.996094 4.019531 -1.179688 4.167969 -1.410156 C 4.308594 -1.632812 4.429688 -1.9375 4.527344 -2.328125 C 4.621094 -2.710938 4.667969 -3.105469 4.671875 -3.511719 C 4.667969 -3.550781 4.667969 -3.617188 4.667969 -3.707031 C 4.472656 -3.394531 4.207031 -3.144531 3.875 -2.953125 C 3.539062 -2.761719 3.179688 -2.664062 2.789062 -2.667969 C 2.132812 -2.664062 1.578125 -2.902344 1.132812 -3.375 C 0.679688 -3.847656 0.457031 -4.46875 0.457031 -5.246094 C 0.457031 -6.042969 0.691406 -6.6875 1.160156 -7.175781 C 1.628906 -7.660156 2.21875 -7.902344 2.933594 -7.90625 C 3.441406 -7.902344 3.910156 -7.765625 4.335938 -7.492188 C 4.757812 -7.214844 5.078125 -6.820312 5.300781 -6.3125 C 5.519531 -5.796875 5.628906 -5.058594 5.632812 -4.097656 C 5.628906 -3.089844 5.519531 -2.289062 5.304688 -1.695312 C 5.085938 -1.09375 4.761719 -0.640625 4.332031 -0.332031 C 3.894531 -0.0234375 3.390625 0.128906 2.8125 0.132812 C 2.195312 0.128906 1.691406 -0.0390625 1.304688 -0.378906 C 0.910156 -0.71875 0.675781 -1.199219 0.601562 -1.820312 Z M 4.558594 -5.296875 C 4.558594 -5.851562 4.410156 -6.289062 4.113281 -6.617188 C 3.816406 -6.9375 3.460938 -7.101562 3.050781 -7.105469 C 2.617188 -7.101562 2.242188 -6.925781 1.925781 -6.578125 C 1.605469 -6.226562 1.445312 -5.773438 1.449219 -5.214844 C 1.445312 -4.714844 1.597656 -4.304688 1.902344 -3.992188 C 2.203125 -3.675781 2.578125 -3.519531 3.023438 -3.523438 C 3.46875 -3.519531 3.835938 -3.675781 4.125 -3.992188 C 4.414062 -4.304688 4.558594 -4.742188 4.558594 -5.296875 Z M 4.558594 -5.296875 "/>
</g>
<g id="glyph-1-0">
<path d="M 0.375 -3.175781 C 0.375 -3.9375 0.453125 -4.550781 0.609375 -5.015625 C 0.765625 -5.476562 0.996094 -5.832031 1.304688 -6.089844 C 1.613281 -6.339844 2.003906 -6.46875 2.472656 -6.46875 C 2.816406 -6.46875 3.117188 -6.398438 3.382812 -6.257812 C 3.640625 -6.117188 3.855469 -5.914062 4.027344 -5.65625 C 4.195312 -5.390625 4.332031 -5.074219 4.429688 -4.699219 C 4.523438 -4.324219 4.570312 -3.816406 4.574219 -3.175781 C 4.570312 -2.417969 4.492188 -1.804688 4.339844 -1.34375 C 4.183594 -0.875 3.953125 -0.519531 3.644531 -0.269531 C 3.332031 -0.0195312 2.941406 0.105469 2.472656 0.109375 C 1.851562 0.105469 1.363281 -0.113281 1.011719 -0.558594 C 0.585938 -1.089844 0.375 -1.964844 0.375 -3.175781 Z M 1.1875 -3.175781 C 1.183594 -2.117188 1.308594 -1.410156 1.558594 -1.0625 C 1.804688 -0.710938 2.109375 -0.539062 2.472656 -0.539062 C 2.835938 -0.539062 3.140625 -0.714844 3.390625 -1.066406 C 3.636719 -1.417969 3.761719 -2.121094 3.761719 -3.175781 C 3.761719 -4.238281 3.636719 -4.941406 3.390625 -5.289062 C 3.140625 -5.636719 2.832031 -5.8125 2.464844 -5.8125 C 2.101562 -5.8125 1.8125 -5.65625 1.59375 -5.351562 C 1.320312 -4.957031 1.183594 -4.234375 1.1875 -3.175781 Z M 1.1875 -3.175781 "/>
</g>
<g id="glyph-1-1">
<path d="M 0.375 -1.6875 L 1.203125 -1.757812 C 1.261719 -1.351562 1.40625 -1.046875 1.632812 -0.84375 C 1.855469 -0.640625 2.125 -0.539062 2.445312 -0.539062 C 2.820312 -0.539062 3.144531 -0.679688 3.410156 -0.96875 C 3.671875 -1.253906 3.800781 -1.636719 3.804688 -2.113281 C 3.800781 -2.5625 3.675781 -2.917969 3.425781 -3.179688 C 3.171875 -3.441406 2.839844 -3.574219 2.429688 -3.574219 C 2.171875 -3.574219 1.941406 -3.515625 1.738281 -3.398438 C 1.53125 -3.28125 1.371094 -3.128906 1.257812 -2.949219 L 0.515625 -3.046875 L 1.136719 -6.355469 L 4.34375 -6.355469 L 4.34375 -5.597656 L 1.769531 -5.597656 L 1.421875 -3.867188 C 1.808594 -4.136719 2.214844 -4.269531 2.640625 -4.273438 C 3.199219 -4.269531 3.671875 -4.074219 4.0625 -3.6875 C 4.445312 -3.292969 4.640625 -2.792969 4.644531 -2.183594 C 4.640625 -1.597656 4.472656 -1.09375 4.136719 -0.671875 C 3.722656 -0.152344 3.15625 0.105469 2.445312 0.109375 C 1.851562 0.105469 1.375 -0.0546875 1.007812 -0.382812 C 0.636719 -0.707031 0.425781 -1.144531 0.375 -1.6875 Z M 0.375 -1.6875 "/>
</g>
<g id="glyph-1-2">
<path d="M 3.351562 0 L 2.5625 0 L 2.5625 -5.039062 C 2.367188 -4.859375 2.117188 -4.675781 1.8125 -4.496094 C 1.5 -4.308594 1.222656 -4.171875 0.980469 -4.085938 L 0.980469 -4.851562 C 1.417969 -5.058594 1.804688 -5.308594 2.140625 -5.605469 C 2.46875 -5.898438 2.703125 -6.1875 2.84375 -6.46875 L 3.351562 -6.46875 Z M 3.351562 0 "/>
</g>
<g id="glyph-1-3">
<path d="M 4.53125 -0.761719 L 4.53125 0 L 0.273438 0 C 0.265625 -0.1875 0.296875 -0.371094 0.363281 -0.550781 C 0.472656 -0.839844 0.644531 -1.125 0.882812 -1.40625 C 1.121094 -1.6875 1.46875 -2.011719 1.921875 -2.382812 C 2.617188 -2.953125 3.089844 -3.40625 3.339844 -3.746094 C 3.585938 -4.078125 3.707031 -4.398438 3.710938 -4.699219 C 3.707031 -5.011719 3.59375 -5.273438 3.371094 -5.488281 C 3.144531 -5.703125 2.855469 -5.8125 2.496094 -5.8125 C 2.113281 -5.8125 1.808594 -5.695312 1.582031 -5.46875 C 1.351562 -5.238281 1.234375 -4.925781 1.234375 -4.523438 L 0.421875 -4.605469 C 0.476562 -5.210938 0.683594 -5.671875 1.046875 -5.992188 C 1.410156 -6.308594 1.898438 -6.46875 2.515625 -6.46875 C 3.128906 -6.46875 3.617188 -6.296875 3.980469 -5.953125 C 4.339844 -5.609375 4.523438 -5.183594 4.523438 -4.679688 C 4.523438 -4.417969 4.46875 -4.164062 4.363281 -3.917969 C 4.257812 -3.667969 4.082031 -3.40625 3.839844 -3.132812 C 3.589844 -2.855469 3.183594 -2.476562 2.617188 -2 C 2.140625 -1.597656 1.835938 -1.328125 1.703125 -1.1875 C 1.566406 -1.042969 1.457031 -0.902344 1.371094 -0.761719 Z M 4.53125 -0.761719 "/>
</g>
<g id="glyph-1-4">
<path d="M 0.425781 -5.597656 L 0.425781 -6.359375 L 4.597656 -6.359375 L 4.597656 -5.742188 C 4.183594 -5.304688 3.777344 -4.722656 3.375 -4.003906 C 2.972656 -3.277344 2.660156 -2.535156 2.445312 -1.769531 C 2.28125 -1.230469 2.179688 -0.640625 2.140625 0 L 1.328125 0 C 1.332031 -0.507812 1.429688 -1.117188 1.625 -1.835938 C 1.8125 -2.550781 2.085938 -3.246094 2.445312 -3.914062 C 2.796875 -4.578125 3.175781 -5.136719 3.582031 -5.597656 Z M 0.425781 -5.597656 "/>
</g>
<g id="glyph-2-0">
<path d="M 0.0585938 0 L 1.929688 -2.671875 L 0.136719 -5.1875 L 1.8125 -5.1875 L 2.730469 -3.757812 L 3.695312 -5.1875 L 5.308594 -5.1875 L 3.550781 -2.730469 L 5.46875 0 L 3.785156 0 L 2.730469 -1.605469 L 1.664062 0 Z M 0.0585938 0 "/>
</g>
<g id="glyph-3-0">
<path d="M -5.1875 -0.0703125 L -5.1875 -1.527344 L -1.503906 -2.769531 L -5.1875 -3.980469 L -5.1875 -5.398438 L -0.195312 -3.570312 L 0.707031 -3.242188 C 1.007812 -3.117188 1.238281 -3.003906 1.402344 -2.898438 C 1.558594 -2.785156 1.6875 -2.660156 1.789062 -2.519531 C 1.882812 -2.378906 1.960938 -2.203125 2.019531 -1.996094 C 2.074219 -1.789062 2.101562 -1.554688 2.105469 -1.296875 C 2.101562 -1.03125 2.074219 -0.773438 2.023438 -0.523438 L 0.945312 -0.398438 C 0.984375 -0.613281 1.007812 -0.804688 1.011719 -0.980469 C 1.007812 -1.296875 0.914062 -1.535156 0.730469 -1.6875 C 0.539062 -1.839844 0.300781 -1.957031 0.015625 -2.039062 Z M -5.1875 -0.0703125 "/>
</g>
</g>
<clipPath id="clip-0">
<path clip-rule="nonzero" d="M 37.429688 215 L 390.519531 215 L 390.519531 217 L 37.429688 217 Z M 37.429688 215 "/>
</clipPath>
<clipPath id="clip-1">
<path clip-rule="nonzero" d="M 37.429688 155 L 390.519531 155 L 390.519531 156 L 37.429688 156 Z M 37.429688 155 "/>
</clipPath>
<clipPath id="clip-2">
<path clip-rule="nonzero" d="M 37.429688 94 L 390.519531 94 L 390.519531 96 L 37.429688 96 Z M 37.429688 94 "/>
</clipPath>
<clipPath id="clip-3">
<path clip-rule="nonzero" d="M 37.429688 34 L 390.519531 34 L 390.519531 35 L 37.429688 35 Z M 37.429688 34 "/>
</clipPath>
<clipPath id="clip-4">
<path clip-rule="nonzero" d="M 90 5.480469 L 92 5.480469 L 92 221.25 L 90 221.25 Z M 90 5.480469 "/>
</clipPath>
<clipPath id="clip-5">
<path clip-rule="nonzero" d="M 171 5.480469 L 173 5.480469 L 173 221.25 L 171 221.25 Z M 171 5.480469 "/>
</clipPath>
<clipPath id="clip-6">
<path clip-rule="nonzero" d="M 252 5.480469 L 254 5.480469 L 254 221.25 L 252 221.25 Z M 252 5.480469 "/>
</clipPath>
<clipPath id="clip-7">
<path clip-rule="nonzero" d="M 333 5.480469 L 335 5.480469 L 335 221.25 L 333 221.25 Z M 333 5.480469 "/>
</clipPath>
<clipPath id="clip-8">
<path clip-rule="nonzero" d="M 37.429688 185 L 390.519531 185 L 390.519531 187 L 37.429688 187 Z M 37.429688 185 "/>
</clipPath>
<clipPath id="clip-9">
<path clip-rule="nonzero" d="M 37.429688 124 L 390.519531 124 L 390.519531 126 L 37.429688 126 Z M 37.429688 124 "/>
</clipPath>
<clipPath id="clip-10">
<path clip-rule="nonzero" d="M 37.429688 64 L 390.519531 64 L 390.519531 66 L 37.429688 66 Z M 37.429688 64 "/>
</clipPath>
<clipPath id="clip-11">
<path clip-rule="nonzero" d="M 49 5.480469 L 51 5.480469 L 51 221.25 L 49 221.25 Z M 49 5.480469 "/>
</clipPath>
<clipPath id="clip-12">
<path clip-rule="nonzero" d="M 130 5.480469 L 132 5.480469 L 132 221.25 L 130 221.25 Z M 130 5.480469 "/>
</clipPath>
<clipPath id="clip-13">
<path clip-rule="nonzero" d="M 211 5.480469 L 213 5.480469 L 213 221.25 L 211 221.25 Z M 211 5.480469 "/>
</clipPath>
<clipPath id="clip-14">
<path clip-rule="nonzero" d="M 292 5.480469 L 294 5.480469 L 294 221.25 L 292 221.25 Z M 292 5.480469 "/>
</clipPath>
<clipPath id="clip-15">
<path clip-rule="nonzero" d="M 373 5.480469 L 376 5.480469 L 376 221.25 L 373 221.25 Z M 373 5.480469 "/>
</clipPath>
</defs>
<rect x="-39.6" y="-25.2" width="475.2" height="302.4" fill="rgb(100%, 100%, 100%)" fill-opacity="1"/>
<rect x="-39.6" y="-25.2" width="475.2" height="302.4" fill="rgb(100%, 100%, 100%)" fill-opacity="1"/>
<g clip-path="url(#clip-0)">
<path fill="none" stroke-width="0.533489" stroke-linecap="butt" stroke-linejoin="round" stroke="rgb(92.156863%, 92.156863%, 92.156863%)" stroke-opacity="1" stroke-miterlimit="10" d="M 37.429688 215.882812 L 390.519531 215.882812 "/>
</g>
<g clip-path="url(#clip-1)">
<path fill="none" stroke-width="0.533489" stroke-linecap="butt" stroke-linejoin="round" stroke="rgb(92.156863%, 92.156863%, 92.156863%)" stroke-opacity="1" stroke-miterlimit="10" d="M 37.429688 155.367188 L 390.519531 155.367188 "/>
</g>
<g clip-path="url(#clip-2)">
<path fill="none" stroke-width="0.533489" stroke-linecap="butt" stroke-linejoin="round" stroke="rgb(92.156863%, 92.156863%, 92.156863%)" stroke-opacity="1" stroke-miterlimit="10" d="M 37.429688 94.855469 L 390.519531 94.855469 "/>
</g>
<g clip-path="url(#clip-3)">
<path fill="none" stroke-width="0.533489" stroke-linecap="butt" stroke-linejoin="round" stroke="rgb(92.156863%, 92.156863%, 92.156863%)" stroke-opacity="1" stroke-miterlimit="10" d="M 37.429688 34.34375 L 390.519531 34.34375 "/>
</g>
<g clip-path="url(#clip-4)">
<path fill="none" stroke-width="0.533489" stroke-linecap="butt" stroke-linejoin="round" stroke="rgb(92.156863%, 92.156863%, 92.156863%)" stroke-opacity="1" stroke-miterlimit="10" d="M 90.765625 221.25 L 90.765625 5.480469 "/>
</g>
<g clip-path="url(#clip-5)">
<path fill="none" stroke-width="0.533489" stroke-linecap="butt" stroke-linejoin="round" stroke="rgb(92.156863%, 92.156863%, 92.156863%)" stroke-opacity="1" stroke-miterlimit="10" d="M 171.824219 221.25 L 171.824219 5.480469 "/>
</g>
<g clip-path="url(#clip-6)">
<path fill="none" stroke-width="0.533489" stroke-linecap="butt" stroke-linejoin="round" stroke="rgb(92.156863%, 92.156863%, 92.156863%)" stroke-opacity="1" stroke-miterlimit="10" d="M 252.882812 221.25 L 252.882812 5.480469 "/>
</g>
<g clip-path="url(#clip-7)">
<path fill="none" stroke-width="0.533489" stroke-linecap="butt" stroke-linejoin="round" stroke="rgb(92.156863%, 92.156863%, 92.156863%)" stroke-opacity="1" stroke-miterlimit="10" d="M 333.941406 221.25 L 333.941406 5.480469 "/>
</g>
<g clip-path="url(#clip-8)">
<path fill="none" stroke-width="1.066978" stroke-linecap="butt" stroke-linejoin="round" stroke="rgb(92.156863%, 92.156863%, 92.156863%)" stroke-opacity="1" stroke-miterlimit="10" d="M 37.429688 185.625 L 390.519531 185.625 "/>
</g>
<g clip-path="url(#clip-9)">
<path fill="none" stroke-width="1.066978" stroke-linecap="butt" stroke-linejoin="round" stroke="rgb(92.156863%, 92.156863%, 92.156863%)" stroke-opacity="1" stroke-miterlimit="10" d="M 37.429688 125.113281 L 390.519531 125.113281 "/>
</g>
<g clip-path="url(#clip-10)">
<path fill="none" stroke-width="1.066978" stroke-linecap="butt" stroke-linejoin="round" stroke="rgb(92.156863%, 92.156863%, 92.156863%)" stroke-opacity="1" stroke-miterlimit="10" d="M 37.429688 64.601562 L 390.519531 64.601562 "/>
</g>
<g clip-path="url(#clip-11)">
<path fill="none" stroke-width="1.066978" stroke-linecap="butt" stroke-linejoin="round" stroke="rgb(92.156863%, 92.156863%, 92.156863%)" stroke-opacity="1" stroke-miterlimit="10" d="M 50.238281 221.25 L 50.238281 5.480469 "/>
</g>
<g clip-path="url(#clip-12)">
<path fill="none" stroke-width="1.066978" stroke-linecap="butt" stroke-linejoin="round" stroke="rgb(92.156863%, 92.156863%, 92.156863%)" stroke-opacity="1" stroke-miterlimit="10" d="M 131.296875 221.25 L 131.296875 5.480469 "/>
</g>
<g clip-path="url(#clip-13)">
<path fill="none" stroke-width="1.066978" stroke-linecap="butt" stroke-linejoin="round" stroke="rgb(92.156863%, 92.156863%, 92.156863%)" stroke-opacity="1" stroke-miterlimit="10" d="M 212.355469 221.25 L 212.355469 5.480469 "/>
</g>
<g clip-path="url(#clip-14)">
<path fill="none" stroke-width="1.066978" stroke-linecap="butt" stroke-linejoin="round" stroke="rgb(92.156863%, 92.156863%, 92.156863%)" stroke-opacity="1" stroke-miterlimit="10" d="M 293.414062 221.25 L 293.414062 5.480469 "/>
</g>
<g clip-path="url(#clip-15)">
<path fill="none" stroke-width="1.066978" stroke-linecap="butt" stroke-linejoin="round" stroke="rgb(92.156863%, 92.156863%, 92.156863%)" stroke-opacity="1" stroke-miterlimit="10" d="M 374.472656 221.25 L 374.472656 5.480469 "/>
</g>
<path fill-rule="nonzero" fill="rgb(31.372549%, 13.72549%, 27.058824%)" fill-opacity="0.8" stroke-width="0.708661" stroke-linecap="round" stroke-linejoin="round" stroke="rgb(31.372549%, 13.72549%, 27.058824%)" stroke-opacity="0.8" stroke-miterlimit="10" d="M 57.035156 197.980469 C 57.035156 202.722656 49.921875 202.722656 49.921875 197.980469 C 49.921875 193.242188 57.035156 193.242188 57.035156 197.980469 "/>
<path fill-rule="nonzero" fill="rgb(31.372549%, 13.72549%, 27.058824%)" fill-opacity="0.8" stroke-width="0.708661" stroke-linecap="round" stroke-linejoin="round" stroke="rgb(31.372549%, 13.72549%, 27.058824%)" stroke-opacity="0.8" stroke-miterlimit="10" d="M 60.277344 188.777344 C 60.277344 193.515625 53.167969 193.515625 53.167969 188.777344 C 53.167969 184.035156 60.277344 184.035156 60.277344 188.777344 "/>
<path fill-rule="nonzero" fill="rgb(31.372549%, 13.72549%, 27.058824%)" fill-opacity="0.8" stroke-width="0.708661" stroke-linecap="round" stroke-linejoin="round" stroke="rgb(31.372549%, 13.72549%, 27.058824%)" stroke-opacity="0.8" stroke-miterlimit="10" d="M 63.519531 144.265625 C 63.519531 149.007812 56.410156 149.007812 56.410156 144.265625 C 56.410156 139.527344 63.519531 139.527344 63.519531 144.265625 "/>
<path fill-rule="nonzero" fill="rgb(31.372549%, 13.72549%, 27.058824%)" fill-opacity="0.8" stroke-width="0.708661" stroke-linecap="round" stroke-linejoin="round" stroke="rgb(31.372549%, 13.72549%, 27.058824%)" stroke-opacity="0.8" stroke-miterlimit="10" d="M 66.761719 179.078125 C 66.761719 183.816406 59.652344 183.816406 59.652344 179.078125 C 59.652344 174.335938 66.761719 174.335938 66.761719 179.078125 "/>
<path fill-rule="nonzero" fill="rgb(31.372549%, 13.72549%, 27.058824%)" fill-opacity="0.8" stroke-width="0.708661" stroke-linecap="round" stroke-linejoin="round" stroke="rgb(31.372549%, 13.72549%, 27.058824%)" stroke-opacity="0.8" stroke-miterlimit="10" d="M 70.003906 176.445312 C 70.003906 181.183594 62.894531 181.183594 62.894531 176.445312 C 62.894531 171.703125 70.003906 171.703125 70.003906 176.445312 "/>
<path fill-rule="nonzero" fill="rgb(31.372549%, 13.72549%, 27.058824%)" fill-opacity="0.8" stroke-width="0.708661" stroke-linecap="round" stroke-linejoin="round" stroke="rgb(31.372549%, 13.72549%, 27.058824%)" stroke-opacity="0.8" stroke-miterlimit="10" d="M 73.246094 136.851562 C 73.246094 141.589844 66.136719 141.589844 66.136719 136.851562 C 66.136719 132.109375 73.246094 132.109375 73.246094 136.851562 "/>
<path fill-rule="nonzero" fill="rgb(31.372549%, 13.72549%, 27.058824%)" fill-opacity="0.8" stroke-width="0.708661" stroke-linecap="round" stroke-linejoin="round" stroke="rgb(31.372549%, 13.72549%, 27.058824%)" stroke-opacity="0.8" stroke-miterlimit="10" d="M 76.488281 165.996094 C 76.488281 170.738281 69.378906 170.738281 69.378906 165.996094 C 69.378906 161.257812 76.488281 161.257812 76.488281 165.996094 "/>
<path fill-rule="nonzero" fill="rgb(31.372549%, 13.72549%, 27.058824%)" fill-opacity="0.8" stroke-width="0.708661" stroke-linecap="round" stroke-linejoin="round" stroke="rgb(31.372549%, 13.72549%, 27.058824%)" stroke-opacity="0.8" stroke-miterlimit="10" d="M 79.730469 206.5625 C 79.730469 211.304688 72.621094 211.304688 72.621094 206.5625 C 72.621094 201.824219 79.730469 201.824219 79.730469 206.5625 "/>
<path fill-rule="nonzero" fill="rgb(31.372549%, 13.72549%, 27.058824%)" fill-opacity="0.8" stroke-width="0.708661" stroke-linecap="round" stroke-linejoin="round" stroke="rgb(31.372549%, 13.72549%, 27.058824%)" stroke-opacity="0.8" stroke-miterlimit="10" d="M 82.972656 191.359375 C 82.972656 196.097656 75.863281 196.097656 75.863281 191.359375 C 75.863281 186.617188 82.972656 186.617188 82.972656 191.359375 "/>
<path fill-rule="nonzero" fill="rgb(31.372549%, 13.72549%, 27.058824%)" fill-opacity="0.8" stroke-width="0.708661" stroke-linecap="round" stroke-linejoin="round" stroke="rgb(31.372549%, 13.72549%, 27.058824%)" stroke-opacity="0.8" stroke-miterlimit="10" d="M 86.214844 184.308594 C 86.214844 189.050781 79.105469 189.050781 79.105469 184.308594 C 79.105469 179.570312 86.214844 179.570312 86.214844 184.308594 "/>
<path fill-rule="nonzero" fill="rgb(31.372549%, 13.72549%, 27.058824%)" fill-opacity="0.8" stroke-width="0.708661" stroke-linecap="round" stroke-linejoin="round" stroke="rgb(31.372549%, 13.72549%, 27.058824%)" stroke-opacity="0.8" stroke-miterlimit="10" d="M 89.457031 142.683594 C 89.457031 147.425781 82.347656 147.425781 82.347656 142.683594 C 82.347656 137.941406 89.457031 137.941406 89.457031 142.683594 "/>
<path fill-rule="nonzero" fill="rgb(31.372549%, 13.72549%, 27.058824%)" fill-opacity="0.8" stroke-width="0.708661" stroke-linecap="round" stroke-linejoin="round" stroke="rgb(31.372549%, 13.72549%, 27.058824%)" stroke-opacity="0.8" stroke-miterlimit="10" d="M 92.699219 162.394531 C 92.699219 167.132812 85.589844 167.132812 85.589844 162.394531 C 85.589844 157.652344 92.699219 157.652344 92.699219 162.394531 "/>
<path fill-rule="nonzero" fill="rgb(31.372549%, 13.72549%, 27.058824%)" fill-opacity="0.8" stroke-width="0.708661" stroke-linecap="round" stroke-linejoin="round" stroke="rgb(31.372549%, 13.72549%, 27.058824%)" stroke-opacity="0.8" stroke-miterlimit="10" d="M 95.941406 160.191406 C 95.941406 164.929688 88.832031 164.929688 88.832031 160.191406 C 88.832031 155.449219 95.941406 155.449219 95.941406 160.191406 "/>
<path fill-rule="nonzero" fill="rgb(31.372549%, 13.72549%, 27.058824%)" fill-opacity="0.8" stroke-width="0.708661" stroke-linecap="round" stroke-linejoin="round" stroke="rgb(31.372549%, 13.72549%, 27.058824%)" stroke-opacity="0.8" stroke-miterlimit="10" d="M 99.183594 166.003906 C 99.183594 170.742188 92.074219 170.742188 92.074219 166.003906 C 92.074219 161.261719 99.183594 161.261719 99.183594 166.003906 "/>
<path fill-rule="nonzero" fill="rgb(31.372549%, 13.72549%, 27.058824%)" fill-opacity="0.8" stroke-width="0.708661" stroke-linecap="round" stroke-linejoin="round" stroke="rgb(31.372549%, 13.72549%, 27.058824%)" stroke-opacity="0.8" stroke-miterlimit="10" d="M 102.425781 180.925781 C 102.425781 185.664062 95.316406 185.664062 95.316406 180.925781 C 95.316406 176.183594 102.425781 176.183594 102.425781 180.925781 "/>
<path fill-rule="nonzero" fill="rgb(31.372549%, 13.72549%, 27.058824%)" fill-opacity="0.8" stroke-width="0.708661" stroke-linecap="round" stroke-linejoin="round" stroke="rgb(31.372549%, 13.72549%, 27.058824%)" stroke-opacity="0.8" stroke-miterlimit="10" d="M 105.667969 123.007812 C 105.667969 127.75 98.558594 127.75 98.558594 123.007812 C 98.558594 118.269531 105.667969 118.269531 105.667969 123.007812 "/>
<path fill-rule="nonzero" fill="rgb(31.372549%, 13.72549%, 27.058824%)" fill-opacity="0.8" stroke-width="0.708661" stroke-linecap="round" stroke-linejoin="round" stroke="rgb(31.372549%, 13.72549%, 27.058824%)" stroke-opacity="0.8" stroke-miterlimit="10" d="M 108.910156 153 C 108.910156 157.742188 101.800781 157.742188 101.800781 153 C 101.800781 148.261719 108.910156 148.261719 108.910156 153 "/>
<path fill-rule="nonzero" fill="rgb(31.372549%, 13.72549%, 27.058824%)" fill-opacity="0.8" stroke-width="0.708661" stroke-linecap="round" stroke-linejoin="round" stroke="rgb(31.372549%, 13.72549%, 27.058824%)" stroke-opacity="0.8" stroke-miterlimit="10" d="M 112.152344 211.441406 C 112.152344 216.183594 105.042969 216.183594 105.042969 211.441406 C 105.042969 206.703125 112.152344 206.703125 112.152344 211.441406 "/>
<path fill-rule="nonzero" fill="rgb(31.372549%, 13.72549%, 27.058824%)" fill-opacity="0.8" stroke-width="0.708661" stroke-linecap="round" stroke-linejoin="round" stroke="rgb(31.372549%, 13.72549%, 27.058824%)" stroke-opacity="0.8" stroke-miterlimit="10" d="M 115.398438 145.652344 C 115.398438 150.394531 108.285156 150.394531 108.285156 145.652344 C 108.285156 140.914062 115.398438 140.914062 115.398438 145.652344 "/>
<path fill-rule="nonzero" fill="rgb(31.372549%, 13.72549%, 27.058824%)" fill-opacity="0.8" stroke-width="0.708661" stroke-linecap="round" stroke-linejoin="round" stroke="rgb(31.372549%, 13.72549%, 27.058824%)" stroke-opacity="0.8" stroke-miterlimit="10" d="M 118.640625 172.863281 C 118.640625 177.605469 111.527344 177.605469 111.527344 172.863281 C 111.527344 168.125 118.640625 168.125 118.640625 172.863281 "/>
<path fill-rule="nonzero" fill="rgb(31.372549%, 13.72549%, 27.058824%)" fill-opacity="0.8" stroke-width="0.708661" stroke-linecap="round" stroke-linejoin="round" stroke="rgb(31.372549%, 13.72549%, 27.058824%)" stroke-opacity="0.8" stroke-miterlimit="10" d="M 121.882812 186.054688 C 121.882812 190.796875 114.769531 190.796875 114.769531 186.054688 C 114.769531 181.316406 121.882812 181.316406 121.882812 186.054688 "/>
<path fill-rule="nonzero" fill="rgb(31.372549%, 13.72549%, 27.058824%)" fill-opacity="0.8" stroke-width="0.708661" stroke-linecap="round" stroke-linejoin="round" stroke="rgb(31.372549%, 13.72549%, 27.058824%)" stroke-opacity="0.8" stroke-miterlimit="10" d="M 125.125 164.277344 C 125.125 169.015625 118.011719 169.015625 118.011719 164.277344 C 118.011719 159.535156 125.125 159.535156 125.125 164.277344 "/>
<path fill-rule="nonzero" fill="rgb(31.372549%, 13.72549%, 27.058824%)" fill-opacity="0.8" stroke-width="0.708661" stroke-linecap="round" stroke-linejoin="round" stroke="rgb(31.372549%, 13.72549%, 27.058824%)" stroke-opacity="0.8" stroke-miterlimit="10" d="M 128.367188 182.625 C 128.367188 187.363281 121.253906 187.363281 121.253906 182.625 C 121.253906 177.882812 128.367188 177.882812 128.367188 182.625 "/>
<path fill-rule="nonzero" fill="rgb(31.372549%, 13.72549%, 27.058824%)" fill-opacity="0.8" stroke-width="0.708661" stroke-linecap="round" stroke-linejoin="round" stroke="rgb(31.372549%, 13.72549%, 27.058824%)" stroke-opacity="0.8" stroke-miterlimit="10" d="M 131.609375 174.222656 C 131.609375 178.960938 124.496094 178.960938 124.496094 174.222656 C 124.496094 169.480469 131.609375 169.480469 131.609375 174.222656 "/>
<path fill-rule="nonzero" fill="rgb(31.372549%, 13.72549%, 27.058824%)" fill-opacity="0.8" stroke-width="0.708661" stroke-linecap="round" stroke-linejoin="round" stroke="rgb(31.372549%, 13.72549%, 27.058824%)" stroke-opacity="0.8" stroke-miterlimit="10" d="M 134.851562 170.496094 C 134.851562 175.238281 127.738281 175.238281 127.738281 170.496094 C 127.738281 165.757812 134.851562 165.757812 134.851562 170.496094 "/>
<path fill-rule="nonzero" fill="rgb(31.372549%, 13.72549%, 27.058824%)" fill-opacity="0.8" stroke-width="0.708661" stroke-linecap="round" stroke-linejoin="round" stroke="rgb(31.372549%, 13.72549%, 27.058824%)" stroke-opacity="0.8" stroke-miterlimit="10" d="M 138.09375 194.984375 C 138.09375 199.726562 130.980469 199.726562 130.980469 194.984375 C 130.980469 190.246094 138.09375 190.246094 138.09375 194.984375 "/>
<path fill-rule="nonzero" fill="rgb(31.372549%, 13.72549%, 27.058824%)" fill-opacity="0.8" stroke-width="0.708661" stroke-linecap="round" stroke-linejoin="round" stroke="rgb(31.372549%, 13.72549%, 27.058824%)" stroke-opacity="0.8" stroke-miterlimit="10" d="M 141.335938 132.671875 C 141.335938 137.410156 134.226562 137.410156 134.226562 132.671875 C 134.226562 127.929688 141.335938 127.929688 141.335938 132.671875 "/>
<path fill-rule="nonzero" fill="rgb(31.372549%, 13.72549%, 27.058824%)" fill-opacity="0.8" stroke-width="0.708661" stroke-linecap="round" stroke-linejoin="round" stroke="rgb(31.372549%, 13.72549%, 27.058824%)" stroke-opacity="0.8" stroke-miterlimit="10" d="M 144.578125 148.027344 C 144.578125 152.765625 137.46875 152.765625 137.46875 148.027344 C 137.46875 143.285156 144.578125 143.285156 144.578125 148.027344 "/>
<path fill-rule="nonzero" fill="rgb(31.372549%, 13.72549%, 27.058824%)" fill-opacity="0.8" stroke-width="0.708661" stroke-linecap="round" stroke-linejoin="round" stroke="rgb(31.372549%, 13.72549%, 27.058824%)" stroke-opacity="0.8" stroke-miterlimit="10" d="M 147.820312 178.078125 C 147.820312 182.816406 140.710938 182.816406 140.710938 178.078125 C 140.710938 173.335938 147.820312 173.335938 147.820312 178.078125 "/>
<path fill-rule="nonzero" fill="rgb(31.372549%, 13.72549%, 27.058824%)" fill-opacity="0.8" stroke-width="0.708661" stroke-linecap="round" stroke-linejoin="round" stroke="rgb(31.372549%, 13.72549%, 27.058824%)" stroke-opacity="0.8" stroke-miterlimit="10" d="M 151.0625 118.96875 C 151.0625 123.710938 143.953125 123.710938 143.953125 118.96875 C 143.953125 114.230469 151.0625 114.230469 151.0625 118.96875 "/>
<path fill-rule="nonzero" fill="rgb(31.372549%, 13.72549%, 27.058824%)" fill-opacity="0.8" stroke-width="0.708661" stroke-linecap="round" stroke-linejoin="round" stroke="rgb(31.372549%, 13.72549%, 27.058824%)" stroke-opacity="0.8" stroke-miterlimit="10" d="M 154.304688 137.785156 C 154.304688 142.523438 147.195312 142.523438 147.195312 137.785156 C 147.195312 133.042969 154.304688 133.042969 154.304688 137.785156 "/>
<path fill-rule="nonzero" fill="rgb(31.372549%, 13.72549%, 27.058824%)" fill-opacity="0.8" stroke-width="0.708661" stroke-linecap="round" stroke-linejoin="round" stroke="rgb(31.372549%, 13.72549%, 27.058824%)" stroke-opacity="0.8" stroke-miterlimit="10" d="M 157.546875 154.039062 C 157.546875 158.78125 150.4375 158.78125 150.4375 154.039062 C 150.4375 149.300781 157.546875 149.300781 157.546875 154.039062 "/>
<path fill-rule="nonzero" fill="rgb(31.372549%, 13.72549%, 27.058824%)" fill-opacity="0.8" stroke-width="0.708661" stroke-linecap="round" stroke-linejoin="round" stroke="rgb(31.372549%, 13.72549%, 27.058824%)" stroke-opacity="0.8" stroke-miterlimit="10" d="M 160.789062 124.019531 C 160.789062 128.761719 153.679688 128.761719 153.679688 124.019531 C 153.679688 119.28125 160.789062 119.28125 160.789062 124.019531 "/>
<path fill-rule="nonzero" fill="rgb(31.372549%, 13.72549%, 27.058824%)" fill-opacity="0.8" stroke-width="0.708661" stroke-linecap="round" stroke-linejoin="round" stroke="rgb(31.372549%, 13.72549%, 27.058824%)" stroke-opacity="0.8" stroke-miterlimit="10" d="M 164.03125 123.222656 C 164.03125 127.960938 156.921875 127.960938 156.921875 123.222656 C 156.921875 118.480469 164.03125 118.480469 164.03125 123.222656 "/>
<path fill-rule="nonzero" fill="rgb(31.372549%, 13.72549%, 27.058824%)" fill-opacity="0.8" stroke-width="0.708661" stroke-linecap="round" stroke-linejoin="round" stroke="rgb(31.372549%, 13.72549%, 27.058824%)" stroke-opacity="0.8" stroke-miterlimit="10" d="M 167.273438 123.378906 C 167.273438 128.121094 160.164062 128.121094 160.164062 123.378906 C 160.164062 118.640625 167.273438 118.640625 167.273438 123.378906 "/>
<path fill-rule="nonzero" fill="rgb(31.372549%, 13.72549%, 27.058824%)" fill-opacity="0.8" stroke-width="0.708661" stroke-linecap="round" stroke-linejoin="round" stroke="rgb(31.372549%, 13.72549%, 27.058824%)" stroke-opacity="0.8" stroke-miterlimit="10" d="M 170.515625 125.386719 C 170.515625 130.128906 163.40625 130.128906 163.40625 125.386719 C 163.40625 120.648438 170.515625 120.648438 170.515625 125.386719 "/>
<path fill-rule="nonzero" fill="rgb(31.372549%, 13.72549%, 27.058824%)" fill-opacity="0.8" stroke-width="0.708661" stroke-linecap="round" stroke-linejoin="round" stroke="rgb(31.372549%, 13.72549%, 27.058824%)" stroke-opacity="0.8" stroke-miterlimit="10" d="M 173.757812 127.4375 C 173.757812 132.179688 166.648438 132.179688 166.648438 127.4375 C 166.648438 122.699219 173.757812 122.699219 173.757812 127.4375 "/>
<path fill-rule="nonzero" fill="rgb(31.372549%, 13.72549%, 27.058824%)" fill-opacity="0.8" stroke-width="0.708661" stroke-linecap="round" stroke-linejoin="round" stroke="rgb(31.372549%, 13.72549%, 27.058824%)" stroke-opacity="0.8" stroke-miterlimit="10" d="M 177 141.132812 C 177 145.875 169.890625 145.875 169.890625 141.132812 C 169.890625 136.394531 177 136.394531 177 141.132812 "/>
<path fill-rule="nonzero" fill="rgb(31.372549%, 13.72549%, 27.058824%)" fill-opacity="0.8" stroke-width="0.708661" stroke-linecap="round" stroke-linejoin="round" stroke="rgb(31.372549%, 13.72549%, 27.058824%)" stroke-opacity="0.8" stroke-miterlimit="10" d="M 180.242188 145.832031 C 180.242188 150.570312 173.132812 150.570312 173.132812 145.832031 C 173.132812 141.089844 180.242188 141.089844 180.242188 145.832031 "/>
<path fill-rule="nonzero" fill="rgb(31.372549%, 13.72549%, 27.058824%)" fill-opacity="0.8" stroke-width="0.708661" stroke-linecap="round" stroke-linejoin="round" stroke="rgb(31.372549%, 13.72549%, 27.058824%)" stroke-opacity="0.8" stroke-miterlimit="10" d="M 183.484375 146.425781 C 183.484375 151.164062 176.375 151.164062 176.375 146.425781 C 176.375 141.683594 183.484375 141.683594 183.484375 146.425781 "/>
<path fill-rule="nonzero" fill="rgb(31.372549%, 13.72549%, 27.058824%)" fill-opacity="0.8" stroke-width="0.708661" stroke-linecap="round" stroke-linejoin="round" stroke="rgb(31.372549%, 13.72549%, 27.058824%)" stroke-opacity="0.8" stroke-miterlimit="10" d="M 186.726562 152.820312 C 186.726562 157.5625 179.617188 157.5625 179.617188 152.820312 C 179.617188 148.078125 186.726562 148.078125 186.726562 152.820312 "/>
<path fill-rule="nonzero" fill="rgb(31.372549%, 13.72549%, 27.058824%)" fill-opacity="0.8" stroke-width="0.708661" stroke-linecap="round" stroke-linejoin="round" stroke="rgb(31.372549%, 13.72549%, 27.058824%)" stroke-opacity="0.8" stroke-miterlimit="10" d="M 189.96875 139.828125 C 189.96875 144.566406 182.859375 144.566406 182.859375 139.828125 C 182.859375 135.085938 189.96875 135.085938 189.96875 139.828125 "/>
<path fill-rule="nonzero" fill="rgb(31.372549%, 13.72549%, 27.058824%)" fill-opacity="0.8" stroke-width="0.708661" stroke-linecap="round" stroke-linejoin="round" stroke="rgb(31.372549%, 13.72549%, 27.058824%)" stroke-opacity="0.8" stroke-miterlimit="10" d="M 193.210938 164.214844 C 193.210938 168.953125 186.101562 168.953125 186.101562 164.214844 C 186.101562 159.472656 193.210938 159.472656 193.210938 164.214844 "/>
<path fill-rule="nonzero" fill="rgb(31.372549%, 13.72549%, 27.058824%)" fill-opacity="0.8" stroke-width="0.708661" stroke-linecap="round" stroke-linejoin="round" stroke="rgb(31.372549%, 13.72549%, 27.058824%)" stroke-opacity="0.8" stroke-miterlimit="10" d="M 196.453125 79.875 C 196.453125 84.617188 189.34375 84.617188 189.34375 79.875 C 189.34375 75.132812 196.453125 75.132812 196.453125 79.875 "/>
<path fill-rule="nonzero" fill="rgb(31.372549%, 13.72549%, 27.058824%)" fill-opacity="0.8" stroke-width="0.708661" stroke-linecap="round" stroke-linejoin="round" stroke="rgb(31.372549%, 13.72549%, 27.058824%)" stroke-opacity="0.8" stroke-miterlimit="10" d="M 199.699219 101.925781 C 199.699219 106.664062 192.585938 106.664062 192.585938 101.925781 C 192.585938 97.183594 199.699219 97.183594 199.699219 101.925781 "/>
<path fill-rule="nonzero" fill="rgb(31.372549%, 13.72549%, 27.058824%)" fill-opacity="0.8" stroke-width="0.708661" stroke-linecap="round" stroke-linejoin="round" stroke="rgb(31.372549%, 13.72549%, 27.058824%)" stroke-opacity="0.8" stroke-miterlimit="10" d="M 202.941406 157.136719 C 202.941406 161.878906 195.828125 161.878906 195.828125 157.136719 C 195.828125 152.398438 202.941406 152.398438 202.941406 157.136719 "/>
<path fill-rule="nonzero" fill="rgb(31.372549%, 13.72549%, 27.058824%)" fill-opacity="0.8" stroke-width="0.708661" stroke-linecap="round" stroke-linejoin="round" stroke="rgb(31.372549%, 13.72549%, 27.058824%)" stroke-opacity="0.8" stroke-miterlimit="10" d="M 206.183594 138.496094 C 206.183594 143.234375 199.070312 143.234375 199.070312 138.496094 C 199.070312 133.753906 206.183594 133.753906 206.183594 138.496094 "/>
<path fill-rule="nonzero" fill="rgb(31.372549%, 13.72549%, 27.058824%)" fill-opacity="0.8" stroke-width="0.708661" stroke-linecap="round" stroke-linejoin="round" stroke="rgb(31.372549%, 13.72549%, 27.058824%)" stroke-opacity="0.8" stroke-miterlimit="10" d="M 209.425781 138.828125 C 209.425781 143.570312 202.3125 143.570312 202.3125 138.828125 C 202.3125 134.089844 209.425781 134.089844 209.425781 138.828125 "/>
<path fill-rule="nonzero" fill="rgb(31.372549%, 13.72549%, 27.058824%)" fill-opacity="0.8" stroke-width="0.708661" stroke-linecap="round" stroke-linejoin="round" stroke="rgb(31.372549%, 13.72549%, 27.058824%)" stroke-opacity="0.8" stroke-miterlimit="10" d="M 212.667969 107.445312 C 212.667969 112.183594 205.554688 112.183594 205.554688 107.445312 C 205.554688 102.703125 212.667969 102.703125 212.667969 107.445312 "/>
<path fill-rule="nonzero" fill="rgb(31.372549%, 13.72549%, 27.058824%)" fill-opacity="0.8" stroke-width="0.708661" stroke-linecap="round" stroke-linejoin="round" stroke="rgb(31.372549%, 13.72549%, 27.058824%)" stroke-opacity="0.8" stroke-miterlimit="10" d="M 215.910156 127.128906 C 215.910156 131.871094 208.796875 131.871094 208.796875 127.128906 C 208.796875 122.390625 215.910156 122.390625 215.910156 127.128906 "/>
<path fill-rule="nonzero" fill="rgb(31.372549%, 13.72549%, 27.058824%)" fill-opacity="0.8" stroke-width="0.708661" stroke-linecap="round" stroke-linejoin="round" stroke="rgb(31.372549%, 13.72549%, 27.058824%)" stroke-opacity="0.8" stroke-miterlimit="10" d="M 219.152344 117.769531 C 219.152344 122.511719 212.039062 122.511719 212.039062 117.769531 C 212.039062 113.03125 219.152344 113.03125 219.152344 117.769531 "/>
<path fill-rule="nonzero" fill="rgb(31.372549%, 13.72549%, 27.058824%)" fill-opacity="0.8" stroke-width="0.708661" stroke-linecap="round" stroke-linejoin="round" stroke="rgb(31.372549%, 13.72549%, 27.058824%)" stroke-opacity="0.8" stroke-miterlimit="10" d="M 222.394531 123.382812 C 222.394531 128.125 215.285156 128.125 215.285156 123.382812 C 215.285156 118.644531 222.394531 118.644531 222.394531 123.382812 "/>
<path fill-rule="nonzero" fill="rgb(31.372549%, 13.72549%, 27.058824%)" fill-opacity="0.8" stroke-width="0.708661" stroke-linecap="round" stroke-linejoin="round" stroke="rgb(31.372549%, 13.72549%, 27.058824%)" stroke-opacity="0.8" stroke-miterlimit="10" d="M 225.636719 122.519531 C 225.636719 127.261719 218.527344 127.261719 218.527344 122.519531 C 218.527344 117.78125 225.636719 117.78125 225.636719 122.519531 "/>
<path fill-rule="nonzero" fill="rgb(31.372549%, 13.72549%, 27.058824%)" fill-opacity="0.8" stroke-width="0.708661" stroke-linecap="round" stroke-linejoin="round" stroke="rgb(31.372549%, 13.72549%, 27.058824%)" stroke-opacity="0.8" stroke-miterlimit="10" d="M 228.878906 87.144531 C 228.878906 91.886719 221.769531 91.886719 221.769531 87.144531 C 221.769531 82.40625 228.878906 82.40625 228.878906 87.144531 "/>
<path fill-rule="nonzero" fill="rgb(31.372549%, 13.72549%, 27.058824%)" fill-opacity="0.8" stroke-width="0.708661" stroke-linecap="round" stroke-linejoin="round" stroke="rgb(31.372549%, 13.72549%, 27.058824%)" stroke-opacity="0.8" stroke-miterlimit="10" d="M 232.121094 124.527344 C 232.121094 129.265625 225.011719 129.265625 225.011719 124.527344 C 225.011719 119.785156 232.121094 119.785156 232.121094 124.527344 "/>
<path fill-rule="nonzero" fill="rgb(31.372549%, 13.72549%, 27.058824%)" fill-opacity="0.8" stroke-width="0.708661" stroke-linecap="round" stroke-linejoin="round" stroke="rgb(31.372549%, 13.72549%, 27.058824%)" stroke-opacity="0.8" stroke-miterlimit="10" d="M 235.363281 81.144531 C 235.363281 85.886719 228.253906 85.886719 228.253906 81.144531 C 228.253906 76.40625 235.363281 76.40625 235.363281 81.144531 "/>
<path fill-rule="nonzero" fill="rgb(31.372549%, 13.72549%, 27.058824%)" fill-opacity="0.8" stroke-width="0.708661" stroke-linecap="round" stroke-linejoin="round" stroke="rgb(31.372549%, 13.72549%, 27.058824%)" stroke-opacity="0.8" stroke-miterlimit="10" d="M 238.605469 154.128906 C 238.605469 158.867188 231.496094 158.867188 231.496094 154.128906 C 231.496094 149.386719 238.605469 149.386719 238.605469 154.128906 "/>
<path fill-rule="nonzero" fill="rgb(31.372549%, 13.72549%, 27.058824%)" fill-opacity="0.8" stroke-width="0.708661" stroke-linecap="round" stroke-linejoin="round" stroke="rgb(31.372549%, 13.72549%, 27.058824%)" stroke-opacity="0.8" stroke-miterlimit="10" d="M 241.847656 101.28125 C 241.847656 106.019531 234.738281 106.019531 234.738281 101.28125 C 234.738281 96.539062 241.847656 96.539062 241.847656 101.28125 "/>
<path fill-rule="nonzero" fill="rgb(31.372549%, 13.72549%, 27.058824%)" fill-opacity="0.8" stroke-width="0.708661" stroke-linecap="round" stroke-linejoin="round" stroke="rgb(31.372549%, 13.72549%, 27.058824%)" stroke-opacity="0.8" stroke-miterlimit="10" d="M 245.089844 111.222656 C 245.089844 115.964844 237.980469 115.964844 237.980469 111.222656 C 237.980469 106.484375 245.089844 106.484375 245.089844 111.222656 "/>
<path fill-rule="nonzero" fill="rgb(31.372549%, 13.72549%, 27.058824%)" fill-opacity="0.8" stroke-width="0.708661" stroke-linecap="round" stroke-linejoin="round" stroke="rgb(31.372549%, 13.72549%, 27.058824%)" stroke-opacity="0.8" stroke-miterlimit="10" d="M 248.332031 107.785156 C 248.332031 112.523438 241.222656 112.523438 241.222656 107.785156 C 241.222656 103.042969 248.332031 103.042969 248.332031 107.785156 "/>
<path fill-rule="nonzero" fill="rgb(31.372549%, 13.72549%, 27.058824%)" fill-opacity="0.8" stroke-width="0.708661" stroke-linecap="round" stroke-linejoin="round" stroke="rgb(31.372549%, 13.72549%, 27.058824%)" stroke-opacity="0.8" stroke-miterlimit="10" d="M 251.574219 102.609375 C 251.574219 107.351562 244.464844 107.351562 244.464844 102.609375 C 244.464844 97.871094 251.574219 97.871094 251.574219 102.609375 "/>
<path fill-rule="nonzero" fill="rgb(31.372549%, 13.72549%, 27.058824%)" fill-opacity="0.8" stroke-width="0.708661" stroke-linecap="round" stroke-linejoin="round" stroke="rgb(31.372549%, 13.72549%, 27.058824%)" stroke-opacity="0.8" stroke-miterlimit="10" d="M 254.816406 122.75 C 254.816406 127.488281 247.707031 127.488281 247.707031 122.75 C 247.707031 118.007812 254.816406 118.007812 254.816406 122.75 "/>
<path fill-rule="nonzero" fill="rgb(31.372549%, 13.72549%, 27.058824%)" fill-opacity="0.8" stroke-width="0.708661" stroke-linecap="round" stroke-linejoin="round" stroke="rgb(31.372549%, 13.72549%, 27.058824%)" stroke-opacity="0.8" stroke-miterlimit="10" d="M 258.058594 117.445312 C 258.058594 122.183594 250.949219 122.183594 250.949219 117.445312 C 250.949219 112.703125 258.058594 112.703125 258.058594 117.445312 "/>
<path fill-rule="nonzero" fill="rgb(31.372549%, 13.72549%, 27.058824%)" fill-opacity="0.8" stroke-width="0.708661" stroke-linecap="round" stroke-linejoin="round" stroke="rgb(31.372549%, 13.72549%, 27.058824%)" stroke-opacity="0.8" stroke-miterlimit="10" d="M 261.300781 132.824219 C 261.300781 137.5625 254.191406 137.5625 254.191406 132.824219 C 254.191406 128.082031 261.300781 128.082031 261.300781 132.824219 "/>
<path fill-rule="nonzero" fill="rgb(31.372549%, 13.72549%, 27.058824%)" fill-opacity="0.8" stroke-width="0.708661" stroke-linecap="round" stroke-linejoin="round" stroke="rgb(31.372549%, 13.72549%, 27.058824%)" stroke-opacity="0.8" stroke-miterlimit="10" d="M 264.542969 132.902344 C 264.542969 137.640625 257.433594 137.640625 257.433594 132.902344 C 257.433594 128.160156 264.542969 128.160156 264.542969 132.902344 "/>
<path fill-rule="nonzero" fill="rgb(31.372549%, 13.72549%, 27.058824%)" fill-opacity="0.8" stroke-width="0.708661" stroke-linecap="round" stroke-linejoin="round" stroke="rgb(31.372549%, 13.72549%, 27.058824%)" stroke-opacity="0.8" stroke-miterlimit="10" d="M 267.785156 98.402344 C 267.785156 103.140625 260.675781 103.140625 260.675781 98.402344 C 260.675781 93.660156 267.785156 93.660156 267.785156 98.402344 "/>
<path fill-rule="nonzero" fill="rgb(31.372549%, 13.72549%, 27.058824%)" fill-opacity="0.8" stroke-width="0.708661" stroke-linecap="round" stroke-linejoin="round" stroke="rgb(31.372549%, 13.72549%, 27.058824%)" stroke-opacity="0.8" stroke-miterlimit="10" d="M 271.027344 93.691406 C 271.027344 98.429688 263.917969 98.429688 263.917969 93.691406 C 263.917969 88.949219 271.027344 88.949219 271.027344 93.691406 "/>
<path fill-rule="nonzero" fill="rgb(31.372549%, 13.72549%, 27.058824%)" fill-opacity="0.8" stroke-width="0.708661" stroke-linecap="round" stroke-linejoin="round" stroke="rgb(31.372549%, 13.72549%, 27.058824%)" stroke-opacity="0.8" stroke-miterlimit="10" d="M 274.269531 102.046875 C 274.269531 106.785156 267.160156 106.785156 267.160156 102.046875 C 267.160156 97.304688 274.269531 97.304688 274.269531 102.046875 "/>
<path fill-rule="nonzero" fill="rgb(31.372549%, 13.72549%, 27.058824%)" fill-opacity="0.8" stroke-width="0.708661" stroke-linecap="round" stroke-linejoin="round" stroke="rgb(31.372549%, 13.72549%, 27.058824%)" stroke-opacity="0.8" stroke-miterlimit="10" d="M 277.511719 79.792969 C 277.511719 84.535156 270.402344 84.535156 270.402344 79.792969 C 270.402344 75.054688 277.511719 75.054688 277.511719 79.792969 "/>
<path fill-rule="nonzero" fill="rgb(31.372549%, 13.72549%, 27.058824%)" fill-opacity="0.8" stroke-width="0.708661" stroke-linecap="round" stroke-linejoin="round" stroke="rgb(31.372549%, 13.72549%, 27.058824%)" stroke-opacity="0.8" stroke-miterlimit="10" d="M 280.757812 51.285156 C 280.757812 56.027344 273.644531 56.027344 273.644531 51.285156 C 273.644531 46.546875 280.757812 46.546875 280.757812 51.285156 "/>
<path fill-rule="nonzero" fill="rgb(31.372549%, 13.72549%, 27.058824%)" fill-opacity="0.8" stroke-width="0.708661" stroke-linecap="round" stroke-linejoin="round" stroke="rgb(31.372549%, 13.72549%, 27.058824%)" stroke-opacity="0.8" stroke-miterlimit="10" d="M 284 111.582031 C 284 116.324219 276.886719 116.324219 276.886719 111.582031 C 276.886719 106.84375 284 106.84375 284 111.582031 "/>
<path fill-rule="nonzero" fill="rgb(31.372549%, 13.72549%, 27.058824%)" fill-opacity="0.8" stroke-width="0.708661" stroke-linecap="round" stroke-linejoin="round" stroke="rgb(31.372549%, 13.72549%, 27.058824%)" stroke-opacity="0.8" stroke-miterlimit="10" d="M 287.242188 154.378906 C 287.242188 159.121094 280.128906 159.121094 280.128906 154.378906 C 280.128906 149.640625 287.242188 149.640625 287.242188 154.378906 "/>
<path fill-rule="nonzero" fill="rgb(31.372549%, 13.72549%, 27.058824%)" fill-opacity="0.8" stroke-width="0.708661" stroke-linecap="round" stroke-linejoin="round" stroke="rgb(31.372549%, 13.72549%, 27.058824%)" stroke-opacity="0.8" stroke-miterlimit="10" d="M 290.484375 72.933594 C 290.484375 77.671875 283.371094 77.671875 283.371094 72.933594 C 283.371094 68.191406 290.484375 68.191406 290.484375 72.933594 "/>
<path fill-rule="nonzero" fill="rgb(31.372549%, 13.72549%, 27.058824%)" fill-opacity="0.8" stroke-width="0.708661" stroke-linecap="round" stroke-linejoin="round" stroke="rgb(31.372549%, 13.72549%, 27.058824%)" stroke-opacity="0.8" stroke-miterlimit="10" d="M 293.726562 113.234375 C 293.726562 117.972656 286.613281 117.972656 286.613281 113.234375 C 286.613281 108.492188 293.726562 108.492188 293.726562 113.234375 "/>
<path fill-rule="nonzero" fill="rgb(31.372549%, 13.72549%, 27.058824%)" fill-opacity="0.8" stroke-width="0.708661" stroke-linecap="round" stroke-linejoin="round" stroke="rgb(31.372549%, 13.72549%, 27.058824%)" stroke-opacity="0.8" stroke-miterlimit="10" d="M 296.96875 111.511719 C 296.96875 116.25 289.855469 116.25 289.855469 111.511719 C 289.855469 106.769531 296.96875 106.769531 296.96875 111.511719 "/>
<path fill-rule="nonzero" fill="rgb(31.372549%, 13.72549%, 27.058824%)" fill-opacity="0.8" stroke-width="0.708661" stroke-linecap="round" stroke-linejoin="round" stroke="rgb(31.372549%, 13.72549%, 27.058824%)" stroke-opacity="0.8" stroke-miterlimit="10" d="M 300.210938 68.824219 C 300.210938 73.5625 293.097656 73.5625 293.097656 68.824219 C 293.097656 64.082031 300.210938 64.082031 300.210938 68.824219 "/>
<path fill-rule="nonzero" fill="rgb(31.372549%, 13.72549%, 27.058824%)" fill-opacity="0.8" stroke-width="0.708661" stroke-linecap="round" stroke-linejoin="round" stroke="rgb(31.372549%, 13.72549%, 27.058824%)" stroke-opacity="0.8" stroke-miterlimit="10" d="M 303.453125 99.328125 C 303.453125 104.070312 296.34375 104.070312 296.34375 99.328125 C 296.34375 94.589844 303.453125 94.589844 303.453125 99.328125 "/>
<path fill-rule="nonzero" fill="rgb(31.372549%, 13.72549%, 27.058824%)" fill-opacity="0.8" stroke-width="0.708661" stroke-linecap="round" stroke-linejoin="round" stroke="rgb(31.372549%, 13.72549%, 27.058824%)" stroke-opacity="0.8" stroke-miterlimit="10" d="M 306.695312 120.773438 C 306.695312 125.515625 299.585938 125.515625 299.585938 120.773438 C 299.585938 116.03125 306.695312 116.03125 306.695312 120.773438 "/>
<path fill-rule="nonzero" fill="rgb(31.372549%, 13.72549%, 27.058824%)" fill-opacity="0.8" stroke-width="0.708661" stroke-linecap="round" stroke-linejoin="round" stroke="rgb(31.372549%, 13.72549%, 27.058824%)" stroke-opacity="0.8" stroke-miterlimit="10" d="M 309.9375 85.628906 C 309.9375 90.367188 302.828125 90.367188 302.828125 85.628906 C 302.828125 80.886719 309.9375 80.886719 309.9375 85.628906 "/>
<path fill-rule="nonzero" fill="rgb(31.372549%, 13.72549%, 27.058824%)" fill-opacity="0.8" stroke-width="0.708661" stroke-linecap="round" stroke-linejoin="round" stroke="rgb(31.372549%, 13.72549%, 27.058824%)" stroke-opacity="0.8" stroke-miterlimit="10" d="M 313.179688 92.167969 C 313.179688 96.90625 306.070312 96.90625 306.070312 92.167969 C 306.070312 87.425781 313.179688 87.425781 313.179688 92.167969 "/>
<path fill-rule="nonzero" fill="rgb(31.372549%, 13.72549%, 27.058824%)" fill-opacity="0.8" stroke-width="0.708661" stroke-linecap="round" stroke-linejoin="round" stroke="rgb(31.372549%, 13.72549%, 27.058824%)" stroke-opacity="0.8" stroke-miterlimit="10" d="M 316.421875 87.457031 C 316.421875 92.195312 309.3125 92.195312 309.3125 87.457031 C 309.3125 82.714844 316.421875 82.714844 316.421875 87.457031 "/>
<path fill-rule="nonzero" fill="rgb(31.372549%, 13.72549%, 27.058824%)" fill-opacity="0.8" stroke-width="0.708661" stroke-linecap="round" stroke-linejoin="round" stroke="rgb(31.372549%, 13.72549%, 27.058824%)" stroke-opacity="0.8" stroke-miterlimit="10" d="M 319.664062 77.058594 C 319.664062 81.800781 312.554688 81.800781 312.554688 77.058594 C 312.554688 72.320312 319.664062 72.320312 319.664062 77.058594 "/>
<path fill-rule="nonzero" fill="rgb(31.372549%, 13.72549%, 27.058824%)" fill-opacity="0.8" stroke-width="0.708661" stroke-linecap="round" stroke-linejoin="round" stroke="rgb(31.372549%, 13.72549%, 27.058824%)" stroke-opacity="0.8" stroke-miterlimit="10" d="M 322.90625 94.148438 C 322.90625 98.886719 315.796875 98.886719 315.796875 94.148438 C 315.796875 89.40625 322.90625 89.40625 322.90625 94.148438 "/>
<path fill-rule="nonzero" fill="rgb(31.372549%, 13.72549%, 27.058824%)" fill-opacity="0.8" stroke-width="0.708661" stroke-linecap="round" stroke-linejoin="round" stroke="rgb(31.372549%, 13.72549%, 27.058824%)" stroke-opacity="0.8" stroke-miterlimit="10" d="M 326.148438 68.367188 C 326.148438 73.109375 319.039062 73.109375 319.039062 68.367188 C 319.039062 63.628906 326.148438 63.628906 326.148438 68.367188 "/>
<path fill-rule="nonzero" fill="rgb(31.372549%, 13.72549%, 27.058824%)" fill-opacity="0.8" stroke-width="0.708661" stroke-linecap="round" stroke-linejoin="round" stroke="rgb(31.372549%, 13.72549%, 27.058824%)" stroke-opacity="0.8" stroke-miterlimit="10" d="M 329.390625 88.089844 C 329.390625 92.832031 322.28125 92.832031 322.28125 88.089844 C 322.28125 83.351562 329.390625 83.351562 329.390625 88.089844 "/>
<path fill-rule="nonzero" fill="rgb(31.372549%, 13.72549%, 27.058824%)" fill-opacity="0.8" stroke-width="0.708661" stroke-linecap="round" stroke-linejoin="round" stroke="rgb(31.372549%, 13.72549%, 27.058824%)" stroke-opacity="0.8" stroke-miterlimit="10" d="M 332.632812 73.511719 C 332.632812 78.253906 325.523438 78.253906 325.523438 73.511719 C 325.523438 68.773438 332.632812 68.773438 332.632812 73.511719 "/>
<path fill-rule="nonzero" fill="rgb(31.372549%, 13.72549%, 27.058824%)" fill-opacity="0.8" stroke-width="0.708661" stroke-linecap="round" stroke-linejoin="round" stroke="rgb(31.372549%, 13.72549%, 27.058824%)" stroke-opacity="0.8" stroke-miterlimit="10" d="M 335.875 53.785156 C 335.875 58.523438 328.765625 58.523438 328.765625 53.785156 C 328.765625 49.042969 335.875 49.042969 335.875 53.785156 "/>
<path fill-rule="nonzero" fill="rgb(31.372549%, 13.72549%, 27.058824%)" fill-opacity="0.8" stroke-width="0.708661" stroke-linecap="round" stroke-linejoin="round" stroke="rgb(31.372549%, 13.72549%, 27.058824%)" stroke-opacity="0.8" stroke-miterlimit="10" d="M 339.117188 68.589844 C 339.117188 73.332031 332.007812 73.332031 332.007812 68.589844 C 332.007812 63.851562 339.117188 63.851562 339.117188 68.589844 "/>
<path fill-rule="nonzero" fill="rgb(31.372549%, 13.72549%, 27.058824%)" fill-opacity="0.8" stroke-width="0.708661" stroke-linecap="round" stroke-linejoin="round" stroke="rgb(31.372549%, 13.72549%, 27.058824%)" stroke-opacity="0.8" stroke-miterlimit="10" d="M 342.359375 85.800781 C 342.359375 90.542969 335.25 90.542969 335.25 85.800781 C 335.25 81.0625 342.359375 81.0625 342.359375 85.800781 "/>
<path fill-rule="nonzero" fill="rgb(31.372549%, 13.72549%, 27.058824%)" fill-opacity="0.8" stroke-width="0.708661" stroke-linecap="round" stroke-linejoin="round" stroke="rgb(31.372549%, 13.72549%, 27.058824%)" stroke-opacity="0.8" stroke-miterlimit="10" d="M 345.601562 48.894531 C 345.601562 53.636719 338.492188 53.636719 338.492188 48.894531 C 338.492188 44.15625 345.601562 44.15625 345.601562 48.894531 "/>
<path fill-rule="nonzero" fill="rgb(31.372549%, 13.72549%, 27.058824%)" fill-opacity="0.8" stroke-width="0.708661" stroke-linecap="round" stroke-linejoin="round" stroke="rgb(31.372549%, 13.72549%, 27.058824%)" stroke-opacity="0.8" stroke-miterlimit="10" d="M 348.84375 51.445312 C 348.84375 56.183594 341.734375 56.183594 341.734375 51.445312 C 341.734375 46.703125 348.84375 46.703125 348.84375 51.445312 "/>
<path fill-rule="nonzero" fill="rgb(31.372549%, 13.72549%, 27.058824%)" fill-opacity="0.8" stroke-width="0.708661" stroke-linecap="round" stroke-linejoin="round" stroke="rgb(31.372549%, 13.72549%, 27.058824%)" stroke-opacity="0.8" stroke-miterlimit="10" d="M 352.085938 61.007812 C 352.085938 65.75 344.976562 65.75 344.976562 61.007812 C 344.976562 56.269531 352.085938 56.269531 352.085938 61.007812 "/>
<path fill-rule="nonzero" fill="rgb(31.372549%, 13.72549%, 27.058824%)" fill-opacity="0.8" stroke-width="0.708661" stroke-linecap="round" stroke-linejoin="round" stroke="rgb(31.372549%, 13.72549%, 27.058824%)" stroke-opacity="0.8" stroke-miterlimit="10" d="M 355.328125 67.292969 C 355.328125 72.035156 348.21875 72.035156 348.21875 67.292969 C 348.21875 62.554688 355.328125 62.554688 355.328125 67.292969 "/>
<path fill-rule="nonzero" fill="rgb(31.372549%, 13.72549%, 27.058824%)" fill-opacity="0.8" stroke-width="0.708661" stroke-linecap="round" stroke-linejoin="round" stroke="rgb(31.372549%, 13.72549%, 27.058824%)" stroke-opacity="0.8" stroke-miterlimit="10" d="M 358.570312 87.058594 C 358.570312 91.800781 351.460938 91.800781 351.460938 87.058594 C 351.460938 82.320312 358.570312 82.320312 358.570312 87.058594 "/>
<path fill-rule="nonzero" fill="rgb(31.372549%, 13.72549%, 27.058824%)" fill-opacity="0.8" stroke-width="0.708661" stroke-linecap="round" stroke-linejoin="round" stroke="rgb(31.372549%, 13.72549%, 27.058824%)" stroke-opacity="0.8" stroke-miterlimit="10" d="M 361.816406 37.71875 C 361.816406 42.457031 354.703125 42.457031 354.703125 37.71875 C 354.703125 32.976562 361.816406 32.976562 361.816406 37.71875 "/>
<path fill-rule="nonzero" fill="rgb(31.372549%, 13.72549%, 27.058824%)" fill-opacity="0.8" stroke-width="0.708661" stroke-linecap="round" stroke-linejoin="round" stroke="rgb(31.372549%, 13.72549%, 27.058824%)" stroke-opacity="0.8" stroke-miterlimit="10" d="M 365.058594 83.972656 C 365.058594 88.710938 357.945312 88.710938 357.945312 83.972656 C 357.945312 79.230469 365.058594 79.230469 365.058594 83.972656 "/>
<path fill-rule="nonzero" fill="rgb(31.372549%, 13.72549%, 27.058824%)" fill-opacity="0.8" stroke-width="0.708661" stroke-linecap="round" stroke-linejoin="round" stroke="rgb(31.372549%, 13.72549%, 27.058824%)" stroke-opacity="0.8" stroke-miterlimit="10" d="M 368.300781 15.289062 C 368.300781 20.027344 361.1875 20.027344 361.1875 15.289062 C 361.1875 10.546875 368.300781 10.546875 368.300781 15.289062 "/>
<path fill-rule="nonzero" fill="rgb(31.372549%, 13.72549%, 27.058824%)" fill-opacity="0.8" stroke-width="0.708661" stroke-linecap="round" stroke-linejoin="round" stroke="rgb(31.372549%, 13.72549%, 27.058824%)" stroke-opacity="0.8" stroke-miterlimit="10" d="M 371.542969 29.925781 C 371.542969 34.664062 364.429688 34.664062 364.429688 29.925781 C 364.429688 25.183594 371.542969 25.183594 371.542969 29.925781 "/>
<path fill-rule="nonzero" fill="rgb(31.372549%, 13.72549%, 27.058824%)" fill-opacity="0.8" stroke-width="0.708661" stroke-linecap="round" stroke-linejoin="round" stroke="rgb(31.372549%, 13.72549%, 27.058824%)" stroke-opacity="0.8" stroke-miterlimit="10" d="M 374.785156 71.515625 C 374.785156 76.257812 367.671875 76.257812 367.671875 71.515625 C 367.671875 66.777344 374.785156 66.777344 374.785156 71.515625 "/>
<path fill-rule="nonzero" fill="rgb(31.372549%, 13.72549%, 27.058824%)" fill-opacity="0.8" stroke-width="0.708661" stroke-linecap="round" stroke-linejoin="round" stroke="rgb(31.372549%, 13.72549%, 27.058824%)" stroke-opacity="0.8" stroke-miterlimit="10" d="M 378.027344 89.445312 C 378.027344 94.183594 370.914062 94.183594 370.914062 89.445312 C 370.914062 84.703125 378.027344 84.703125 378.027344 89.445312 "/>
<g fill="rgb(0%, 0%, 0%)" fill-opacity="1">
<use xlink:href="#glyph-0-0" x="56.824219" y="86.691406"/>
<use xlink:href="#glyph-0-1" x="64.768066" y="86.691406"/>
<use xlink:href="#glyph-0-2" x="68.431152" y="86.691406"/>
<use xlink:href="#glyph-0-3" x="71.487305" y="86.691406"/>
<use xlink:href="#glyph-0-2" x="77.911133" y="86.691406"/>
<use xlink:href="#glyph-0-4" x="80.967285" y="86.691406"/>
<use xlink:href="#glyph-0-5" x="87.084961" y="86.691406"/>
<use xlink:href="#glyph-0-6" x="90.141113" y="86.691406"/>
<use xlink:href="#glyph-0-7" x="96.258789" y="86.691406"/>
<use xlink:href="#glyph-0-8" x="102.376465" y="86.691406"/>
</g>
<g fill="rgb(30.196078%, 30.196078%, 30.196078%)" fill-opacity="1">
<use xlink:href="#glyph-1-0" x="27.492188" y="188.847656"/>
</g>
<g fill="rgb(30.196078%, 30.196078%, 30.196078%)" fill-opacity="1">
<use xlink:href="#glyph-1-1" x="22.484375" y="128.335938"/>
<use xlink:href="#glyph-1-0" x="27.489746" y="128.335938"/>
</g>
<g fill="rgb(30.196078%, 30.196078%, 30.196078%)" fill-opacity="1">
<use xlink:href="#glyph-1-2" x="17.480469" y="67.820312"/>
<use xlink:href="#glyph-1-0" x="22.48584" y="67.820312"/>
<use xlink:href="#glyph-1-0" x="27.491211" y="67.820312"/>
</g>
<g fill="rgb(30.196078%, 30.196078%, 30.196078%)" fill-opacity="1">
<use xlink:href="#glyph-1-0" x="47.734375" y="232.625"/>
</g>
<g fill="rgb(30.196078%, 30.196078%, 30.196078%)" fill-opacity="1">
<use xlink:href="#glyph-1-3" x="126.292969" y="232.625"/>
<use xlink:href="#glyph-1-1" x="131.29834" y="232.625"/>
</g>
<g fill="rgb(30.196078%, 30.196078%, 30.196078%)" fill-opacity="1">
<use xlink:href="#glyph-1-1" x="207.351562" y="232.625"/>
<use xlink:href="#glyph-1-0" x="212.356934" y="232.625"/>
</g>
<g fill="rgb(30.196078%, 30.196078%, 30.196078%)" fill-opacity="1">
<use xlink:href="#glyph-1-4" x="288.410156" y="232.625"/>
<use xlink:href="#glyph-1-1" x="293.415527" y="232.625"/>
</g>
<g fill="rgb(30.196078%, 30.196078%, 30.196078%)" fill-opacity="1">
<use xlink:href="#glyph-1-2" x="366.964844" y="232.625"/>
<use xlink:href="#glyph-1-0" x="371.970215" y="232.625"/>
<use xlink:href="#glyph-1-0" x="376.975586" y="232.625"/>
</g>
<g fill="rgb(0%, 0%, 0%)" fill-opacity="1">
<use xlink:href="#glyph-2-0" x="211.195312" y="244.417969"/>
</g>
<g fill="rgb(0%, 0%, 0%)" fill-opacity="1">
<use xlink:href="#glyph-3-0" x="12.636719" y="116.144531"/>
</g>
</svg>
