<?xml version="1.0" encoding="UTF-8"?>
<svg xmlns="http://www.w3.org/2000/svg" xmlns:xlink="http://www.w3.org/1999/xlink" width="396pt" height="252pt" viewBox="0 0 396 252">
<defs>
<g>
<g id="glyph-0-0">
<path d="M 0.570312 0 L 0.570312 -4.5625 L 1.265625 -4.5625 L 1.265625 -3.871094 C 1.445312 -4.191406 1.609375 -4.40625 1.757812 -4.511719 C 1.90625 -4.613281 2.070312 -4.664062 2.257812 -4.667969 C 2.515625 -4.664062 2.78125 -4.582031 3.050781 -4.417969 L 2.785156 -3.699219 C 2.589844 -3.808594 2.402344 -3.867188 2.21875 -3.867188 C 2.046875 -3.867188 1.894531 -3.816406 1.761719 -3.714844 C 1.625 -3.613281 1.527344 -3.472656 1.472656 -3.292969 C 1.382812 -3.015625 1.339844 -2.714844 1.34375 -2.390625 L 1.34375 0 Z M 0.570312 0 "/>
</g>
<g id="glyph-0-1">
<path d="M 3.703125 -1.46875 L 4.503906 -1.371094 C 4.375 -0.902344 4.140625 -0.539062 3.800781 -0.285156 C 3.460938 -0.0273438 3.027344 0.0976562 2.496094 0.101562 C 1.828125 0.0976562 1.296875 -0.101562 0.90625 -0.511719 C 0.511719 -0.917969 0.316406 -1.496094 0.320312 -2.242188 C 0.316406 -3.007812 0.515625 -3.605469 0.914062 -4.03125 C 1.308594 -4.453125 1.820312 -4.664062 2.453125 -4.667969 C 3.058594 -4.664062 3.554688 -4.457031 3.945312 -4.042969 C 4.328125 -3.628906 4.523438 -3.042969 4.527344 -2.289062 C 4.523438 -2.242188 4.523438 -2.175781 4.523438 -2.085938 L 1.121094 -2.085938 C 1.144531 -1.582031 1.289062 -1.195312 1.546875 -0.929688 C 1.800781 -0.660156 2.117188 -0.527344 2.5 -0.53125 C 2.78125 -0.527344 3.023438 -0.601562 3.226562 -0.753906 C 3.425781 -0.902344 3.585938 -1.140625 3.703125 -1.46875 Z M 1.164062 -2.71875 L 3.710938 -2.71875 C 3.671875 -3.101562 3.578125 -3.386719 3.421875 -3.582031 C 3.171875 -3.878906 2.851562 -4.03125 2.460938 -4.03125 C 2.105469 -4.03125 1.804688 -3.910156 1.566406 -3.671875 C 1.320312 -3.433594 1.1875 -3.117188 1.164062 -2.71875 Z M 1.164062 -2.71875 "/>
</g>
<g id="glyph-0-2">
<path d="M 0.269531 -1.363281 L 1.035156 -1.484375 C 1.078125 -1.171875 1.199219 -0.9375 1.394531 -0.777344 C 1.589844 -0.609375 1.863281 -0.527344 2.21875 -0.53125 C 2.570312 -0.527344 2.832031 -0.601562 3.007812 -0.75 C 3.175781 -0.894531 3.261719 -1.0625 3.265625 -1.257812 C 3.261719 -1.429688 3.1875 -1.566406 3.039062 -1.671875 C 2.929688 -1.734375 2.664062 -1.824219 2.246094 -1.933594 C 1.675781 -2.074219 1.285156 -2.195312 1.066406 -2.304688 C 0.847656 -2.40625 0.679688 -2.550781 0.566406 -2.738281 C 0.453125 -2.917969 0.398438 -3.125 0.398438 -3.351562 C 0.398438 -3.554688 0.445312 -3.742188 0.539062 -3.914062 C 0.632812 -4.085938 0.757812 -4.230469 0.917969 -4.347656 C 1.039062 -4.433594 1.203125 -4.507812 1.410156 -4.574219 C 1.617188 -4.632812 1.839844 -4.664062 2.078125 -4.667969 C 2.433594 -4.664062 2.75 -4.613281 3.023438 -4.511719 C 3.292969 -4.40625 3.492188 -4.265625 3.621094 -4.089844 C 3.75 -3.914062 3.839844 -3.679688 3.890625 -3.386719 L 3.132812 -3.28125 C 3.097656 -3.515625 2.996094 -3.699219 2.832031 -3.832031 C 2.664062 -3.964844 2.433594 -4.03125 2.136719 -4.03125 C 1.777344 -4.03125 1.523438 -3.972656 1.375 -3.855469 C 1.222656 -3.738281 1.148438 -3.597656 1.148438 -3.441406 C 1.148438 -3.339844 1.179688 -3.25 1.242188 -3.171875 C 1.304688 -3.085938 1.402344 -3.019531 1.539062 -2.964844 C 1.613281 -2.933594 1.839844 -2.867188 2.222656 -2.765625 C 2.765625 -2.617188 3.148438 -2.496094 3.367188 -2.40625 C 3.582031 -2.3125 3.75 -2.175781 3.875 -2 C 3.996094 -1.820312 4.058594 -1.601562 4.0625 -1.339844 C 4.058594 -1.078125 3.984375 -0.835938 3.835938 -0.609375 C 3.683594 -0.382812 3.464844 -0.207031 3.183594 -0.0820312 C 2.894531 0.0390625 2.574219 0.0976562 2.222656 0.101562 C 1.625 0.0976562 1.171875 -0.0195312 0.863281 -0.265625 C 0.550781 -0.507812 0.355469 -0.875 0.269531 -1.363281 Z M 0.269531 -1.363281 "/>
</g>
<g id="glyph-0-3">
<path d="M 0.585938 -5.410156 L 0.585938 -6.300781 L 1.359375 -6.300781 L 1.359375 -5.410156 Z M 0.585938 0 L 0.585938 -4.5625 L 1.359375 -4.5625 L 1.359375 0 Z M 0.585938 0 "/>
</g>
<g id="glyph-0-4">
<path d="M 3.539062 0 L 3.539062 -0.574219 C 3.25 -0.125 2.824219 0.0976562 2.265625 0.101562 C 1.898438 0.0976562 1.5625 0 1.261719 -0.199219 C 0.953125 -0.398438 0.71875 -0.675781 0.550781 -1.039062 C 0.382812 -1.394531 0.296875 -1.808594 0.300781 -2.277344 C 0.296875 -2.730469 0.375 -3.144531 0.527344 -3.515625 C 0.679688 -3.886719 0.90625 -4.171875 1.210938 -4.371094 C 1.511719 -4.566406 1.851562 -4.664062 2.230469 -4.667969 C 2.5 -4.664062 2.746094 -4.605469 2.964844 -4.492188 C 3.179688 -4.375 3.351562 -4.222656 3.488281 -4.039062 L 3.488281 -6.300781 L 4.257812 -6.300781 L 4.257812 0 Z M 1.09375 -2.277344 C 1.089844 -1.691406 1.214844 -1.253906 1.464844 -0.964844 C 1.710938 -0.671875 2 -0.527344 2.335938 -0.53125 C 2.671875 -0.527344 2.960938 -0.664062 3.199219 -0.945312 C 3.433594 -1.21875 3.550781 -1.640625 3.554688 -2.210938 C 3.550781 -2.832031 3.429688 -3.292969 3.191406 -3.585938 C 2.949219 -3.878906 2.652344 -4.023438 2.304688 -4.027344 C 1.957031 -4.023438 1.671875 -3.882812 1.441406 -3.605469 C 1.207031 -3.320312 1.089844 -2.878906 1.09375 -2.277344 Z M 1.09375 -2.277344 "/>
</g>
<g id="glyph-0-5">
<path d="M -0.132812 1.75 L -0.132812 1.191406 L 4.992188 1.191406 L 4.992188 1.75 Z M -0.132812 1.75 "/>
</g>
<g id="glyph-0-6">
<path d="M 2.269531 -0.691406 L 2.378906 -0.0078125 C 2.160156 0.0390625 1.964844 0.0585938 1.796875 0.0585938 C 1.511719 0.0585938 1.292969 0.015625 1.140625 -0.0742188 C 0.984375 -0.160156 0.875 -0.277344 0.816406 -0.421875 C 0.75 -0.566406 0.71875 -0.871094 0.722656 -1.335938 L 0.722656 -3.960938 L 0.15625 -3.960938 L 0.15625 -4.5625 L 0.722656 -4.5625 L 0.722656 -5.695312 L 1.492188 -6.15625 L 1.492188 -4.5625 L 2.269531 -4.5625 L 2.269531 -3.960938 L 1.492188 -3.960938 L 1.492188 -1.292969 C 1.488281 -1.070312 1.5 -0.929688 1.53125 -0.867188 C 1.554688 -0.804688 1.601562 -0.753906 1.664062 -0.714844 C 1.726562 -0.675781 1.8125 -0.65625 1.929688 -0.660156 C 2.011719 -0.65625 2.125 -0.667969 2.269531 -0.691406 Z M 2.269531 -0.691406 "/>
</g>
<g id="glyph-0-7">
<path d="M 3.570312 0 L 3.570312 -0.671875 C 3.210938 -0.15625 2.730469 0.0976562 2.121094 0.101562 C 1.851562 0.0976562 1.597656 0.0507812 1.367188 -0.0507812 C 1.132812 -0.152344 0.960938 -0.28125 0.847656 -0.441406 C 0.734375 -0.59375 0.65625 -0.785156 0.609375 -1.015625 C 0.578125 -1.164062 0.5625 -1.40625 0.5625 -1.734375 L 0.5625 -4.5625 L 1.335938 -4.5625 L 1.335938 -2.03125 C 1.335938 -1.625 1.351562 -1.351562 1.382812 -1.214844 C 1.429688 -1.007812 1.53125 -0.847656 1.691406 -0.734375 C 1.847656 -0.617188 2.042969 -0.5625 2.277344 -0.5625 C 2.507812 -0.5625 2.726562 -0.621094 2.929688 -0.738281 C 3.132812 -0.855469 3.273438 -1.015625 3.359375 -1.226562 C 3.441406 -1.429688 3.484375 -1.726562 3.488281 -2.117188 L 3.488281 -4.5625 L 4.261719 -4.5625 L 4.261719 0 Z M 3.570312 0 "/>
</g>
<g id="glyph-0-8">
<path d="M 0.578125 0 L 0.578125 -4.5625 L 1.277344 -4.5625 L 1.277344 -3.914062 C 1.609375 -4.414062 2.089844 -4.664062 2.726562 -4.667969 C 3 -4.664062 3.253906 -4.613281 3.484375 -4.519531 C 3.714844 -4.417969 3.886719 -4.289062 4.003906 -4.128906 C 4.113281 -3.96875 4.195312 -3.777344 4.246094 -3.558594 C 4.273438 -3.410156 4.289062 -3.160156 4.289062 -2.804688 L 4.289062 0 L 3.515625 0 L 3.515625 -2.777344 C 3.515625 -3.089844 3.484375 -3.324219 3.425781 -3.484375 C 3.363281 -3.636719 3.257812 -3.761719 3.105469 -3.855469 C 2.949219 -3.949219 2.769531 -3.996094 2.566406 -3.996094 C 2.234375 -3.996094 1.949219 -3.890625 1.710938 -3.679688 C 1.46875 -3.46875 1.347656 -3.070312 1.351562 -2.492188 L 1.351562 0 Z M 0.578125 0 "/>
</g>
<g id="glyph-0-9">
<path d="M 0.171875 0 L 0.171875 -0.628906 L 3.078125 -3.960938 C 2.742188 -3.945312 2.453125 -3.9375 2.203125 -3.9375 L 0.34375 -3.9375 L 0.34375 -4.5625 L 4.074219 -4.5625 L 4.074219 -4.050781 L 1.601562 -1.15625 L 1.125 -0.628906 C 1.46875 -0.648438 1.792969 -0.660156 2.101562 -0.664062 L 4.210938 -0.664062 L 4.210938 0 Z M 0.171875 0 "/>
</g>
<g id="glyph-0-10">
<path d="M 3.558594 -0.5625 C 3.269531 -0.320312 2.996094 -0.148438 2.730469 -0.046875 C 2.464844 0.0507812 2.179688 0.0976562 1.878906 0.101562 C 1.375 0.0976562 0.988281 -0.0195312 0.71875 -0.265625 C 0.449219 -0.507812 0.316406 -0.820312 0.316406 -1.203125 C 0.316406 -1.421875 0.367188 -1.628906 0.46875 -1.816406 C 0.570312 -2 0.703125 -2.148438 0.871094 -2.261719 C 1.03125 -2.371094 1.214844 -2.453125 1.425781 -2.515625 C 1.574219 -2.550781 1.804688 -2.589844 2.113281 -2.628906 C 2.734375 -2.703125 3.195312 -2.792969 3.492188 -2.894531 C 3.492188 -3 3.492188 -3.066406 3.496094 -3.097656 C 3.492188 -3.410156 3.417969 -3.632812 3.277344 -3.765625 C 3.074219 -3.9375 2.78125 -4.023438 2.398438 -4.027344 C 2.03125 -4.023438 1.761719 -3.960938 1.589844 -3.835938 C 1.414062 -3.707031 1.289062 -3.480469 1.207031 -3.160156 L 0.453125 -3.261719 C 0.515625 -3.582031 0.628906 -3.84375 0.789062 -4.042969 C 0.945312 -4.242188 1.171875 -4.394531 1.472656 -4.503906 C 1.769531 -4.609375 2.117188 -4.664062 2.507812 -4.667969 C 2.898438 -4.664062 3.214844 -4.617188 3.457031 -4.527344 C 3.699219 -4.433594 3.878906 -4.320312 3.996094 -4.183594 C 4.109375 -4.042969 4.1875 -3.867188 4.238281 -3.65625 C 4.257812 -3.523438 4.269531 -3.285156 4.273438 -2.945312 L 4.273438 -1.914062 C 4.269531 -1.191406 4.289062 -0.734375 4.324219 -0.546875 C 4.355469 -0.351562 4.417969 -0.171875 4.519531 0 L 3.710938 0 C 3.628906 -0.160156 3.578125 -0.347656 3.558594 -0.5625 Z M 3.492188 -2.289062 C 3.210938 -2.171875 2.789062 -2.074219 2.230469 -2 C 1.910156 -1.949219 1.683594 -1.898438 1.554688 -1.84375 C 1.421875 -1.785156 1.320312 -1.699219 1.25 -1.589844 C 1.175781 -1.476562 1.140625 -1.355469 1.144531 -1.226562 C 1.140625 -1.015625 1.21875 -0.84375 1.378906 -0.707031 C 1.53125 -0.570312 1.761719 -0.503906 2.0625 -0.503906 C 2.359375 -0.503906 2.621094 -0.566406 2.855469 -0.699219 C 3.085938 -0.824219 3.257812 -1.003906 3.367188 -1.234375 C 3.449219 -1.40625 3.492188 -1.664062 3.492188 -2.007812 Z M 3.492188 -2.289062 "/>
</g>
<g id="glyph-0-11">
<path d="M 0.292969 -2.28125 C 0.292969 -3.125 0.527344 -3.753906 0.996094 -4.160156 C 1.386719 -4.496094 1.863281 -4.664062 2.433594 -4.667969 C 3.058594 -4.664062 3.570312 -4.457031 3.96875 -4.050781 C 4.363281 -3.636719 4.5625 -3.070312 4.566406 -2.347656 C 4.5625 -1.757812 4.476562 -1.296875 4.300781 -0.960938 C 4.125 -0.625 3.867188 -0.363281 3.535156 -0.175781 C 3.195312 0.0078125 2.828125 0.0976562 2.433594 0.101562 C 1.789062 0.0976562 1.273438 -0.101562 0.882812 -0.511719 C 0.488281 -0.917969 0.292969 -1.507812 0.292969 -2.28125 Z M 1.085938 -2.28125 C 1.082031 -1.695312 1.210938 -1.257812 1.46875 -0.96875 C 1.722656 -0.671875 2.042969 -0.527344 2.433594 -0.53125 C 2.8125 -0.527344 3.132812 -0.671875 3.390625 -0.96875 C 3.644531 -1.257812 3.773438 -1.707031 3.773438 -2.308594 C 3.773438 -2.871094 3.644531 -3.296875 3.386719 -3.589844 C 3.128906 -3.878906 2.808594 -4.023438 2.433594 -4.027344 C 2.042969 -4.023438 1.722656 -3.878906 1.46875 -3.59375 C 1.210938 -3.300781 1.082031 -2.863281 1.085938 -2.28125 Z M 1.085938 -2.28125 "/>
</g>
<g id="glyph-0-12">
<path d="M 0.578125 0 L 0.578125 -4.5625 L 1.273438 -4.5625 L 1.273438 -3.921875 C 1.414062 -4.140625 1.605469 -4.320312 1.84375 -4.460938 C 2.078125 -4.59375 2.347656 -4.664062 2.65625 -4.667969 C 2.992188 -4.664062 3.269531 -4.59375 3.488281 -4.457031 C 3.699219 -4.3125 3.851562 -4.117188 3.945312 -3.867188 C 4.300781 -4.398438 4.773438 -4.664062 5.355469 -4.667969 C 5.804688 -4.664062 6.148438 -4.539062 6.394531 -4.289062 C 6.636719 -4.039062 6.761719 -3.652344 6.761719 -3.132812 L 6.761719 0 L 5.996094 0 L 5.996094 -2.875 C 5.992188 -3.183594 5.96875 -3.40625 5.917969 -3.542969 C 5.867188 -3.675781 5.773438 -3.785156 5.644531 -3.871094 C 5.511719 -3.953125 5.359375 -3.996094 5.183594 -3.996094 C 4.859375 -3.996094 4.59375 -3.886719 4.382812 -3.675781 C 4.171875 -3.457031 4.066406 -3.117188 4.066406 -2.652344 L 4.066406 0 L 3.292969 0 L 3.292969 -2.964844 C 3.292969 -3.308594 3.226562 -3.566406 3.101562 -3.738281 C 2.972656 -3.910156 2.769531 -3.996094 2.484375 -3.996094 C 2.265625 -3.996094 2.0625 -3.9375 1.878906 -3.824219 C 1.691406 -3.707031 1.558594 -3.539062 1.476562 -3.320312 C 1.390625 -3.097656 1.347656 -2.78125 1.351562 -2.367188 L 1.351562 0 Z M 0.578125 0 "/>
</g>
<g id="glyph-0-13">
<path d="M 0.5625 0 L 0.5625 -6.300781 L 1.335938 -6.300781 L 1.335938 0 Z M 0.5625 0 "/>
</g>
<g id="glyph-0-14">
<path d="M 0.28125 -1.890625 L 0.28125 -2.667969 L 2.65625 -2.667969 L 2.65625 -1.890625 Z M 0.28125 -1.890625 "/>
</g>
<g id="glyph-0-15">
<path d="M 0.367188 -3.105469 C 0.363281 -3.847656 0.4375 -4.445312 0.59375 -4.902344 C 0.742188 -5.355469 0.972656 -5.707031 1.277344 -5.953125 C 1.578125 -6.199219 1.957031 -6.320312 2.417969 -6.324219 C 2.753906 -6.320312 3.050781 -6.253906 3.308594 -6.121094 C 3.5625 -5.984375 3.773438 -5.789062 3.9375 -5.53125 C 4.101562 -5.273438 4.230469 -4.960938 4.328125 -4.59375 C 4.421875 -4.226562 4.46875 -3.730469 4.472656 -3.105469 C 4.46875 -2.367188 4.394531 -1.769531 4.242188 -1.316406 C 4.089844 -0.859375 3.863281 -0.507812 3.5625 -0.261719 C 3.257812 -0.015625 2.875 0.105469 2.417969 0.109375 C 1.808594 0.105469 1.332031 -0.109375 0.988281 -0.546875 C 0.570312 -1.066406 0.363281 -1.921875 0.367188 -3.105469 Z M 1.160156 -3.105469 C 1.160156 -2.070312 1.28125 -1.378906 1.523438 -1.039062 C 1.765625 -0.695312 2.0625 -0.527344 2.417969 -0.527344 C 2.773438 -0.527344 3.074219 -0.699219 3.316406 -1.042969 C 3.558594 -1.386719 3.679688 -2.074219 3.679688 -3.105469 C 3.679688 -4.144531 3.558594 -4.832031 3.316406 -5.171875 C 3.074219 -5.511719 2.769531 -5.683594 2.410156 -5.683594 C 2.050781 -5.683594 1.769531 -5.53125 1.558594 -5.234375 C 1.292969 -4.84375 1.160156 -4.136719 1.160156 -3.105469 Z M 1.160156 -3.105469 "/>
</g>
<g id="glyph-0-16">
<path d="M 0.800781 0 L 0.800781 -0.882812 L 1.679688 -0.882812 L 1.679688 0 Z M 0.800781 0 "/>
</g>
<g id="glyph-0-17">
<path d="M 2.84375 0 L 2.84375 -1.507812 L 0.113281 -1.507812 L 0.113281 -2.21875 L 2.988281 -6.300781 L 3.617188 -6.300781 L 3.617188 -2.21875 L 4.46875 -2.21875 L 4.46875 -1.507812 L 3.617188 -1.507812 L 3.617188 0 Z M 2.84375 -2.21875 L 2.84375 -5.058594 L 0.871094 -2.21875 Z M 2.84375 -2.21875 "/>
</g>
<g id="glyph-0-18">
<path d="M 4.429688 -0.742188 L 4.429688 0 L 0.265625 0 C 0.257812 -0.1875 0.289062 -0.367188 0.355469 -0.539062 C 0.460938 -0.820312 0.628906 -1.097656 0.863281 -1.375 C 1.09375 -1.648438 1.433594 -1.964844 1.878906 -2.328125 C 2.5625 -2.886719 3.023438 -3.332031 3.265625 -3.664062 C 3.5 -3.988281 3.621094 -4.300781 3.625 -4.59375 C 3.621094 -4.898438 3.511719 -5.15625 3.296875 -5.367188 C 3.074219 -5.578125 2.789062 -5.683594 2.441406 -5.683594 C 2.066406 -5.683594 1.769531 -5.570312 1.546875 -5.347656 C 1.320312 -5.125 1.207031 -4.816406 1.207031 -4.421875 L 0.414062 -4.503906 C 0.464844 -5.09375 0.667969 -5.542969 1.027344 -5.855469 C 1.378906 -6.164062 1.855469 -6.320312 2.457031 -6.324219 C 3.058594 -6.320312 3.539062 -6.152344 3.890625 -5.820312 C 4.242188 -5.484375 4.417969 -5.070312 4.421875 -4.578125 C 4.417969 -4.320312 4.367188 -4.074219 4.265625 -3.832031 C 4.164062 -3.589844 3.992188 -3.332031 3.753906 -3.0625 C 3.511719 -2.792969 3.113281 -2.425781 2.5625 -1.957031 C 2.09375 -1.566406 1.796875 -1.300781 1.664062 -1.160156 C 1.53125 -1.019531 1.421875 -0.878906 1.339844 -0.742188 Z M 4.429688 -0.742188 "/>
</g>
<g id="glyph-0-19">
<path d="M 3.277344 0 L 2.503906 0 L 2.503906 -4.929688 C 2.316406 -4.75 2.074219 -4.574219 1.773438 -4.394531 C 1.46875 -4.214844 1.195312 -4.082031 0.957031 -3.996094 L 0.957031 -4.742188 C 1.386719 -4.941406 1.765625 -5.1875 2.089844 -5.480469 C 2.414062 -5.769531 2.644531 -6.050781 2.78125 -6.324219 L 3.277344 -6.324219 Z M 3.277344 0 "/>
</g>
<g id="glyph-0-20">
<path d="M 0.371094 -1.664062 L 1.144531 -1.765625 C 1.230469 -1.324219 1.382812 -1.007812 1.597656 -0.816406 C 1.808594 -0.621094 2.066406 -0.527344 2.375 -0.527344 C 2.734375 -0.527344 3.042969 -0.652344 3.296875 -0.90625 C 3.546875 -1.15625 3.671875 -1.46875 3.675781 -1.84375 C 3.671875 -2.195312 3.554688 -2.488281 3.324219 -2.71875 C 3.089844 -2.949219 2.796875 -3.0625 2.441406 -3.066406 C 2.292969 -3.0625 2.109375 -3.035156 1.894531 -2.980469 L 1.980469 -3.660156 C 2.03125 -3.652344 2.070312 -3.648438 2.105469 -3.652344 C 2.433594 -3.648438 2.730469 -3.734375 2.996094 -3.910156 C 3.253906 -4.078125 3.386719 -4.34375 3.390625 -4.703125 C 3.386719 -4.984375 3.289062 -5.21875 3.101562 -5.40625 C 2.90625 -5.589844 2.660156 -5.683594 2.359375 -5.6875 C 2.054688 -5.683594 1.804688 -5.589844 1.605469 -5.402344 C 1.402344 -5.214844 1.273438 -4.929688 1.21875 -4.554688 L 0.445312 -4.691406 C 0.539062 -5.207031 0.753906 -5.609375 1.089844 -5.894531 C 1.425781 -6.179688 1.84375 -6.320312 2.34375 -6.324219 C 2.6875 -6.320312 3.003906 -6.246094 3.292969 -6.101562 C 3.582031 -5.953125 3.800781 -5.753906 3.953125 -5.5 C 4.105469 -5.242188 4.183594 -4.972656 4.183594 -4.6875 C 4.183594 -4.414062 4.109375 -4.164062 3.964844 -3.945312 C 3.816406 -3.71875 3.601562 -3.542969 3.316406 -3.410156 C 3.6875 -3.324219 3.976562 -3.144531 4.183594 -2.875 C 4.390625 -2.601562 4.492188 -2.261719 4.496094 -1.859375 C 4.492188 -1.304688 4.292969 -0.839844 3.894531 -0.460938 C 3.492188 -0.078125 2.984375 0.109375 2.371094 0.113281 C 1.816406 0.109375 1.355469 -0.0507812 0.992188 -0.378906 C 0.625 -0.707031 0.417969 -1.136719 0.371094 -1.664062 Z M 0.371094 -1.664062 "/>
</g>
<g id="glyph-1-0">
<path d="M 0 -2.308594 L -5.703125 -0.140625 L -5.703125 -1.160156 L -2.289062 -2.382812 C -1.917969 -2.511719 -1.535156 -2.632812 -1.136719 -2.75 C -1.4375 -2.832031 -1.796875 -2.953125 -2.222656 -3.109375 L -5.703125 -4.378906 L -5.703125 -5.371094 L 0 -3.210938 Z M 0 -2.308594 "/>
</g>
<g id="glyph-1-1">
<path d="M -0.703125 -4.445312 C -0.398438 -4.085938 -0.183594 -3.742188 -0.0585938 -3.414062 C 0.0664062 -3.082031 0.128906 -2.726562 0.128906 -2.347656 C 0.128906 -1.71875 -0.0234375 -1.238281 -0.328125 -0.902344 C -0.632812 -0.566406 -1.023438 -0.398438 -1.503906 -0.398438 C -1.78125 -0.398438 -2.035156 -0.460938 -2.269531 -0.585938 C -2.496094 -0.710938 -2.683594 -0.875 -2.824219 -1.085938 C -2.964844 -1.289062 -3.070312 -1.523438 -3.140625 -1.785156 C -3.191406 -1.96875 -3.238281 -2.253906 -3.289062 -2.640625 C -3.375 -3.417969 -3.488281 -3.992188 -3.621094 -4.367188 C -3.753906 -4.367188 -3.835938 -4.371094 -3.871094 -4.371094 C -4.265625 -4.371094 -4.542969 -4.277344 -4.703125 -4.097656 C -4.917969 -3.847656 -5.027344 -3.480469 -5.03125 -2.996094 C -5.027344 -2.539062 -4.949219 -2.203125 -4.792969 -1.988281 C -4.632812 -1.769531 -4.351562 -1.609375 -3.949219 -1.507812 L -4.078125 -0.5625 C -4.480469 -0.648438 -4.804688 -0.789062 -5.054688 -0.988281 C -5.300781 -1.183594 -5.492188 -1.46875 -5.628906 -1.84375 C -5.761719 -2.214844 -5.828125 -2.644531 -5.832031 -3.136719 C -5.828125 -3.621094 -5.773438 -4.019531 -5.660156 -4.324219 C -5.542969 -4.628906 -5.398438 -4.851562 -5.226562 -4.996094 C -5.054688 -5.136719 -4.835938 -5.238281 -4.570312 -5.296875 C -4.40625 -5.328125 -4.109375 -5.34375 -3.679688 -5.34375 L -2.390625 -5.34375 C -1.492188 -5.34375 -0.921875 -5.363281 -0.683594 -5.40625 C -0.445312 -5.445312 -0.21875 -5.527344 0 -5.648438 L 0 -4.640625 C -0.199219 -4.539062 -0.433594 -4.472656 -0.703125 -4.445312 Z M -2.863281 -4.367188 C -2.71875 -4.011719 -2.597656 -3.488281 -2.496094 -2.789062 C -2.4375 -2.390625 -2.371094 -2.109375 -2.300781 -1.945312 C -2.226562 -1.78125 -2.121094 -1.652344 -1.988281 -1.5625 C -1.847656 -1.472656 -1.695312 -1.429688 -1.53125 -1.429688 C -1.269531 -1.429688 -1.054688 -1.527344 -0.886719 -1.722656 C -0.710938 -1.917969 -0.625 -2.203125 -0.628906 -2.578125 C -0.625 -2.949219 -0.707031 -3.277344 -0.871094 -3.570312 C -1.03125 -3.859375 -1.253906 -4.074219 -1.542969 -4.210938 C -1.753906 -4.3125 -2.078125 -4.363281 -2.507812 -4.367188 Z M -2.863281 -4.367188 "/>
</g>
<g id="glyph-1-2">
<path d="M 0 -0.703125 L -7.875 -0.703125 L -7.875 -1.671875 L 0 -1.671875 Z M 0 -0.703125 "/>
</g>
<g id="glyph-1-3">
<path d="M 0 -4.464844 L -0.835938 -4.464844 C -0.191406 -4.019531 0.128906 -3.414062 0.128906 -2.652344 C 0.128906 -2.3125 0.0664062 -2 -0.0625 -1.710938 C -0.191406 -1.417969 -0.355469 -1.199219 -0.550781 -1.058594 C -0.746094 -0.914062 -0.984375 -0.816406 -1.265625 -0.761719 C -1.453125 -0.722656 -1.753906 -0.703125 -2.171875 -0.703125 L -5.703125 -0.703125 L -5.703125 -1.671875 L -2.539062 -1.671875 C -2.03125 -1.667969 -1.691406 -1.6875 -1.519531 -1.730469 C -1.261719 -1.785156 -1.0625 -1.914062 -0.917969 -2.113281 C -0.773438 -2.308594 -0.703125 -2.554688 -0.703125 -2.847656 C -0.703125 -3.136719 -0.777344 -3.40625 -0.925781 -3.660156 C -1.074219 -3.914062 -1.273438 -4.09375 -1.53125 -4.199219 C -1.785156 -4.304688 -2.160156 -4.359375 -2.648438 -4.359375 L -5.703125 -4.359375 L -5.703125 -5.328125 L 0 -5.328125 Z M 0 -4.464844 "/>
</g>
<g id="glyph-1-4">
<path d="M -1.835938 -4.628906 L -1.714844 -5.628906 C -1.125 -5.46875 -0.671875 -5.175781 -0.351562 -4.75 C -0.03125 -4.324219 0.128906 -3.78125 0.128906 -3.121094 C 0.128906 -2.28125 -0.125 -1.617188 -0.640625 -1.132812 C -1.152344 -0.640625 -1.875 -0.398438 -2.804688 -0.402344 C -3.761719 -0.398438 -4.503906 -0.644531 -5.035156 -1.144531 C -5.5625 -1.636719 -5.828125 -2.277344 -5.832031 -3.066406 C -5.828125 -3.824219 -5.570312 -4.449219 -5.050781 -4.933594 C -4.53125 -5.417969 -3.800781 -5.660156 -2.863281 -5.660156 C -2.804688 -5.660156 -2.71875 -5.65625 -2.605469 -5.65625 L -2.605469 -1.402344 C -1.976562 -1.433594 -1.496094 -1.613281 -1.164062 -1.933594 C -0.828125 -2.25 -0.660156 -2.644531 -0.664062 -3.125 C -0.660156 -3.476562 -0.753906 -3.78125 -0.941406 -4.03125 C -1.125 -4.28125 -1.421875 -4.480469 -1.835938 -4.628906 Z M -3.398438 -1.457031 L -3.398438 -4.640625 C -3.878906 -4.597656 -4.238281 -4.472656 -4.480469 -4.273438 C -4.851562 -3.960938 -5.039062 -3.5625 -5.039062 -3.078125 C -5.039062 -2.628906 -4.890625 -2.257812 -4.59375 -1.957031 C -4.296875 -1.652344 -3.898438 -1.484375 -3.398438 -1.457031 Z M -3.398438 -1.457031 "/>
</g>
<g id="glyph-2-0">
<path d="M 2.835938 -0.863281 L 2.976562 -0.0117188 C 2.703125 0.0429688 2.457031 0.0703125 2.246094 0.0742188 C 1.890625 0.0703125 1.621094 0.0195312 1.429688 -0.0898438 C 1.234375 -0.199219 1.097656 -0.347656 1.019531 -0.527344 C 0.941406 -0.707031 0.902344 -1.085938 0.902344 -1.671875 L 0.902344 -4.953125 L 0.195312 -4.953125 L 0.195312 -5.703125 L 0.902344 -5.703125 L 0.902344 -7.117188 L 1.863281 -7.695312 L 1.863281 -5.703125 L 2.835938 -5.703125 L 2.835938 -4.953125 L 1.863281 -4.953125 L 1.863281 -1.617188 C 1.863281 -1.339844 1.878906 -1.160156 1.914062 -1.085938 C 1.945312 -1.003906 2 -0.941406 2.078125 -0.898438 C 2.152344 -0.847656 2.261719 -0.824219 2.410156 -0.828125 C 2.515625 -0.824219 2.660156 -0.835938 2.835938 -0.863281 Z M 2.835938 -0.863281 "/>
</g>
<g id="glyph-2-1">
<path d="M 0.730469 -6.761719 L 0.730469 -7.875 L 1.695312 -7.875 L 1.695312 -6.761719 Z M 0.730469 0 L 0.730469 -5.703125 L 1.695312 -5.703125 L 1.695312 0 Z M 0.730469 0 "/>
</g>
<g id="glyph-2-2">
<path d="M 0.726562 2.1875 L 0.726562 -5.703125 L 1.605469 -5.703125 L 1.605469 -4.960938 C 1.8125 -5.25 2.046875 -5.46875 2.308594 -5.613281 C 2.570312 -5.757812 2.886719 -5.828125 3.261719 -5.832031 C 3.746094 -5.828125 4.175781 -5.703125 4.550781 -5.457031 C 4.921875 -5.203125 5.203125 -4.851562 5.390625 -4.394531 C 5.578125 -3.9375 5.671875 -3.4375 5.675781 -2.894531 C 5.671875 -2.308594 5.566406 -1.78125 5.359375 -1.316406 C 5.148438 -0.847656 4.84375 -0.488281 4.449219 -0.242188 C 4.046875 0.0078125 3.628906 0.128906 3.191406 0.128906 C 2.867188 0.128906 2.578125 0.0625 2.320312 -0.0742188 C 2.0625 -0.210938 1.851562 -0.382812 1.691406 -0.589844 L 1.691406 2.1875 Z M 1.601562 -2.820312 C 1.597656 -2.082031 1.746094 -1.539062 2.046875 -1.191406 C 2.339844 -0.835938 2.699219 -0.660156 3.125 -0.664062 C 3.550781 -0.660156 3.917969 -0.84375 4.226562 -1.210938 C 4.53125 -1.574219 4.6875 -2.136719 4.6875 -2.898438 C 4.6875 -3.625 4.535156 -4.167969 4.238281 -4.53125 C 3.9375 -4.890625 3.582031 -5.074219 3.167969 -5.074219 C 2.753906 -5.074219 2.390625 -4.878906 2.074219 -4.496094 C 1.757812 -4.109375 1.597656 -3.550781 1.601562 -2.820312 Z M 1.601562 -2.820312 "/>
</g>
<g id="glyph-2-3">
<path d="M 0.367188 -2.851562 C 0.363281 -3.90625 0.65625 -4.6875 1.246094 -5.199219 C 1.734375 -5.617188 2.332031 -5.828125 3.039062 -5.832031 C 3.820312 -5.828125 4.460938 -5.574219 4.960938 -5.0625 C 5.457031 -4.546875 5.707031 -3.835938 5.710938 -2.933594 C 5.707031 -2.195312 5.597656 -1.617188 5.378906 -1.199219 C 5.15625 -0.777344 4.832031 -0.449219 4.414062 -0.21875 C 3.992188 0.015625 3.535156 0.128906 3.039062 0.128906 C 2.238281 0.128906 1.59375 -0.125 1.105469 -0.636719 C 0.609375 -1.148438 0.363281 -1.886719 0.367188 -2.851562 Z M 1.359375 -2.851562 C 1.359375 -2.121094 1.515625 -1.574219 1.835938 -1.210938 C 2.152344 -0.84375 2.554688 -0.660156 3.039062 -0.664062 C 3.515625 -0.660156 3.914062 -0.84375 4.234375 -1.210938 C 4.550781 -1.574219 4.710938 -2.132812 4.714844 -2.882812 C 4.710938 -3.585938 4.550781 -4.117188 4.234375 -4.484375 C 3.910156 -4.84375 3.511719 -5.027344 3.039062 -5.03125 C 2.554688 -5.027344 2.152344 -4.847656 1.835938 -4.488281 C 1.515625 -4.128906 1.359375 -3.582031 1.359375 -2.851562 Z M 1.359375 -2.851562 "/>
</g>
</g>
<clipPath id="clip-0">
<path clip-rule="nonzero" d="M 31.164062 215 L 94.546875 215 L 94.546875 217 L 31.164062 217 Z M 31.164062 215 "/>
</clipPath>
<clipPath id="clip-1">
<path clip-rule="nonzero" d="M 31.164062 182 L 94.546875 182 L 94.546875 183 L 31.164062 183 Z M 31.164062 182 "/>
</clipPath>
<clipPath id="clip-2">
<path clip-rule="nonzero" d="M 31.164062 148 L 94.546875 148 L 94.546875 150 L 31.164062 150 Z M 31.164062 148 "/>
</clipPath>
<clipPath id="clip-3">
<path clip-rule="nonzero" d="M 31.164062 115 L 94.546875 115 L 94.546875 116 L 31.164062 116 Z M 31.164062 115 "/>
</clipPath>
<clipPath id="clip-4">
<path clip-rule="nonzero" d="M 31.164062 81 L 94.546875 81 L 94.546875 82 L 31.164062 82 Z M 31.164062 81 "/>
</clipPath>
<clipPath id="clip-5">
<path clip-rule="nonzero" d="M 31.164062 47 L 94.546875 47 L 94.546875 49 L 31.164062 49 Z M 31.164062 47 "/>
</clipPath>
<clipPath id="clip-6">
<path clip-rule="nonzero" d="M 39 22.398438 L 41 22.398438 L 41 233.4375 L 39 233.4375 Z M 39 22.398438 "/>
</clipPath>
<clipPath id="clip-7">
<path clip-rule="nonzero" d="M 54 22.398438 L 56 22.398438 L 56 233.4375 L 54 233.4375 Z M 54 22.398438 "/>
</clipPath>
<clipPath id="clip-8">
<path clip-rule="nonzero" d="M 70 22.398438 L 71 22.398438 L 71 233.4375 L 70 233.4375 Z M 70 22.398438 "/>
</clipPath>
<clipPath id="clip-9">
<path clip-rule="nonzero" d="M 85 22.398438 L 87 22.398438 L 87 233.4375 L 85 233.4375 Z M 85 22.398438 "/>
</clipPath>
<clipPath id="clip-10">
<path clip-rule="nonzero" d="M 31.164062 232 L 94.546875 232 L 94.546875 233.4375 L 31.164062 233.4375 Z M 31.164062 232 "/>
</clipPath>
<clipPath id="clip-11">
<path clip-rule="nonzero" d="M 31.164062 198 L 94.546875 198 L 94.546875 200 L 31.164062 200 Z M 31.164062 198 "/>
</clipPath>
<clipPath id="clip-12">
<path clip-rule="nonzero" d="M 31.164062 165 L 94.546875 165 L 94.546875 167 L 31.164062 167 Z M 31.164062 165 "/>
</clipPath>
<clipPath id="clip-13">
<path clip-rule="nonzero" d="M 31.164062 131 L 94.546875 131 L 94.546875 133 L 31.164062 133 Z M 31.164062 131 "/>
</clipPath>
<clipPath id="clip-14">
<path clip-rule="nonzero" d="M 31.164062 97 L 94.546875 97 L 94.546875 100 L 31.164062 100 Z M 31.164062 97 "/>
</clipPath>
<clipPath id="clip-15">
<path clip-rule="nonzero" d="M 31.164062 64 L 94.546875 64 L 94.546875 66 L 31.164062 66 Z M 31.164062 64 "/>
</clipPath>
<clipPath id="clip-16">
<path clip-rule="nonzero" d="M 31.164062 30 L 94.546875 30 L 94.546875 32 L 31.164062 32 Z M 31.164062 30 "/>
</clipPath>
<clipPath id="clip-17">
<path clip-rule="nonzero" d="M 31.164062 22.398438 L 33 22.398438 L 33 233.4375 L 31.164062 233.4375 Z M 31.164062 22.398438 "/>
</clipPath>
<clipPath id="clip-18">
<path clip-rule="nonzero" d="M 46 22.398438 L 49 22.398438 L 49 233.4375 L 46 233.4375 Z M 46 22.398438 "/>
</clipPath>
<clipPath id="clip-19">
<path clip-rule="nonzero" d="M 62 22.398438 L 64 22.398438 L 64 233.4375 L 62 233.4375 Z M 62 22.398438 "/>
</clipPath>
<clipPath id="clip-20">
<path clip-rule="nonzero" d="M 77 22.398438 L 79 22.398438 L 79 233.4375 L 77 233.4375 Z M 77 22.398438 "/>
</clipPath>
<clipPath id="clip-21">
<path clip-rule="nonzero" d="M 93 22.398438 L 94.546875 22.398438 L 94.546875 233.4375 L 93 233.4375 Z M 93 22.398438 "/>
</clipPath>
<clipPath id="clip-22">
<path clip-rule="nonzero" d="M 112.78125 217 L 176.164062 217 L 176.164062 218 L 112.78125 218 Z M 112.78125 217 "/>
</clipPath>
<clipPath id="clip-23">
<path clip-rule="nonzero" d="M 112.78125 182 L 176.164062 182 L 176.164062 184 L 112.78125 184 Z M 112.78125 182 "/>
</clipPath>
<clipPath id="clip-24">
<path clip-rule="nonzero" d="M 112.78125 148 L 176.164062 148 L 176.164062 150 L 112.78125 150 Z M 112.78125 148 "/>
</clipPath>
<clipPath id="clip-25">
<path clip-rule="nonzero" d="M 112.78125 114 L 176.164062 114 L 176.164062 116 L 112.78125 116 Z M 112.78125 114 "/>
</clipPath>
<clipPath id="clip-26">
<path clip-rule="nonzero" d="M 112.78125 80 L 176.164062 80 L 176.164062 81 L 112.78125 81 Z M 112.78125 80 "/>
</clipPath>
<clipPath id="clip-27">
<path clip-rule="nonzero" d="M 112.78125 46 L 176.164062 46 L 176.164062 47 L 112.78125 47 Z M 112.78125 46 "/>
</clipPath>
<clipPath id="clip-28">
<path clip-rule="nonzero" d="M 121 22.398438 L 122 22.398438 L 122 233.4375 L 121 233.4375 Z M 121 22.398438 "/>
</clipPath>
<clipPath id="clip-29">
<path clip-rule="nonzero" d="M 136 22.398438 L 138 22.398438 L 138 233.4375 L 136 233.4375 Z M 136 22.398438 "/>
</clipPath>
<clipPath id="clip-30">
<path clip-rule="nonzero" d="M 151 22.398438 L 153 22.398438 L 153 233.4375 L 151 233.4375 Z M 151 22.398438 "/>
</clipPath>
<clipPath id="clip-31">
<path clip-rule="nonzero" d="M 167 22.398438 L 168 22.398438 L 168 233.4375 L 167 233.4375 Z M 167 22.398438 "/>
</clipPath>
<clipPath id="clip-32">
<path clip-rule="nonzero" d="M 112.78125 199 L 176.164062 199 L 176.164062 201 L 112.78125 201 Z M 112.78125 199 "/>
</clipPath>
<clipPath id="clip-33">
<path clip-rule="nonzero" d="M 112.78125 165 L 176.164062 165 L 176.164062 167 L 112.78125 167 Z M 112.78125 165 "/>
</clipPath>
<clipPath id="clip-34">
<path clip-rule="nonzero" d="M 112.78125 131 L 176.164062 131 L 176.164062 133 L 112.78125 133 Z M 112.78125 131 "/>
</clipPath>
<clipPath id="clip-35">
<path clip-rule="nonzero" d="M 112.78125 97 L 176.164062 97 L 176.164062 99 L 112.78125 99 Z M 112.78125 97 "/>
</clipPath>
<clipPath id="clip-36">
<path clip-rule="nonzero" d="M 112.78125 63 L 176.164062 63 L 176.164062 65 L 112.78125 65 Z M 112.78125 63 "/>
</clipPath>
<clipPath id="clip-37">
<path clip-rule="nonzero" d="M 112.78125 28 L 176.164062 28 L 176.164062 30 L 112.78125 30 Z M 112.78125 28 "/>
</clipPath>
<clipPath id="clip-38">
<path clip-rule="nonzero" d="M 113 22.398438 L 115 22.398438 L 115 233.4375 L 113 233.4375 Z M 113 22.398438 "/>
</clipPath>
<clipPath id="clip-39">
<path clip-rule="nonzero" d="M 128 22.398438 L 130 22.398438 L 130 233.4375 L 128 233.4375 Z M 128 22.398438 "/>
</clipPath>
<clipPath id="clip-40">
<path clip-rule="nonzero" d="M 143 22.398438 L 146 22.398438 L 146 233.4375 L 143 233.4375 Z M 143 22.398438 "/>
</clipPath>
<clipPath id="clip-41">
<path clip-rule="nonzero" d="M 159 22.398438 L 161 22.398438 L 161 233.4375 L 159 233.4375 Z M 159 22.398438 "/>
</clipPath>
<clipPath id="clip-42">
<path clip-rule="nonzero" d="M 174 22.398438 L 176 22.398438 L 176 233.4375 L 174 233.4375 Z M 174 22.398438 "/>
</clipPath>
<clipPath id="clip-43">
<path clip-rule="nonzero" d="M 199.292969 215 L 262.675781 215 L 262.675781 216 L 199.292969 216 Z M 199.292969 215 "/>
</clipPath>
<clipPath id="clip-44">
<path clip-rule="nonzero" d="M 199.292969 159 L 262.675781 159 L 262.675781 161 L 199.292969 161 Z M 199.292969 159 "/>
</clipPath>
<clipPath id="clip-45">
<path clip-rule="nonzero" d="M 199.292969 103 L 262.675781 103 L 262.675781 105 L 199.292969 105 Z M 199.292969 103 "/>
</clipPath>
<clipPath id="clip-46">
<path clip-rule="nonzero" d="M 199.292969 48 L 262.675781 48 L 262.675781 49 L 199.292969 49 Z M 199.292969 48 "/>
</clipPath>
<clipPath id="clip-47">
<path clip-rule="nonzero" d="M 207 22.398438 L 209 22.398438 L 209 233.4375 L 207 233.4375 Z M 207 22.398438 "/>
</clipPath>
<clipPath id="clip-48">
<path clip-rule="nonzero" d="M 223 22.398438 L 224 22.398438 L 224 233.4375 L 223 233.4375 Z M 223 22.398438 "/>
</clipPath>
<clipPath id="clip-49">
<path clip-rule="nonzero" d="M 238 22.398438 L 239 22.398438 L 239 233.4375 L 238 233.4375 Z M 238 22.398438 "/>
</clipPath>
<clipPath id="clip-50">
<path clip-rule="nonzero" d="M 253 22.398438 L 255 22.398438 L 255 233.4375 L 253 233.4375 Z M 253 22.398438 "/>
</clipPath>
<clipPath id="clip-51">
<path clip-rule="nonzero" d="M 199.292969 187 L 262.675781 187 L 262.675781 189 L 199.292969 189 Z M 199.292969 187 "/>
</clipPath>
<clipPath id="clip-52">
<path clip-rule="nonzero" d="M 199.292969 131 L 262.675781 131 L 262.675781 133 L 199.292969 133 Z M 199.292969 131 "/>
</clipPath>
<clipPath id="clip-53">
<path clip-rule="nonzero" d="M 199.292969 75 L 262.675781 75 L 262.675781 77 L 199.292969 77 Z M 199.292969 75 "/>
</clipPath>
<clipPath id="clip-54">
<path clip-rule="nonzero" d="M 199.292969 22.398438 L 201 22.398438 L 201 233.4375 L 199.292969 233.4375 Z M 199.292969 22.398438 "/>
</clipPath>
<clipPath id="clip-55">
<path clip-rule="nonzero" d="M 215 22.398438 L 217 22.398438 L 217 233.4375 L 215 233.4375 Z M 215 22.398438 "/>
</clipPath>
<clipPath id="clip-56">
<path clip-rule="nonzero" d="M 230 22.398438 L 232 22.398438 L 232 233.4375 L 230 233.4375 Z M 230 22.398438 "/>
</clipPath>
<clipPath id="clip-57">
<path clip-rule="nonzero" d="M 245 22.398438 L 247 22.398438 L 247 233.4375 L 245 233.4375 Z M 245 22.398438 "/>
</clipPath>
<clipPath id="clip-58">
<path clip-rule="nonzero" d="M 261 22.398438 L 262.675781 22.398438 L 262.675781 233.4375 L 261 233.4375 Z M 261 22.398438 "/>
</clipPath>
<clipPath id="clip-59">
<path clip-rule="nonzero" d="M 31.164062 10 L 94.546875 10 L 94.546875 19 L 31.164062 19 Z M 31.164062 10 "/>
</clipPath>
<clipPath id="clip-60">
<path clip-rule="nonzero" d="M 112.78125 10 L 176.164062 10 L 176.164062 19 L 112.78125 19 Z M 112.78125 10 "/>
</clipPath>
</defs>
<rect x="-39.6" y="-25.2" width="475.2" height="302.4" fill="rgb(100%, 100%, 100%)" fill-opacity="1"/>
<rect x="-39.6" y="-25.2" width="475.2" height="302.4" fill="rgb(100%, 100%, 100%)" fill-opacity="1"/>
<g clip-path="url(#clip-0)">
<path fill="none" stroke-width="0.533489" stroke-linecap="butt" stroke-linejoin="round" stroke="rgb(92.156863%, 92.156863%, 92.156863%)" stroke-opacity="1" stroke-miterlimit="10" d="M 31.164062 216.144531 L 94.546875 216.144531 "/>
</g>
<g clip-path="url(#clip-1)">
<path fill="none" stroke-width="0.533489" stroke-linecap="butt" stroke-linejoin="round" stroke="rgb(92.156863%, 92.156863%, 92.156863%)" stroke-opacity="1" stroke-miterlimit="10" d="M 31.164062 182.527344 L 94.546875 182.527344 "/>
</g>
<g clip-path="url(#clip-2)">
<path fill="none" stroke-width="0.533489" stroke-linecap="butt" stroke-linejoin="round" stroke="rgb(92.156863%, 92.156863%, 92.156863%)" stroke-opacity="1" stroke-miterlimit="10" d="M 31.164062 148.914062 L 94.546875 148.914062 "/>
</g>
<g clip-path="url(#clip-3)">
<path fill="none" stroke-width="0.533489" stroke-linecap="butt" stroke-linejoin="round" stroke="rgb(92.156863%, 92.156863%, 92.156863%)" stroke-opacity="1" stroke-miterlimit="10" d="M 31.164062 115.300781 L 94.546875 115.300781 "/>
</g>
<g clip-path="url(#clip-4)">
<path fill="none" stroke-width="0.533489" stroke-linecap="butt" stroke-linejoin="round" stroke="rgb(92.156863%, 92.156863%, 92.156863%)" stroke-opacity="1" stroke-miterlimit="10" d="M 31.164062 81.683594 L 94.546875 81.683594 "/>
</g>
<g clip-path="url(#clip-5)">
<path fill="none" stroke-width="0.533489" stroke-linecap="butt" stroke-linejoin="round" stroke="rgb(92.156863%, 92.156863%, 92.156863%)" stroke-opacity="1" stroke-miterlimit="10" d="M 31.164062 48.070312 L 94.546875 48.070312 "/>
</g>
<g clip-path="url(#clip-6)">
<path fill="none" stroke-width="0.533489" stroke-linecap="butt" stroke-linejoin="round" stroke="rgb(92.156863%, 92.156863%, 92.156863%)" stroke-opacity="1" stroke-miterlimit="10" d="M 39.808594 233.4375 L 39.808594 22.398438 "/>
</g>
<g clip-path="url(#clip-7)">
<path fill="none" stroke-width="0.533489" stroke-linecap="butt" stroke-linejoin="round" stroke="rgb(92.156863%, 92.156863%, 92.156863%)" stroke-opacity="1" stroke-miterlimit="10" d="M 55.171875 233.4375 L 55.171875 22.398438 "/>
</g>
<g clip-path="url(#clip-8)">
<path fill="none" stroke-width="0.533489" stroke-linecap="butt" stroke-linejoin="round" stroke="rgb(92.156863%, 92.156863%, 92.156863%)" stroke-opacity="1" stroke-miterlimit="10" d="M 70.539062 233.4375 L 70.539062 22.398438 "/>
</g>
<g clip-path="url(#clip-9)">
<path fill="none" stroke-width="0.533489" stroke-linecap="butt" stroke-linejoin="round" stroke="rgb(92.156863%, 92.156863%, 92.156863%)" stroke-opacity="1" stroke-miterlimit="10" d="M 85.902344 233.4375 L 85.902344 22.398438 "/>
</g>
<g clip-path="url(#clip-10)">
<path fill="none" stroke-width="1.066978" stroke-linecap="butt" stroke-linejoin="round" stroke="rgb(92.156863%, 92.156863%, 92.156863%)" stroke-opacity="1" stroke-miterlimit="10" d="M 31.164062 232.949219 L 94.546875 232.949219 "/>
</g>
<g clip-path="url(#clip-11)">
<path fill="none" stroke-width="1.066978" stroke-linecap="butt" stroke-linejoin="round" stroke="rgb(92.156863%, 92.156863%, 92.156863%)" stroke-opacity="1" stroke-miterlimit="10" d="M 31.164062 199.335938 L 94.546875 199.335938 "/>
</g>
<g clip-path="url(#clip-12)">
<path fill="none" stroke-width="1.066978" stroke-linecap="butt" stroke-linejoin="round" stroke="rgb(92.156863%, 92.156863%, 92.156863%)" stroke-opacity="1" stroke-miterlimit="10" d="M 31.164062 165.722656 L 94.546875 165.722656 "/>
</g>
<g clip-path="url(#clip-13)">
<path fill="none" stroke-width="1.066978" stroke-linecap="butt" stroke-linejoin="round" stroke="rgb(92.156863%, 92.156863%, 92.156863%)" stroke-opacity="1" stroke-miterlimit="10" d="M 31.164062 132.105469 L 94.546875 132.105469 "/>
</g>
<g clip-path="url(#clip-14)">
<path fill="none" stroke-width="1.066978" stroke-linecap="butt" stroke-linejoin="round" stroke="rgb(92.156863%, 92.156863%, 92.156863%)" stroke-opacity="1" stroke-miterlimit="10" d="M 31.164062 98.492188 L 94.546875 98.492188 "/>
</g>
<g clip-path="url(#clip-15)">
<path fill="none" stroke-width="1.066978" stroke-linecap="butt" stroke-linejoin="round" stroke="rgb(92.156863%, 92.156863%, 92.156863%)" stroke-opacity="1" stroke-miterlimit="10" d="M 31.164062 64.878906 L 94.546875 64.878906 "/>
</g>
<g clip-path="url(#clip-16)">
<path fill="none" stroke-width="1.066978" stroke-linecap="butt" stroke-linejoin="round" stroke="rgb(92.156863%, 92.156863%, 92.156863%)" stroke-opacity="1" stroke-miterlimit="10" d="M 31.164062 31.261719 L 94.546875 31.261719 "/>
</g>
<g clip-path="url(#clip-17)">
<path fill="none" stroke-width="1.066978" stroke-linecap="butt" stroke-linejoin="round" stroke="rgb(92.156863%, 92.156863%, 92.156863%)" stroke-opacity="1" stroke-miterlimit="10" d="M 32.125 233.4375 L 32.125 22.398438 "/>
</g>
<g clip-path="url(#clip-18)">
<path fill="none" stroke-width="1.066978" stroke-linecap="butt" stroke-linejoin="round" stroke="rgb(92.156863%, 92.156863%, 92.156863%)" stroke-opacity="1" stroke-miterlimit="10" d="M 47.488281 233.4375 L 47.488281 22.398438 "/>
</g>
<g clip-path="url(#clip-19)">
<path fill="none" stroke-width="1.066978" stroke-linecap="butt" stroke-linejoin="round" stroke="rgb(92.156863%, 92.156863%, 92.156863%)" stroke-opacity="1" stroke-miterlimit="10" d="M 62.855469 233.4375 L 62.855469 22.398438 "/>
</g>
<g clip-path="url(#clip-20)">
<path fill="none" stroke-width="1.066978" stroke-linecap="butt" stroke-linejoin="round" stroke="rgb(92.156863%, 92.156863%, 92.156863%)" stroke-opacity="1" stroke-miterlimit="10" d="M 78.222656 233.4375 L 78.222656 22.398438 "/>
</g>
<g clip-path="url(#clip-21)">
<path fill="none" stroke-width="1.066978" stroke-linecap="butt" stroke-linejoin="round" stroke="rgb(92.156863%, 92.156863%, 92.156863%)" stroke-opacity="1" stroke-miterlimit="10" d="M 93.585938 233.4375 L 93.585938 22.398438 "/>
</g>
<path fill-rule="nonzero" fill="rgb(20%, 20%, 20%)" fill-opacity="1" stroke-width="0.708661" stroke-linecap="round" stroke-linejoin="round" stroke="rgb(20%, 20%, 20%)" stroke-opacity="1" stroke-miterlimit="10" d="M 64.808594 39.371094 C 64.808594 41.976562 60.902344 41.976562 60.902344 39.371094 C 60.902344 36.765625 64.808594 36.765625 64.808594 39.371094 "/>
<path fill-rule="nonzero" fill="rgb(20%, 20%, 20%)" fill-opacity="1" stroke-width="0.708661" stroke-linecap="round" stroke-linejoin="round" stroke="rgb(20%, 20%, 20%)" stroke-opacity="1" stroke-miterlimit="10" d="M 64.808594 34.089844 C 64.808594 36.699219 60.902344 36.699219 60.902344 34.089844 C 60.902344 31.484375 64.808594 31.484375 64.808594 34.089844 "/>
<path fill-rule="nonzero" fill="rgb(20%, 20%, 20%)" fill-opacity="1" stroke-width="0.708661" stroke-linecap="round" stroke-linejoin="round" stroke="rgb(20%, 20%, 20%)" stroke-opacity="1" stroke-miterlimit="10" d="M 64.808594 31.992188 C 64.808594 34.597656 60.902344 34.597656 60.902344 31.992188 C 60.902344 29.382812 64.808594 29.382812 64.808594 31.992188 "/>
<path fill-rule="nonzero" fill="rgb(20%, 20%, 20%)" fill-opacity="1" stroke-width="0.708661" stroke-linecap="round" stroke-linejoin="round" stroke="rgb(20%, 20%, 20%)" stroke-opacity="1" stroke-miterlimit="10" d="M 64.808594 221.429688 C 64.808594 224.035156 60.902344 224.035156 60.902344 221.429688 C 60.902344 218.824219 64.808594 218.824219 64.808594 221.429688 "/>
<path fill-rule="nonzero" fill="rgb(20%, 20%, 20%)" fill-opacity="1" stroke-width="0.708661" stroke-linecap="round" stroke-linejoin="round" stroke="rgb(20%, 20%, 20%)" stroke-opacity="1" stroke-miterlimit="10" d="M 64.808594 223.84375 C 64.808594 226.453125 60.902344 226.453125 60.902344 223.84375 C 60.902344 221.238281 64.808594 221.238281 64.808594 223.84375 "/>
<path fill="none" stroke-width="1.066978" stroke-linecap="butt" stroke-linejoin="round" stroke="rgb(20%, 20%, 20%)" stroke-opacity="1" stroke-miterlimit="10" d="M 62.855469 111.207031 L 62.855469 47.085938 "/>
<path fill="none" stroke-width="1.066978" stroke-linecap="butt" stroke-linejoin="round" stroke="rgb(20%, 20%, 20%)" stroke-opacity="1" stroke-miterlimit="10" d="M 62.855469 154.679688 L 62.855469 219.644531 "/>
<path fill-rule="nonzero" fill="rgb(0%, 9.803922%, 34.901961%)" fill-opacity="1" stroke-width="1.066978" stroke-linecap="butt" stroke-linejoin="miter" stroke="rgb(20%, 20%, 20%)" stroke-opacity="1" stroke-miterlimit="10" d="M 34.046875 111.207031 L 34.046875 154.679688 L 91.664062 154.679688 L 91.664062 111.207031 Z M 34.046875 111.207031 "/>
<path fill="none" stroke-width="2.133957" stroke-linecap="butt" stroke-linejoin="miter" stroke="rgb(20%, 20%, 20%)" stroke-opacity="1" stroke-miterlimit="10" d="M 34.046875 129.121094 L 91.664062 129.121094 "/>
<g clip-path="url(#clip-22)">
<path fill="none" stroke-width="0.533489" stroke-linecap="butt" stroke-linejoin="round" stroke="rgb(92.156863%, 92.156863%, 92.156863%)" stroke-opacity="1" stroke-miterlimit="10" d="M 112.78125 217.40625 L 176.164062 217.40625 "/>
</g>
<g clip-path="url(#clip-23)">
<path fill="none" stroke-width="0.533489" stroke-linecap="butt" stroke-linejoin="round" stroke="rgb(92.156863%, 92.156863%, 92.156863%)" stroke-opacity="1" stroke-miterlimit="10" d="M 112.78125 183.222656 L 176.164062 183.222656 "/>
</g>
<g clip-path="url(#clip-24)">
<path fill="none" stroke-width="0.533489" stroke-linecap="butt" stroke-linejoin="round" stroke="rgb(92.156863%, 92.156863%, 92.156863%)" stroke-opacity="1" stroke-miterlimit="10" d="M 112.78125 149.042969 L 176.164062 149.042969 "/>
</g>
<g clip-path="url(#clip-25)">
<path fill="none" stroke-width="0.533489" stroke-linecap="butt" stroke-linejoin="round" stroke="rgb(92.156863%, 92.156863%, 92.156863%)" stroke-opacity="1" stroke-miterlimit="10" d="M 112.78125 114.859375 L 176.164062 114.859375 "/>
</g>
<g clip-path="url(#clip-26)">
<path fill="none" stroke-width="0.533489" stroke-linecap="butt" stroke-linejoin="round" stroke="rgb(92.156863%, 92.156863%, 92.156863%)" stroke-opacity="1" stroke-miterlimit="10" d="M 112.78125 80.675781 L 176.164062 80.675781 "/>
</g>
<g clip-path="url(#clip-27)">
<path fill="none" stroke-width="0.533489" stroke-linecap="butt" stroke-linejoin="round" stroke="rgb(92.156863%, 92.156863%, 92.156863%)" stroke-opacity="1" stroke-miterlimit="10" d="M 112.78125 46.496094 L 176.164062 46.496094 "/>
</g>
<g clip-path="url(#clip-28)">
<path fill="none" stroke-width="0.533489" stroke-linecap="butt" stroke-linejoin="round" stroke="rgb(92.156863%, 92.156863%, 92.156863%)" stroke-opacity="1" stroke-miterlimit="10" d="M 121.425781 233.4375 L 121.425781 22.398438 "/>
</g>
<g clip-path="url(#clip-29)">
<path fill="none" stroke-width="0.533489" stroke-linecap="butt" stroke-linejoin="round" stroke="rgb(92.156863%, 92.156863%, 92.156863%)" stroke-opacity="1" stroke-miterlimit="10" d="M 136.789062 233.4375 L 136.789062 22.398438 "/>
</g>
<g clip-path="url(#clip-30)">
<path fill="none" stroke-width="0.533489" stroke-linecap="butt" stroke-linejoin="round" stroke="rgb(92.156863%, 92.156863%, 92.156863%)" stroke-opacity="1" stroke-miterlimit="10" d="M 152.15625 233.4375 L 152.15625 22.398438 "/>
</g>
<g clip-path="url(#clip-31)">
<path fill="none" stroke-width="0.533489" stroke-linecap="butt" stroke-linejoin="round" stroke="rgb(92.156863%, 92.156863%, 92.156863%)" stroke-opacity="1" stroke-miterlimit="10" d="M 167.523438 233.4375 L 167.523438 22.398438 "/>
</g>
<g clip-path="url(#clip-32)">
<path fill="none" stroke-width="1.066978" stroke-linecap="butt" stroke-linejoin="round" stroke="rgb(92.156863%, 92.156863%, 92.156863%)" stroke-opacity="1" stroke-miterlimit="10" d="M 112.78125 200.316406 L 176.164062 200.316406 "/>
</g>
<g clip-path="url(#clip-33)">
<path fill="none" stroke-width="1.066978" stroke-linecap="butt" stroke-linejoin="round" stroke="rgb(92.156863%, 92.156863%, 92.156863%)" stroke-opacity="1" stroke-miterlimit="10" d="M 112.78125 166.132812 L 176.164062 166.132812 "/>
</g>
<g clip-path="url(#clip-34)">
<path fill="none" stroke-width="1.066978" stroke-linecap="butt" stroke-linejoin="round" stroke="rgb(92.156863%, 92.156863%, 92.156863%)" stroke-opacity="1" stroke-miterlimit="10" d="M 112.78125 131.949219 L 176.164062 131.949219 "/>
</g>
<g clip-path="url(#clip-35)">
<path fill="none" stroke-width="1.066978" stroke-linecap="butt" stroke-linejoin="round" stroke="rgb(92.156863%, 92.156863%, 92.156863%)" stroke-opacity="1" stroke-miterlimit="10" d="M 112.78125 97.769531 L 176.164062 97.769531 "/>
</g>
<g clip-path="url(#clip-36)">
<path fill="none" stroke-width="1.066978" stroke-linecap="butt" stroke-linejoin="round" stroke="rgb(92.156863%, 92.156863%, 92.156863%)" stroke-opacity="1" stroke-miterlimit="10" d="M 112.78125 63.585938 L 176.164062 63.585938 "/>
</g>
<g clip-path="url(#clip-37)">
<path fill="none" stroke-width="1.066978" stroke-linecap="butt" stroke-linejoin="round" stroke="rgb(92.156863%, 92.156863%, 92.156863%)" stroke-opacity="1" stroke-miterlimit="10" d="M 112.78125 29.402344 L 176.164062 29.402344 "/>
</g>
<g clip-path="url(#clip-38)">
<path fill="none" stroke-width="1.066978" stroke-linecap="butt" stroke-linejoin="round" stroke="rgb(92.156863%, 92.156863%, 92.156863%)" stroke-opacity="1" stroke-miterlimit="10" d="M 113.742188 233.4375 L 113.742188 22.398438 "/>
</g>
<g clip-path="url(#clip-39)">
<path fill="none" stroke-width="1.066978" stroke-linecap="butt" stroke-linejoin="round" stroke="rgb(92.156863%, 92.156863%, 92.156863%)" stroke-opacity="1" stroke-miterlimit="10" d="M 129.109375 233.4375 L 129.109375 22.398438 "/>
</g>
<g clip-path="url(#clip-40)">
<path fill="none" stroke-width="1.066978" stroke-linecap="butt" stroke-linejoin="round" stroke="rgb(92.156863%, 92.156863%, 92.156863%)" stroke-opacity="1" stroke-miterlimit="10" d="M 144.472656 233.4375 L 144.472656 22.398438 "/>
</g>
<g clip-path="url(#clip-41)">
<path fill="none" stroke-width="1.066978" stroke-linecap="butt" stroke-linejoin="round" stroke="rgb(92.156863%, 92.156863%, 92.156863%)" stroke-opacity="1" stroke-miterlimit="10" d="M 159.839844 233.4375 L 159.839844 22.398438 "/>
</g>
<g clip-path="url(#clip-42)">
<path fill="none" stroke-width="1.066978" stroke-linecap="butt" stroke-linejoin="round" stroke="rgb(92.156863%, 92.156863%, 92.156863%)" stroke-opacity="1" stroke-miterlimit="10" d="M 175.203125 233.4375 L 175.203125 22.398438 "/>
</g>
<path fill-rule="nonzero" fill="rgb(20%, 20%, 20%)" fill-opacity="1" stroke-width="0.708661" stroke-linecap="round" stroke-linejoin="round" stroke="rgb(20%, 20%, 20%)" stroke-opacity="1" stroke-miterlimit="10" d="M 146.429688 39.089844 C 146.429688 41.699219 142.519531 41.699219 142.519531 39.089844 C 142.519531 36.484375 146.429688 36.484375 146.429688 39.089844 "/>
<path fill-rule="nonzero" fill="rgb(20%, 20%, 20%)" fill-opacity="1" stroke-width="0.708661" stroke-linecap="round" stroke-linejoin="round" stroke="rgb(20%, 20%, 20%)" stroke-opacity="1" stroke-miterlimit="10" d="M 146.429688 34.003906 C 146.429688 36.613281 142.519531 36.613281 142.519531 34.003906 C 142.519531 31.398438 146.429688 31.398438 146.429688 34.003906 "/>
<path fill-rule="nonzero" fill="rgb(20%, 20%, 20%)" fill-opacity="1" stroke-width="0.708661" stroke-linecap="round" stroke-linejoin="round" stroke="rgb(20%, 20%, 20%)" stroke-opacity="1" stroke-miterlimit="10" d="M 146.429688 31.992188 C 146.429688 34.597656 142.519531 34.597656 142.519531 31.992188 C 142.519531 29.382812 146.429688 29.382812 146.429688 31.992188 "/>
<path fill-rule="nonzero" fill="rgb(20%, 20%, 20%)" fill-opacity="1" stroke-width="0.708661" stroke-linecap="round" stroke-linejoin="round" stroke="rgb(20%, 20%, 20%)" stroke-opacity="1" stroke-miterlimit="10" d="M 146.429688 221.507812 C 146.429688 224.113281 142.519531 224.113281 142.519531 221.507812 C 142.519531 218.898438 146.429688 218.898438 146.429688 221.507812 "/>
<path fill-rule="nonzero" fill="rgb(20%, 20%, 20%)" fill-opacity="1" stroke-width="0.708661" stroke-linecap="round" stroke-linejoin="round" stroke="rgb(20%, 20%, 20%)" stroke-opacity="1" stroke-miterlimit="10" d="M 146.429688 223.84375 C 146.429688 226.453125 142.519531 226.453125 142.519531 223.84375 C 142.519531 221.238281 146.429688 221.238281 146.429688 223.84375 "/>
<path fill="none" stroke-width="1.066978" stroke-linecap="butt" stroke-linejoin="round" stroke="rgb(20%, 20%, 20%)" stroke-opacity="1" stroke-miterlimit="10" d="M 144.472656 110.667969 L 144.472656 46.578125 "/>
<path fill="none" stroke-width="1.066978" stroke-linecap="butt" stroke-linejoin="round" stroke="rgb(20%, 20%, 20%)" stroke-opacity="1" stroke-miterlimit="10" d="M 144.472656 154.933594 L 144.472656 219.773438 "/>
<path fill-rule="nonzero" fill="rgb(50.588235%, 50.980392%, 19.215686%)" fill-opacity="1" stroke-width="1.066978" stroke-linecap="butt" stroke-linejoin="miter" stroke="rgb(20%, 20%, 20%)" stroke-opacity="1" stroke-miterlimit="10" d="M 115.664062 110.667969 L 115.664062 154.933594 L 173.285156 154.933594 L 173.285156 110.667969 Z M 115.664062 110.667969 "/>
<path fill="none" stroke-width="2.133957" stroke-linecap="butt" stroke-linejoin="miter" stroke="rgb(20%, 20%, 20%)" stroke-opacity="1" stroke-miterlimit="10" d="M 115.664062 128.910156 L 173.285156 128.910156 "/>
<g clip-path="url(#clip-43)">
<path fill="none" stroke-width="0.533489" stroke-linecap="butt" stroke-linejoin="round" stroke="rgb(92.156863%, 92.156863%, 92.156863%)" stroke-opacity="1" stroke-miterlimit="10" d="M 199.292969 215.390625 L 262.675781 215.390625 "/>
</g>
<g clip-path="url(#clip-44)">
<path fill="none" stroke-width="0.533489" stroke-linecap="butt" stroke-linejoin="round" stroke="rgb(92.156863%, 92.156863%, 92.156863%)" stroke-opacity="1" stroke-miterlimit="10" d="M 199.292969 159.757812 L 262.675781 159.757812 "/>
</g>
<g clip-path="url(#clip-45)">
<path fill="none" stroke-width="0.533489" stroke-linecap="butt" stroke-linejoin="round" stroke="rgb(92.156863%, 92.156863%, 92.156863%)" stroke-opacity="1" stroke-miterlimit="10" d="M 199.292969 104.125 L 262.675781 104.125 "/>
</g>
<g clip-path="url(#clip-46)">
<path fill="none" stroke-width="0.533489" stroke-linecap="butt" stroke-linejoin="round" stroke="rgb(92.156863%, 92.156863%, 92.156863%)" stroke-opacity="1" stroke-miterlimit="10" d="M 199.292969 48.492188 L 262.675781 48.492188 "/>
</g>
<g clip-path="url(#clip-47)">
<path fill="none" stroke-width="0.533489" stroke-linecap="butt" stroke-linejoin="round" stroke="rgb(92.156863%, 92.156863%, 92.156863%)" stroke-opacity="1" stroke-miterlimit="10" d="M 207.9375 233.4375 L 207.9375 22.398438 "/>
</g>
<g clip-path="url(#clip-48)">
<path fill="none" stroke-width="0.533489" stroke-linecap="butt" stroke-linejoin="round" stroke="rgb(92.156863%, 92.156863%, 92.156863%)" stroke-opacity="1" stroke-miterlimit="10" d="M 223.304688 233.4375 L 223.304688 22.398438 "/>
</g>
<g clip-path="url(#clip-49)">
<path fill="none" stroke-width="0.533489" stroke-linecap="butt" stroke-linejoin="round" stroke="rgb(92.156863%, 92.156863%, 92.156863%)" stroke-opacity="1" stroke-miterlimit="10" d="M 238.667969 233.4375 L 238.667969 22.398438 "/>
</g>
<g clip-path="url(#clip-50)">
<path fill="none" stroke-width="0.533489" stroke-linecap="butt" stroke-linejoin="round" stroke="rgb(92.156863%, 92.156863%, 92.156863%)" stroke-opacity="1" stroke-miterlimit="10" d="M 254.035156 233.4375 L 254.035156 22.398438 "/>
</g>
<g clip-path="url(#clip-51)">
<path fill="none" stroke-width="1.066978" stroke-linecap="butt" stroke-linejoin="round" stroke="rgb(92.156863%, 92.156863%, 92.156863%)" stroke-opacity="1" stroke-miterlimit="10" d="M 199.292969 187.574219 L 262.675781 187.574219 "/>
</g>
<g clip-path="url(#clip-52)">
<path fill="none" stroke-width="1.066978" stroke-linecap="butt" stroke-linejoin="round" stroke="rgb(92.156863%, 92.156863%, 92.156863%)" stroke-opacity="1" stroke-miterlimit="10" d="M 199.292969 131.941406 L 262.675781 131.941406 "/>
</g>
<g clip-path="url(#clip-53)">
<path fill="none" stroke-width="1.066978" stroke-linecap="butt" stroke-linejoin="round" stroke="rgb(92.156863%, 92.156863%, 92.156863%)" stroke-opacity="1" stroke-miterlimit="10" d="M 199.292969 76.308594 L 262.675781 76.308594 "/>
</g>
<g clip-path="url(#clip-54)">
<path fill="none" stroke-width="1.066978" stroke-linecap="butt" stroke-linejoin="round" stroke="rgb(92.156863%, 92.156863%, 92.156863%)" stroke-opacity="1" stroke-miterlimit="10" d="M 200.253906 233.4375 L 200.253906 22.398438 "/>
</g>
<g clip-path="url(#clip-55)">
<path fill="none" stroke-width="1.066978" stroke-linecap="butt" stroke-linejoin="round" stroke="rgb(92.156863%, 92.156863%, 92.156863%)" stroke-opacity="1" stroke-miterlimit="10" d="M 215.621094 233.4375 L 215.621094 22.398438 "/>
</g>
<g clip-path="url(#clip-56)">
<path fill="none" stroke-width="1.066978" stroke-linecap="butt" stroke-linejoin="round" stroke="rgb(92.156863%, 92.156863%, 92.156863%)" stroke-opacity="1" stroke-miterlimit="10" d="M 230.984375 233.4375 L 230.984375 22.398438 "/>
</g>
<g clip-path="url(#clip-57)">
<path fill="none" stroke-width="1.066978" stroke-linecap="butt" stroke-linejoin="round" stroke="rgb(92.156863%, 92.156863%, 92.156863%)" stroke-opacity="1" stroke-miterlimit="10" d="M 246.351562 233.4375 L 246.351562 22.398438 "/>
</g>
<g clip-path="url(#clip-58)">
<path fill="none" stroke-width="1.066978" stroke-linecap="butt" stroke-linejoin="round" stroke="rgb(92.156863%, 92.156863%, 92.156863%)" stroke-opacity="1" stroke-miterlimit="10" d="M 261.71875 233.4375 L 261.71875 22.398438 "/>
</g>
<path fill-rule="nonzero" fill="rgb(20%, 20%, 20%)" fill-opacity="1" stroke-width="0.708661" stroke-linecap="round" stroke-linejoin="round" stroke="rgb(20%, 20%, 20%)" stroke-opacity="1" stroke-miterlimit="10" d="M 232.941406 39.695312 C 232.941406 42.300781 229.03125 42.300781 229.03125 39.695312 C 229.03125 37.089844 232.941406 37.089844 232.941406 39.695312 "/>
<path fill-rule="nonzero" fill="rgb(20%, 20%, 20%)" fill-opacity="1" stroke-width="0.708661" stroke-linecap="round" stroke-linejoin="round" stroke="rgb(20%, 20%, 20%)" stroke-opacity="1" stroke-miterlimit="10" d="M 232.941406 34.363281 C 232.941406 36.972656 229.03125 36.972656 229.03125 34.363281 C 229.03125 31.757812 232.941406 31.757812 232.941406 34.363281 "/>
<path fill-rule="nonzero" fill="rgb(20%, 20%, 20%)" fill-opacity="1" stroke-width="0.708661" stroke-linecap="round" stroke-linejoin="round" stroke="rgb(20%, 20%, 20%)" stroke-opacity="1" stroke-miterlimit="10" d="M 232.941406 31.992188 C 232.941406 34.597656 229.03125 34.597656 229.03125 31.992188 C 229.03125 29.382812 232.941406 29.382812 232.941406 31.992188 "/>
<path fill-rule="nonzero" fill="rgb(20%, 20%, 20%)" fill-opacity="1" stroke-width="0.708661" stroke-linecap="round" stroke-linejoin="round" stroke="rgb(20%, 20%, 20%)" stroke-opacity="1" stroke-miterlimit="10" d="M 232.941406 221.488281 C 232.941406 224.09375 229.03125 224.09375 229.03125 221.488281 C 229.03125 218.882812 232.941406 218.882812 232.941406 221.488281 "/>
<path fill-rule="nonzero" fill="rgb(20%, 20%, 20%)" fill-opacity="1" stroke-width="0.708661" stroke-linecap="round" stroke-linejoin="round" stroke="rgb(20%, 20%, 20%)" stroke-opacity="1" stroke-miterlimit="10" d="M 232.941406 223.84375 C 232.941406 226.453125 229.03125 226.453125 229.03125 223.84375 C 229.03125 221.238281 232.941406 221.238281 232.941406 223.84375 "/>
<path fill="none" stroke-width="1.066978" stroke-linecap="butt" stroke-linejoin="round" stroke="rgb(20%, 20%, 20%)" stroke-opacity="1" stroke-miterlimit="10" d="M 230.984375 110.695312 L 230.984375 46.855469 "/>
<path fill="none" stroke-width="1.066978" stroke-linecap="butt" stroke-linejoin="round" stroke="rgb(20%, 20%, 20%)" stroke-opacity="1" stroke-miterlimit="10" d="M 230.984375 154.777344 L 230.984375 219.707031 "/>
<path fill-rule="nonzero" fill="rgb(97.647059%, 80%, 97.647059%)" fill-opacity="1" stroke-width="1.066978" stroke-linecap="butt" stroke-linejoin="miter" stroke="rgb(20%, 20%, 20%)" stroke-opacity="1" stroke-miterlimit="10" d="M 202.175781 110.695312 L 202.175781 154.777344 L 259.796875 154.777344 L 259.796875 110.695312 Z M 202.175781 110.695312 "/>
<path fill="none" stroke-width="2.133957" stroke-linecap="butt" stroke-linejoin="miter" stroke="rgb(20%, 20%, 20%)" stroke-opacity="1" stroke-miterlimit="10" d="M 202.175781 128.898438 L 259.796875 128.898438 "/>
<g clip-path="url(#clip-59)">
<g fill="rgb(10.196078%, 10.196078%, 10.196078%)" fill-opacity="1">
<use xlink:href="#glyph-0-0" x="21.273438" y="17.089844"/>
<use xlink:href="#glyph-0-1" x="24.203906" y="17.089844"/>
<use xlink:href="#glyph-0-2" x="29.098047" y="17.089844"/>
<use xlink:href="#glyph-0-3" x="33.498047" y="17.089844"/>
<use xlink:href="#glyph-0-4" x="35.453125" y="17.089844"/>
<use xlink:href="#glyph-0-5" x="40.347266" y="17.089844"/>
<use xlink:href="#glyph-0-1" x="45.241406" y="17.089844"/>
<use xlink:href="#glyph-0-2" x="50.135547" y="17.089844"/>
<use xlink:href="#glyph-0-6" x="54.535547" y="17.089844"/>
<use xlink:href="#glyph-0-7" x="56.980469" y="17.089844"/>
<use xlink:href="#glyph-0-4" x="61.874609" y="17.089844"/>
<use xlink:href="#glyph-0-1" x="66.76875" y="17.089844"/>
<use xlink:href="#glyph-0-8" x="71.662891" y="17.089844"/>
<use xlink:href="#glyph-0-6" x="76.557031" y="17.089844"/>
<use xlink:href="#glyph-0-3" x="79.001953" y="17.089844"/>
<use xlink:href="#glyph-0-9" x="80.957031" y="17.089844"/>
<use xlink:href="#glyph-0-10" x="85.357031" y="17.089844"/>
<use xlink:href="#glyph-0-4" x="90.251172" y="17.089844"/>
<use xlink:href="#glyph-0-11" x="95.145313" y="17.089844"/>
<use xlink:href="#glyph-0-2" x="100.039453" y="17.089844"/>
</g>
</g>
<g clip-path="url(#clip-60)">
<g fill="rgb(10.196078%, 10.196078%, 10.196078%)" fill-opacity="1">
<use xlink:href="#glyph-0-0" x="106.320312" y="17.089844"/>
<use xlink:href="#glyph-0-1" x="109.250781" y="17.089844"/>
<use xlink:href="#glyph-0-2" x="114.144922" y="17.089844"/>
<use xlink:href="#glyph-0-3" x="118.544922" y="17.089844"/>
<use xlink:href="#glyph-0-4" x="120.5" y="17.089844"/>
<use xlink:href="#glyph-0-5" x="125.394141" y="17.089844"/>
<use xlink:href="#glyph-0-8" x="130.288281" y="17.089844"/>
<use xlink:href="#glyph-0-11" x="135.182422" y="17.089844"/>
<use xlink:href="#glyph-0-0" x="140.076563" y="17.089844"/>
<use xlink:href="#glyph-0-12" x="143.007031" y="17.089844"/>
<use xlink:href="#glyph-0-10" x="150.3375" y="17.089844"/>
<use xlink:href="#glyph-0-13" x="155.231641" y="17.089844"/>
<use xlink:href="#glyph-0-3" x="157.186719" y="17.089844"/>
<use xlink:href="#glyph-0-9" x="159.141797" y="17.089844"/>
<use xlink:href="#glyph-0-10" x="163.541797" y="17.089844"/>
<use xlink:href="#glyph-0-4" x="168.435938" y="17.089844"/>
<use xlink:href="#glyph-0-11" x="173.330078" y="17.089844"/>
<use xlink:href="#glyph-0-2" x="178.224219" y="17.089844"/>
</g>
</g>
<g fill="rgb(10.196078%, 10.196078%, 10.196078%)" fill-opacity="1">
<use xlink:href="#glyph-0-0" x="210.929688" y="17.089844"/>
<use xlink:href="#glyph-0-1" x="213.860156" y="17.089844"/>
<use xlink:href="#glyph-0-2" x="218.754297" y="17.089844"/>
<use xlink:href="#glyph-0-3" x="223.154297" y="17.089844"/>
<use xlink:href="#glyph-0-4" x="225.109375" y="17.089844"/>
<use xlink:href="#glyph-0-7" x="230.003516" y="17.089844"/>
<use xlink:href="#glyph-0-10" x="234.897656" y="17.089844"/>
<use xlink:href="#glyph-0-13" x="239.791797" y="17.089844"/>
<use xlink:href="#glyph-0-1" x="241.746875" y="17.089844"/>
<use xlink:href="#glyph-0-2" x="246.641016" y="17.089844"/>
</g>
<g fill="rgb(30.196078%, 30.196078%, 30.196078%)" fill-opacity="1">
<use xlink:href="#glyph-0-14" x="24.542969" y="244.667969"/>
<use xlink:href="#glyph-0-15" x="27.473437" y="244.667969"/>
<use xlink:href="#glyph-0-16" x="32.367578" y="244.667969"/>
<use xlink:href="#glyph-0-17" x="34.8125" y="244.667969"/>
</g>
<g fill="rgb(30.196078%, 30.196078%, 30.196078%)" fill-opacity="1">
<use xlink:href="#glyph-0-14" x="39.90625" y="244.667969"/>
<use xlink:href="#glyph-0-15" x="42.836719" y="244.667969"/>
<use xlink:href="#glyph-0-16" x="47.730859" y="244.667969"/>
<use xlink:href="#glyph-0-18" x="50.175781" y="244.667969"/>
</g>
<g fill="rgb(30.196078%, 30.196078%, 30.196078%)" fill-opacity="1">
<use xlink:href="#glyph-0-15" x="56.738281" y="244.667969"/>
<use xlink:href="#glyph-0-16" x="61.632422" y="244.667969"/>
<use xlink:href="#glyph-0-15" x="64.077344" y="244.667969"/>
</g>
<g fill="rgb(30.196078%, 30.196078%, 30.196078%)" fill-opacity="1">
<use xlink:href="#glyph-0-15" x="72.105469" y="244.667969"/>
<use xlink:href="#glyph-0-16" x="76.999609" y="244.667969"/>
<use xlink:href="#glyph-0-18" x="79.444531" y="244.667969"/>
</g>
<g fill="rgb(30.196078%, 30.196078%, 30.196078%)" fill-opacity="1">
<use xlink:href="#glyph-0-15" x="87.46875" y="244.667969"/>
<use xlink:href="#glyph-0-16" x="92.362891" y="244.667969"/>
<use xlink:href="#glyph-0-17" x="94.807813" y="244.667969"/>
</g>
<g fill="rgb(30.196078%, 30.196078%, 30.196078%)" fill-opacity="1">
<use xlink:href="#glyph-0-14" x="106.160156" y="244.667969"/>
<use xlink:href="#glyph-0-15" x="109.090625" y="244.667969"/>
<use xlink:href="#glyph-0-16" x="113.984766" y="244.667969"/>
<use xlink:href="#glyph-0-17" x="116.429688" y="244.667969"/>
</g>
<g fill="rgb(30.196078%, 30.196078%, 30.196078%)" fill-opacity="1">
<use xlink:href="#glyph-0-14" x="121.527344" y="244.667969"/>
<use xlink:href="#glyph-0-15" x="124.457813" y="244.667969"/>
<use xlink:href="#glyph-0-16" x="129.351953" y="244.667969"/>
<use xlink:href="#glyph-0-18" x="131.796875" y="244.667969"/>
</g>
<g fill="rgb(30.196078%, 30.196078%, 30.196078%)" fill-opacity="1">
<use xlink:href="#glyph-0-15" x="138.355469" y="244.667969"/>
<use xlink:href="#glyph-0-16" x="143.249609" y="244.667969"/>
<use xlink:href="#glyph-0-15" x="145.694531" y="244.667969"/>
</g>
<g fill="rgb(30.196078%, 30.196078%, 30.196078%)" fill-opacity="1">
<use xlink:href="#glyph-0-15" x="153.722656" y="244.667969"/>
<use xlink:href="#glyph-0-16" x="158.616797" y="244.667969"/>
<use xlink:href="#glyph-0-18" x="161.061719" y="244.667969"/>
</g>
<g fill="rgb(30.196078%, 30.196078%, 30.196078%)" fill-opacity="1">
<use xlink:href="#glyph-0-15" x="169.085938" y="244.667969"/>
<use xlink:href="#glyph-0-16" x="173.980078" y="244.667969"/>
<use xlink:href="#glyph-0-17" x="176.425" y="244.667969"/>
</g>
<g fill="rgb(30.196078%, 30.196078%, 30.196078%)" fill-opacity="1">
<use xlink:href="#glyph-0-14" x="192.671875" y="244.667969"/>
<use xlink:href="#glyph-0-15" x="195.602344" y="244.667969"/>
<use xlink:href="#glyph-0-16" x="200.496484" y="244.667969"/>
<use xlink:href="#glyph-0-17" x="202.941406" y="244.667969"/>
</g>
<g fill="rgb(30.196078%, 30.196078%, 30.196078%)" fill-opacity="1">
<use xlink:href="#glyph-0-14" x="208.039062" y="244.667969"/>
<use xlink:href="#glyph-0-15" x="210.969531" y="244.667969"/>
<use xlink:href="#glyph-0-16" x="215.863672" y="244.667969"/>
<use xlink:href="#glyph-0-18" x="218.308594" y="244.667969"/>
</g>
<g fill="rgb(30.196078%, 30.196078%, 30.196078%)" fill-opacity="1">
<use xlink:href="#glyph-0-15" x="224.867188" y="244.667969"/>
<use xlink:href="#glyph-0-16" x="229.761328" y="244.667969"/>
<use xlink:href="#glyph-0-15" x="232.20625" y="244.667969"/>
</g>
<g fill="rgb(30.196078%, 30.196078%, 30.196078%)" fill-opacity="1">
<use xlink:href="#glyph-0-15" x="240.234375" y="244.667969"/>
<use xlink:href="#glyph-0-16" x="245.128516" y="244.667969"/>
<use xlink:href="#glyph-0-18" x="247.573438" y="244.667969"/>
</g>
<g fill="rgb(30.196078%, 30.196078%, 30.196078%)" fill-opacity="1">
<use xlink:href="#glyph-0-15" x="255.601562" y="244.667969"/>
<use xlink:href="#glyph-0-16" x="260.495703" y="244.667969"/>
<use xlink:href="#glyph-0-17" x="262.940625" y="244.667969"/>
</g>
<g fill="rgb(30.196078%, 30.196078%, 30.196078%)" fill-opacity="1">
<use xlink:href="#glyph-0-14" x="181.644531" y="190.722656"/>
<use xlink:href="#glyph-0-18" x="184.575" y="190.722656"/>
<use xlink:href="#glyph-0-15" x="189.469141" y="190.722656"/>
</g>
<g fill="rgb(30.196078%, 30.196078%, 30.196078%)" fill-opacity="1">
<use xlink:href="#glyph-0-15" x="189.46875" y="135.089844"/>
</g>
<g fill="rgb(30.196078%, 30.196078%, 30.196078%)" fill-opacity="1">
<use xlink:href="#glyph-0-18" x="184.574219" y="79.457031"/>
<use xlink:href="#glyph-0-15" x="189.468359" y="79.457031"/>
</g>
<g fill="rgb(30.196078%, 30.196078%, 30.196078%)" fill-opacity="1">
<use xlink:href="#glyph-0-14" x="100.027344" y="203.464844"/>
<use xlink:href="#glyph-0-18" x="102.957813" y="203.464844"/>
</g>
<g fill="rgb(30.196078%, 30.196078%, 30.196078%)" fill-opacity="1">
<use xlink:href="#glyph-0-14" x="100.027344" y="169.28125"/>
<use xlink:href="#glyph-0-19" x="102.957813" y="169.28125"/>
</g>
<g fill="rgb(30.196078%, 30.196078%, 30.196078%)" fill-opacity="1">
<use xlink:href="#glyph-0-15" x="102.957031" y="135.101562"/>
</g>
<g fill="rgb(30.196078%, 30.196078%, 30.196078%)" fill-opacity="1">
<use xlink:href="#glyph-0-19" x="102.957031" y="100.917969"/>
</g>
<g fill="rgb(30.196078%, 30.196078%, 30.196078%)" fill-opacity="1">
<use xlink:href="#glyph-0-18" x="102.957031" y="66.734375"/>
</g>
<g fill="rgb(30.196078%, 30.196078%, 30.196078%)" fill-opacity="1">
<use xlink:href="#glyph-0-20" x="102.957031" y="32.554688"/>
</g>
<g fill="rgb(30.196078%, 30.196078%, 30.196078%)" fill-opacity="1">
<use xlink:href="#glyph-0-14" x="18.410156" y="236.101562"/>
<use xlink:href="#glyph-0-20" x="21.340625" y="236.101562"/>
</g>
<g fill="rgb(30.196078%, 30.196078%, 30.196078%)" fill-opacity="1">
<use xlink:href="#glyph-0-14" x="18.410156" y="202.484375"/>
<use xlink:href="#glyph-0-18" x="21.340625" y="202.484375"/>
</g>
<g fill="rgb(30.196078%, 30.196078%, 30.196078%)" fill-opacity="1">
<use xlink:href="#glyph-0-14" x="18.410156" y="168.871094"/>
<use xlink:href="#glyph-0-19" x="21.340625" y="168.871094"/>
</g>
<g fill="rgb(30.196078%, 30.196078%, 30.196078%)" fill-opacity="1">
<use xlink:href="#glyph-0-15" x="21.339844" y="135.257812"/>
</g>
<g fill="rgb(30.196078%, 30.196078%, 30.196078%)" fill-opacity="1">
<use xlink:href="#glyph-0-19" x="21.339844" y="101.640625"/>
</g>
<g fill="rgb(30.196078%, 30.196078%, 30.196078%)" fill-opacity="1">
<use xlink:href="#glyph-0-18" x="21.339844" y="68.027344"/>
</g>
<g fill="rgb(30.196078%, 30.196078%, 30.196078%)" fill-opacity="1">
<use xlink:href="#glyph-0-20" x="21.339844" y="34.414062"/>
</g>
<g fill="rgb(0%, 0%, 0%)" fill-opacity="1">
<use xlink:href="#glyph-1-0" x="13.351562" y="141.066406"/>
<use xlink:href="#glyph-1-1" x="13.351562" y="135.566406"/>
<use xlink:href="#glyph-1-2" x="13.351563" y="129.44873"/>
<use xlink:href="#glyph-1-3" x="13.351563" y="127.004883"/>
<use xlink:href="#glyph-1-4" x="13.351563" y="120.887207"/>
</g>
<g fill="rgb(0%, 0%, 0%)" fill-opacity="1">
<use xlink:href="#glyph-2-0" x="279.117188" y="103.195312"/>
<use xlink:href="#glyph-2-1" x="282.17334" y="103.195312"/>
<use xlink:href="#glyph-2-2" x="284.617188" y="103.195312"/>
<use xlink:href="#glyph-2-3" x="290.734863" y="103.195312"/>
</g>
<path fill="none" stroke-width="1.066978" stroke-linecap="butt" stroke-linejoin="miter" stroke="rgb(20%, 20%, 20%)" stroke-opacity="1" stroke-miterlimit="10" d="M 287.753906 125.382812 L 287.753906 122.792969 "/>
<path fill="none" stroke-width="1.066978" stroke-linecap="butt" stroke-linejoin="miter" stroke="rgb(20%, 20%, 20%)" stroke-opacity="1" stroke-miterlimit="10" d="M 287.753906 114.152344 L 287.753906 111.558594 "/>
<path fill-rule="nonzero" fill="rgb(0%, 9.803922%, 34.901961%)" fill-opacity="1" stroke-width="1.066978" stroke-linecap="butt" stroke-linejoin="miter" stroke="rgb(20%, 20%, 20%)" stroke-opacity="1" stroke-miterlimit="10" d="M 281.277344 122.792969 L 294.238281 122.792969 L 294.238281 114.152344 L 281.277344 114.152344 Z M 281.277344 122.792969 "/>
<path fill="none" stroke-width="1.066978" stroke-linecap="butt" stroke-linejoin="miter" stroke="rgb(20%, 20%, 20%)" stroke-opacity="1" stroke-miterlimit="10" d="M 281.277344 118.472656 L 294.234375 118.472656 "/>
<path fill="none" stroke-width="1.066978" stroke-linecap="butt" stroke-linejoin="miter" stroke="rgb(20%, 20%, 20%)" stroke-opacity="1" stroke-miterlimit="10" d="M 287.753906 125.382812 L 287.753906 125.382812 "/>
<path fill="none" stroke-width="1.066978" stroke-linecap="butt" stroke-linejoin="miter" stroke="rgb(20%, 20%, 20%)" stroke-opacity="1" stroke-miterlimit="10" d="M 287.753906 111.558594 L 287.753906 111.558594 "/>
<path fill="none" stroke-width="1.066978" stroke-linecap="butt" stroke-linejoin="miter" stroke="rgb(20%, 20%, 20%)" stroke-opacity="1" stroke-miterlimit="10" d="M 287.753906 142.664062 L 287.753906 140.070312 "/>
<path fill="none" stroke-width="1.066978" stroke-linecap="butt" stroke-linejoin="miter" stroke="rgb(20%, 20%, 20%)" stroke-opacity="1" stroke-miterlimit="10" d="M 287.753906 131.433594 L 287.753906 128.839844 "/>
<path fill-rule="nonzero" fill="rgb(50.588235%, 50.980392%, 19.215686%)" fill-opacity="1" stroke-width="1.066978" stroke-linecap="butt" stroke-linejoin="miter" stroke="rgb(20%, 20%, 20%)" stroke-opacity="1" stroke-miterlimit="10" d="M 281.277344 140.070312 L 294.238281 140.070312 L 294.238281 131.429688 L 281.277344 131.429688 Z M 281.277344 140.070312 "/>
<path fill="none" stroke-width="1.066978" stroke-linecap="butt" stroke-linejoin="miter" stroke="rgb(20%, 20%, 20%)" stroke-opacity="1" stroke-miterlimit="10" d="M 281.277344 135.753906 L 294.234375 135.753906 "/>
<path fill="none" stroke-width="1.066978" stroke-linecap="butt" stroke-linejoin="miter" stroke="rgb(20%, 20%, 20%)" stroke-opacity="1" stroke-miterlimit="10" d="M 287.753906 142.664062 L 287.753906 142.664062 "/>
<path fill="none" stroke-width="1.066978" stroke-linecap="butt" stroke-linejoin="miter" stroke="rgb(20%, 20%, 20%)" stroke-opacity="1" stroke-miterlimit="10" d="M 287.753906 128.839844 L 287.753906 128.839844 "/>
<path fill="none" stroke-width="1.066978" stroke-linecap="butt" stroke-linejoin="miter" stroke="rgb(20%, 20%, 20%)" stroke-opacity="1" stroke-miterlimit="10" d="M 287.753906 159.945312 L 287.753906 157.351562 "/>
<path fill="none" stroke-width="1.066978" stroke-linecap="butt" stroke-linejoin="miter" stroke="rgb(20%, 20%, 20%)" stroke-opacity="1" stroke-miterlimit="10" d="M 287.753906 148.710938 L 287.753906 146.121094 "/>
<path fill-rule="nonzero" fill="rgb(97.647059%, 80%, 97.647059%)" fill-opacity="1" stroke-width="1.066978" stroke-linecap="butt" stroke-linejoin="miter" stroke="rgb(20%, 20%, 20%)" stroke-opacity="1" stroke-miterlimit="10" d="M 281.277344 157.351562 L 294.238281 157.351562 L 294.238281 148.710938 L 281.277344 148.710938 Z M 281.277344 157.351562 "/>
<path fill="none" stroke-width="1.066978" stroke-linecap="butt" stroke-linejoin="miter" stroke="rgb(20%, 20%, 20%)" stroke-opacity="1" stroke-miterlimit="10" d="M 281.277344 153.03125 L 294.234375 153.03125 "/>
<path fill="none" stroke-width="1.066978" stroke-linecap="butt" stroke-linejoin="miter" stroke="rgb(20%, 20%, 20%)" stroke-opacity="1" stroke-miterlimit="10" d="M 287.753906 159.945312 L 287.753906 159.945312 "/>
<path fill="none" stroke-width="1.066978" stroke-linecap="butt" stroke-linejoin="miter" stroke="rgb(20%, 20%, 20%)" stroke-opacity="1" stroke-miterlimit="10" d="M 287.753906 146.121094 L 287.753906 146.121094 "/>
<g fill="rgb(0%, 0%, 0%)" fill-opacity="1">
<use xlink:href="#glyph-0-0" x="301.875" y="121.621094"/>
<use xlink:href="#glyph-0-1" x="304.805469" y="121.621094"/>
<use xlink:href="#glyph-0-2" x="309.699609" y="121.621094"/>
<use xlink:href="#glyph-0-3" x="314.099609" y="121.621094"/>
<use xlink:href="#glyph-0-4" x="316.054687" y="121.621094"/>
<use xlink:href="#glyph-0-5" x="320.948828" y="121.621094"/>
<use xlink:href="#glyph-0-1" x="325.842969" y="121.621094"/>
<use xlink:href="#glyph-0-2" x="330.737109" y="121.621094"/>
<use xlink:href="#glyph-0-6" x="335.137109" y="121.621094"/>
<use xlink:href="#glyph-0-7" x="337.582031" y="121.621094"/>
<use xlink:href="#glyph-0-4" x="342.476172" y="121.621094"/>
<use xlink:href="#glyph-0-1" x="347.370312" y="121.621094"/>
<use xlink:href="#glyph-0-8" x="352.264453" y="121.621094"/>
<use xlink:href="#glyph-0-6" x="357.158594" y="121.621094"/>
<use xlink:href="#glyph-0-3" x="359.603516" y="121.621094"/>
<use xlink:href="#glyph-0-9" x="361.558594" y="121.621094"/>
<use xlink:href="#glyph-0-10" x="365.958594" y="121.621094"/>
<use xlink:href="#glyph-0-4" x="370.852734" y="121.621094"/>
<use xlink:href="#glyph-0-11" x="375.746875" y="121.621094"/>
<use xlink:href="#glyph-0-2" x="380.641016" y="121.621094"/>
</g>
<g fill="rgb(0%, 0%, 0%)" fill-opacity="1">
<use xlink:href="#glyph-0-0" x="301.875" y="138.902344"/>
<use xlink:href="#glyph-0-1" x="304.805469" y="138.902344"/>
<use xlink:href="#glyph-0-2" x="309.699609" y="138.902344"/>
<use xlink:href="#glyph-0-3" x="314.099609" y="138.902344"/>
<use xlink:href="#glyph-0-4" x="316.054687" y="138.902344"/>
<use xlink:href="#glyph-0-5" x="320.948828" y="138.902344"/>
<use xlink:href="#glyph-0-8" x="325.842969" y="138.902344"/>
<use xlink:href="#glyph-0-11" x="330.737109" y="138.902344"/>
<use xlink:href="#glyph-0-0" x="335.63125" y="138.902344"/>
<use xlink:href="#glyph-0-12" x="338.561719" y="138.902344"/>
<use xlink:href="#glyph-0-10" x="345.892187" y="138.902344"/>
<use xlink:href="#glyph-0-13" x="350.786328" y="138.902344"/>
<use xlink:href="#glyph-0-3" x="352.741406" y="138.902344"/>
<use xlink:href="#glyph-0-9" x="354.696484" y="138.902344"/>
<use xlink:href="#glyph-0-10" x="359.096484" y="138.902344"/>
<use xlink:href="#glyph-0-4" x="363.990625" y="138.902344"/>
<use xlink:href="#glyph-0-11" x="368.884766" y="138.902344"/>
<use xlink:href="#glyph-0-2" x="373.778906" y="138.902344"/>
</g>
<g fill="rgb(0%, 0%, 0%)" fill-opacity="1">
<use xlink:href="#glyph-0-0" x="301.875" y="156.179688"/>
<use xlink:href="#glyph-0-1" x="304.805469" y="156.179688"/>
<use xlink:href="#glyph-0-2" x="309.699609" y="156.179688"/>
<use xlink:href="#glyph-0-3" x="314.099609" y="156.179688"/>
<use xlink:href="#glyph-0-4" x="316.054687" y="156.179688"/>
<use xlink:href="#glyph-0-7" x="320.948828" y="156.179688"/>
<use xlink:href="#glyph-0-10" x="325.842969" y="156.179688"/>
<use xlink:href="#glyph-0-13" x="330.737109" y="156.179688"/>
<use xlink:href="#glyph-0-1" x="332.692187" y="156.179688"/>
<use xlink:href="#glyph-0-2" x="337.586328" y="156.179688"/>
</g>
</svg>
