<?xml version="1.0" encoding="UTF-8" standalone="no"?>
<svg
   xmlns:dc="http://purl.org/dc/elements/1.1/"
   xmlns:cc="http://creativecommons.org/ns#"
   xmlns:rdf="http://www.w3.org/1999/02/22-rdf-syntax-ns#"
   xmlns:svg="http://www.w3.org/2000/svg"
   xmlns="http://www.w3.org/2000/svg"
   xmlns:sodipodi="http://sodipodi.sourceforge.net/DTD/sodipodi-0.dtd"
   xmlns:inkscape="http://www.inkscape.org/namespaces/inkscape"
   width="651"
   height="511"
   viewBox="0 0 494.25 383.25"
   version="1.1"
   id="svg6"
   sodipodi:docname="dag_col.svg"
   inkscape:version="1.0.1 (3bc2e813f5, 2020-09-07)">
  <metadata
     id="metadata30">
    <rdf:RDF>
      <cc:Work
         rdf:about="">
        <dc:format>image/svg+xml</dc:format>
        <dc:type
           rdf:resource="http://purl.org/dc/dcmitype/StillImage" />
        <dc:title></dc:title>
      </cc:Work>
    </rdf:RDF>
  </metadata>
  <defs
     id="defs6">
    <marker
       style="overflow:visible;"
       id="Arrow1Mend"
       refX="0.0"
       refY="0.0"
       orient="auto"
       inkscape:stockid="Arrow1Mend"
       inkscape:isstock="true">
      <path
         transform="scale(0.4) rotate(180) translate(10,0)"
         style="fill-rule:evenodd;stroke:#000000;stroke-width:1.0pt;"
         d="M 0.0,0.0 L 5.0,-5.0 L -12.5,0.0 L 5.0,5.0 L 0.0,0.0 z "
         id="path982" />
    </marker>
    <marker
       style="overflow:visible;"
       id="Arrow1Lend"
       refX="0.0"
       refY="0.0"
       orient="auto"
       inkscape:stockid="Arrow1Lend"
       inkscape:isstock="true">
      <path
         transform="scale(0.8) rotate(180) translate(12.5,0)"
         style="fill-rule:evenodd;stroke:#000000;stroke-width:1.0pt;"
         d="M 0.0,0.0 L 5.0,-5.0 L -12.5,0.0 L 5.0,5.0 L 0.0,0.0 z "
         id="path976" />
    </marker>
    <marker
       style="overflow:visible"
       id="DotL"
       refX="0.0"
       refY="0.0"
       orient="auto"
       inkscape:stockid="DotL"
       inkscape:isstock="true">
      <path
         transform="scale(0.8) translate(7.4, 1)"
         style="fill-rule:evenodd;stroke:#000000;stroke-width:1.0pt"
         d="M -2.5,-1.0 C -2.5,1.7600000 -4.7400000,4.0 -7.5,4.0 C -10.260000,4.0 -12.5,1.7600000 -12.5,-1.0 C -12.5,-3.7600000 -10.260000,-6.0 -7.5,-6.0 C -4.7400000,-6.0 -2.5,-3.7600000 -2.5,-1.0 z "
         id="path1034" />
    </marker>
    <marker
       style="overflow:visible;"
       id="Arrow2Lend"
       refX="0.0"
       refY="0.0"
       orient="auto"
       inkscape:stockid="Arrow2Lend"
       inkscape:isstock="true">
      <path
         transform="scale(1.1) rotate(180) translate(1,0)"
         d="M 8.7185878,4.0337352 L -2.2072895,0.016013256 L 8.7185884,-4.0017078 C 6.9730900,-1.6296469 6.9831476,1.6157441 8.7185878,4.0337352 z "
         style="fill-rule:evenodd;stroke-width:0.62500000;stroke-linejoin:round;"
         id="path994" />
    </marker>
  </defs>
  <sodipodi:namedview
     id="namedview6"
     pagecolor="#ffffff"
     bordercolor="#000000"
     borderopacity="0.25"
     inkscape:showpageshadow="2"
     inkscape:pageopacity="0.0"
     inkscape:pagecheckerboard="0"
     inkscape:deskcolor="#d1d1d1"
     inkscape:zoom="0.91754346"
     inkscape:cx="309.96835"
     inkscape:cy="255.48876"
     inkscape:window-width="1366"
     inkscape:window-height="705"
     inkscape:window-x="1352"
     inkscape:window-y="-8"
     inkscape:window-maximized="1"
     inkscape:current-layer="svg6"
     inkscape:document-rotation="0"
     showgrid="false" />
  <polygon
     fill="none"
     stroke="#ffffff"
     points="8,-8 8,-156.8 150,-156.8 150,-8 "
     id="polygon1"
     style="fill:#ffffff"
     transform="matrix(2.5756048,0,0,2.5756048,43.652222,403.85484)" />
  <text
     text-anchor="middle"
     x="247.125"
     y="42.755054"
     font-family="'Calibri:bold'"
     font-size="36.0585px"
     id="text1"
     style="stroke-width:2.5756">DAG de colisionador</text>
  <g
     id="node1"
     class="node"
     transform="matrix(2.5756048,0,0,2.5756048,-30.408443,493.71096)">
    <title
       id="title2">n1</title>
    <ellipse
       fill="#b2d680"
       stroke="#b2d680"
       cx="43"
       cy="-106"
       rx="27"
       ry="18"
       id="ellipse2" />
    <text
       text-anchor="middle"
       x="43"
       y="-101.8"
       font-family="'Calibri:bold'"
       font-size="14px"
       id="text2">X</text>
  </g>
  <g
     id="node2"
     class="node"
     transform="matrix(2.5756048,0,0,2.5756048,204.5859,308.26742)">
    <title
       id="title3">n2</title>
    <ellipse
       fill="#2c768c"
       stroke="#2c768c"
       cx="79"
       cy="-34"
       rx="27"
       ry="18"
       id="ellipse3" />
    <text
       text-anchor="middle"
       x="79"
       y="-29.799999"
       font-family="'Calibri:bold'"
       font-size="14px"
       id="text3">Y</text>
  </g>
  <ellipse
     fill="#dfe7b1"
     stroke="#dfe7b1"
     cx="240.13531"
     cy="137.077"
     rx="69.541328"
     ry="46.360886"
     id="ellipse5"
     style="stroke-width:2.5756" />
  <text
     text-anchor="middle"
     x="240.13531"
     y="147.89455"
     font-family="'Calibri:bold'"
     font-size="36.0585px"
     id="text5"
     style="stroke-width:2.5756">C</text>
  <g
     id="edge2"
     class="edge"
     transform="matrix(-0.20584531,1.9169962,-1.7561279,-0.22092707,218.99722,-26.478861)">
    <title
       id="title6">n3-&gt;n2</title>
    <path
       fill="none"
       stroke="#000000"
       d="m 106.65,-88.76 c -4.23,8.21 -9.46,18.39 -14.23,27.67"
       id="path6" />
    <polygon
       fill="#000000"
       stroke="#000000"
       points="89.46,-62.99 95.68,-59.79 88,-52.49 "
       id="polygon6" />
  </g>
  <g
     id="edge1"
     class="edge"
     transform="matrix(-0.32937112,-1.733016,1.7056467,-0.3346563,300.40001,254.41842)">
    <title
       id="title4">n1-&gt;n2</title>
    <path
       fill="none"
       stroke="#000000"
       d="m 51.35,-88.76 c 4.23,8.21 9.46,18.39 14.23,27.67"
       id="path4" />
    <polygon
       fill="#000000"
       stroke="#000000"
       points="68.54,-62.99 70,-52.49 62.32,-59.79 "
       id="polygon4" />
  </g>
</svg>
